<?xml version="1.0" encoding="utf-8" standalone="no"?>
<!DOCTYPE svg PUBLIC "-//W3C//DTD SVG 1.1//EN"
  "http://www.w3.org/Graphics/SVG/1.1/DTD/svg11.dtd">
<svg xmlns:xlink="http://www.w3.org/1999/xlink" width="770.6pt" height="281.14pt" viewBox="0 0 770.6 281.14" xmlns="http://www.w3.org/2000/svg" version="1.1">
 <metadata>
  <rdf:RDF xmlns:dc="http://purl.org/dc/elements/1.1/" xmlns:cc="http://creativecommons.org/ns#" xmlns:rdf="http://www.w3.org/1999/02/22-rdf-syntax-ns#">
   <cc:Work>
    <dc:type rdf:resource="http://purl.org/dc/dcmitype/StillImage"/>
    <dc:date>2026-08-20T21:16:22.960906</dc:date>
    <dc:format>image/svg+xml</dc:format>
    <dc:creator>
     <cc:Agent>
      <dc:title>Matplotlib v3.5.1, https://matplotlib.org/</dc:title>
     </cc:Agent>
    </dc:creator>
   </cc:Work>
  </rdf:RDF>
 </metadata>
 <defs>
  <style type="text/css">*{stroke-linejoin: round; stroke-linecap: butt}</style>
 </defs>
 <g id="figure_1">
  <g id="patch_1">
   <path d="M 0 281.14 
L 770.6 281.14 
L 770.6 0 
L 0 0 
z
" style="fill: #ffffff"/>
  </g>
  <g id="axes_1">
   <g id="patch_2">
    <path d="M 39.55 242.44 
L 379.955 242.44 
L 379.955 7.2 
L 39.55 7.2 
z
" style="fill: #ffffff"/>
   </g>
   <g id="matplotlib.axis_1">
    <g id="xtick_1">
     <g id="line2d_1">
      <defs>
       <path id="m1691db715d" d="M 0 0 
L 0 3.5 
" style="stroke: #252525; stroke-width: 0.8"/>
      </defs>
      <g>
       <use xlink:href="#m1691db715d" x="53.987974" y="242.44" style="fill: #252525; stroke: #252525; stroke-width: 0.8"/>
      </g>
     </g>
     <g id="text_1">
      <text style="fill: #252525; font: 10px 'sans-serif'; text-anchor: middle" x="53.987974" y="257.399375" transform="rotate(-0, 53.987974, 257.399375)">0</text>
     </g>
    </g>
    <g id="xtick_2">
     <g id="line2d_2">
      <g>
       <use xlink:href="#m1691db715d" x="105.736986" y="242.44" style="fill: #252525; stroke: #252525; stroke-width: 0.8"/>
      </g>
     </g>
     <g id="text_2">
      <text style="fill: #252525; font: 10px 'sans-serif'; text-anchor: middle" x="105.736986" y="257.399375" transform="rotate(-0, 105.736986, 257.399375)">50</text>
     </g>
    </g>
    <g id="xtick_3">
     <g id="line2d_3">
      <g>
       <use xlink:href="#m1691db715d" x="157.485998" y="242.44" style="fill: #252525; stroke: #252525; stroke-width: 0.8"/>
      </g>
     </g>
     <g id="text_3">
      <text style="fill: #252525; font: 10px 'sans-serif'; text-anchor: middle" x="157.485998" y="257.399375" transform="rotate(-0, 157.485998, 257.399375)">100</text>
     </g>
    </g>
    <g id="xtick_4">
     <g id="line2d_4">
      <g>
       <use xlink:href="#m1691db715d" x="209.23501" y="242.44" style="fill: #252525; stroke: #252525; stroke-width: 0.8"/>
      </g>
     </g>
     <g id="text_4">
      <text style="fill: #252525; font: 10px 'sans-serif'; text-anchor: middle" x="209.23501" y="257.399375" transform="rotate(-0, 209.23501, 257.399375)">150</text>
     </g>
    </g>
    <g id="xtick_5">
     <g id="line2d_5">
      <g>
       <use xlink:href="#m1691db715d" x="260.984022" y="242.44" style="fill: #252525; stroke: #252525; stroke-width: 0.8"/>
      </g>
     </g>
     <g id="text_5">
      <text style="fill: #252525; font: 10px 'sans-serif'; text-anchor: middle" x="260.984022" y="257.399375" transform="rotate(-0, 260.984022, 257.399375)">200</text>
     </g>
    </g>
    <g id="xtick_6">
     <g id="line2d_6">
      <g>
       <use xlink:href="#m1691db715d" x="312.733034" y="242.44" style="fill: #252525; stroke: #252525; stroke-width: 0.8"/>
      </g>
     </g>
     <g id="text_6">
      <text style="fill: #252525; font: 10px 'sans-serif'; text-anchor: middle" x="312.733034" y="257.399375" transform="rotate(-0, 312.733034, 257.399375)">250</text>
     </g>
    </g>
    <g id="xtick_7">
     <g id="line2d_7">
      <g>
       <use xlink:href="#m1691db715d" x="364.482045" y="242.44" style="fill: #252525; stroke: #252525; stroke-width: 0.8"/>
      </g>
     </g>
     <g id="text_7">
      <text style="fill: #252525; font: 10px 'sans-serif'; text-anchor: middle" x="364.482045" y="257.399375" transform="rotate(-0, 364.482045, 257.399375)">300</text>
     </g>
    </g>
    <g id="text_8">
     <text style="fill: #252525; font: 10px 'sans-serif'; text-anchor: middle" x="209.7525" y="271.649375" transform="rotate(-0, 209.7525, 271.649375)">PPO iteration</text>
    </g>
   </g>
   <g id="matplotlib.axis_2">
    <g id="ytick_1">
     <g id="line2d_8">
      <defs>
       <path id="m2e000f0c8f" d="M 0 0 
L -3.5 0 
" style="stroke: #252525; stroke-width: 0.8"/>
      </defs>
      <g>
       <use xlink:href="#m2e000f0c8f" x="39.55" y="231.747273" style="fill: #252525; stroke: #252525; stroke-width: 0.8"/>
      </g>
     </g>
     <g id="text_9">
      <text style="fill: #252525; font: 10px 'sans-serif'; text-anchor: end" x="32.55" y="235.72696" transform="rotate(-0, 32.55, 235.72696)">0</text>
     </g>
    </g>
    <g id="ytick_2">
     <g id="line2d_9">
      <g>
       <use xlink:href="#m2e000f0c8f" x="39.55" y="184.22404" style="fill: #252525; stroke: #252525; stroke-width: 0.8"/>
      </g>
     </g>
     <g id="text_10">
      <text style="fill: #252525; font: 10px 'sans-serif'; text-anchor: end" x="32.55" y="188.203728" transform="rotate(-0, 32.55, 188.203728)">10</text>
     </g>
    </g>
    <g id="ytick_3">
     <g id="line2d_10">
      <g>
       <use xlink:href="#m2e000f0c8f" x="39.55" y="136.700808" style="fill: #252525; stroke: #252525; stroke-width: 0.8"/>
      </g>
     </g>
     <g id="text_11">
      <text style="fill: #252525; font: 10px 'sans-serif'; text-anchor: end" x="32.55" y="140.680496" transform="rotate(-0, 32.55, 140.680496)">20</text>
     </g>
    </g>
    <g id="ytick_4">
     <g id="line2d_11">
      <g>
       <use xlink:href="#m2e000f0c8f" x="39.55" y="89.177576" style="fill: #252525; stroke: #252525; stroke-width: 0.8"/>
      </g>
     </g>
     <g id="text_12">
      <text style="fill: #252525; font: 10px 'sans-serif'; text-anchor: end" x="32.55" y="93.157263" transform="rotate(-0, 32.55, 93.157263)">30</text>
     </g>
    </g>
    <g id="ytick_5">
     <g id="line2d_12">
      <g>
       <use xlink:href="#m2e000f0c8f" x="39.55" y="41.654343" style="fill: #252525; stroke: #252525; stroke-width: 0.8"/>
      </g>
     </g>
     <g id="text_13">
      <text style="fill: #252525; font: 10px 'sans-serif'; text-anchor: end" x="32.55" y="45.634031" transform="rotate(-0, 32.55, 45.634031)">40</text>
     </g>
    </g>
    <g id="text_14">
     <text style="fill: #252525; font: 10px 'sans-serif'; text-anchor: middle" x="15.159375" y="124.82" transform="rotate(-90, 15.159375, 124.82)">训练批次成功率（%）</text>
    </g>
   </g>
   <g id="line2d_13">
    <path d="M 55.022955 136.700808 
L 56.057935 112.939192 
L 58.127895 160.462424 
L 59.162875 136.700808 
L 61.232836 136.700808 
L 62.267816 112.939192 
L 66.407737 112.939192 
L 67.442717 136.700808 
L 68.477698 112.939192 
L 70.547658 160.462424 
L 71.582638 160.462424 
L 72.617619 112.939192 
L 73.652599 136.700808 
L 74.687579 136.700808 
L 75.722559 112.939192 
L 76.75754 160.462424 
L 78.8275 112.939192 
L 79.86248 136.700808 
L 80.89746 136.700808 
L 81.932441 160.462424 
L 84.002401 112.939192 
L 85.037381 160.462424 
L 86.072362 136.700808 
L 87.107342 160.462424 
L 88.142322 136.700808 
L 89.177302 160.462424 
L 90.212283 136.700808 
L 91.247263 136.700808 
L 92.282243 112.939192 
L 93.317223 136.700808 
L 94.352204 112.939192 
L 95.387184 136.700808 
L 96.422164 112.939192 
L 97.457144 112.939192 
L 98.492125 136.700808 
L 99.527105 112.939192 
L 103.667026 112.939192 
L 104.702006 136.700808 
L 105.736986 112.939192 
L 106.771966 136.700808 
L 107.806947 136.700808 
L 108.841927 160.462424 
L 110.911887 112.939192 
L 111.946868 112.939192 
L 112.981848 136.700808 
L 114.016828 112.939192 
L 115.051808 112.939192 
L 116.086789 136.700808 
L 117.121769 112.939192 
L 118.156749 136.700808 
L 119.191729 136.700808 
L 120.226709 112.939192 
L 122.29667 112.939192 
L 123.33165 136.700808 
L 124.36663 112.939192 
L 127.471571 112.939192 
L 128.506551 136.700808 
L 129.541532 112.939192 
L 131.611492 112.939192 
L 132.646472 136.700808 
L 133.681453 112.939192 
L 135.751413 160.462424 
L 136.786393 136.700808 
L 137.821374 136.700808 
L 138.856354 112.939192 
L 139.891334 112.939192 
L 140.926314 136.700808 
L 141.961294 112.939192 
L 142.996275 136.700808 
L 144.031255 112.939192 
L 146.101215 160.462424 
L 147.136196 89.177576 
L 148.171176 136.700808 
L 149.206156 112.939192 
L 150.241136 136.700808 
L 151.276117 89.177576 
L 152.311097 89.177576 
L 153.346077 136.700808 
L 154.381057 112.939192 
L 155.416038 112.939192 
L 156.451018 89.177576 
L 157.485998 136.700808 
L 158.520978 112.939192 
L 159.555958 112.939192 
L 160.590939 89.177576 
L 161.625919 136.700808 
L 162.660899 112.939192 
L 163.695879 136.700808 
L 164.73086 89.177576 
L 166.80082 136.700808 
L 167.8358 136.700808 
L 168.870781 112.939192 
L 169.905761 65.41596 
L 171.975721 160.462424 
L 173.010702 89.177576 
L 175.080662 136.700808 
L 176.115642 89.177576 
L 177.150623 112.939192 
L 180.255563 112.939192 
L 181.290543 89.177576 
L 182.325524 160.462424 
L 183.360504 136.700808 
L 184.395484 136.700808 
L 185.430464 112.939192 
L 186.465445 112.939192 
L 187.500425 136.700808 
L 188.535405 89.177576 
L 189.570385 65.41596 
L 190.605366 112.939192 
L 191.640346 89.177576 
L 193.710306 136.700808 
L 194.745287 112.939192 
L 195.780267 136.700808 
L 196.815247 112.939192 
L 197.850227 136.700808 
L 198.885208 112.939192 
L 199.920188 136.700808 
L 201.990148 89.177576 
L 204.060109 136.700808 
L 205.095089 112.939192 
L 206.130069 160.462424 
L 208.20003 112.939192 
L 209.23501 65.41596 
L 210.26999 160.462424 
L 211.30497 89.177576 
L 212.339951 136.700808 
L 215.444891 65.41596 
L 216.479872 65.41596 
L 217.514852 136.700808 
L 218.549832 112.939192 
L 219.584812 112.939192 
L 221.654773 65.41596 
L 222.689753 65.41596 
L 223.724733 136.700808 
L 224.759713 136.700808 
L 225.794694 112.939192 
L 226.829674 160.462424 
L 227.864654 136.700808 
L 229.934615 136.700808 
L 230.969595 112.939192 
L 232.004575 136.700808 
L 233.039555 112.939192 
L 235.109516 112.939192 
L 236.144496 89.177576 
L 237.179476 112.939192 
L 238.214457 184.22404 
L 240.284417 136.700808 
L 241.319397 89.177576 
L 242.354377 136.700808 
L 243.389358 160.462424 
L 244.424338 136.700808 
L 245.459318 89.177576 
L 246.494298 136.700808 
L 247.529279 112.939192 
L 248.564259 112.939192 
L 249.599239 89.177576 
L 251.6692 89.177576 
L 252.70418 112.939192 
L 257.879081 112.939192 
L 258.914061 136.700808 
L 259.949042 112.939192 
L 262.019002 112.939192 
L 263.053982 136.700808 
L 264.088962 89.177576 
L 266.158923 136.700808 
L 267.193903 136.700808 
L 268.228883 112.939192 
L 269.263864 65.41596 
L 270.298844 89.177576 
L 271.333824 136.700808 
L 272.368804 89.177576 
L 273.403785 89.177576 
L 274.438765 112.939192 
L 275.473745 89.177576 
L 276.508725 112.939192 
L 277.543706 112.939192 
L 278.578686 65.41596 
L 279.613666 89.177576 
L 281.683626 89.177576 
L 282.718607 112.939192 
L 283.753587 65.41596 
L 285.823547 112.939192 
L 286.858528 160.462424 
L 287.893508 65.41596 
L 288.928488 65.41596 
L 289.963468 89.177576 
L 290.998449 65.41596 
L 292.033429 89.177576 
L 293.068409 65.41596 
L 294.103389 65.41596 
L 295.13837 112.939192 
L 296.17335 112.939192 
L 297.20833 89.177576 
L 301.348251 89.177576 
L 302.383231 112.939192 
L 303.418211 65.41596 
L 305.488172 65.41596 
L 306.523152 89.177576 
L 307.558132 136.700808 
L 308.593113 89.177576 
L 309.628093 112.939192 
L 310.663073 112.939192 
L 311.698053 89.177576 
L 312.733034 89.177576 
L 313.768014 136.700808 
L 314.802994 89.177576 
L 315.837974 160.462424 
L 316.872955 112.939192 
L 317.907935 89.177576 
L 318.942915 112.939192 
L 319.977895 89.177576 
L 321.012875 89.177576 
L 322.047856 136.700808 
L 324.117816 89.177576 
L 325.152796 89.177576 
L 326.187777 112.939192 
L 327.222757 112.939192 
L 328.257737 136.700808 
L 329.292717 89.177576 
L 330.327698 112.939192 
L 331.362678 112.939192 
L 332.397658 89.177576 
L 333.432638 112.939192 
L 334.467619 89.177576 
L 335.502599 112.939192 
L 336.537579 89.177576 
L 339.64252 89.177576 
L 340.6775 41.654343 
L 341.71248 112.939192 
L 343.782441 112.939192 
L 344.817421 136.700808 
L 345.852401 89.177576 
L 346.887381 65.41596 
L 348.957342 112.939192 
L 349.992322 112.939192 
L 351.027302 89.177576 
L 352.062283 89.177576 
L 353.097263 112.939192 
L 354.132243 112.939192 
L 355.167223 89.177576 
L 356.202204 112.939192 
L 358.272164 112.939192 
L 359.307144 136.700808 
L 360.342125 89.177576 
L 361.377105 112.939192 
L 362.412085 112.939192 
L 363.447065 89.177576 
L 364.482045 89.177576 
L 364.482045 89.177576 
" clip-path="url(#pe730fdd09c)" style="fill: none; stroke: #332288; stroke-opacity: 0.16; stroke-width: 0.75; stroke-linecap: square"/>
   </g>
   <g id="line2d_14">
    <path d="M 55.022955 135.1167 
L 59.162875 128.780269 
L 60.197856 128.780269 
L 61.232836 127.196162 
L 62.267816 127.196162 
L 63.302796 128.780269 
L 64.337777 131.948485 
L 66.407737 128.780269 
L 67.442717 128.780269 
L 68.477698 127.196162 
L 70.547658 130.364377 
L 71.582638 130.364377 
L 73.652599 133.532593 
L 74.687579 136.700808 
L 76.75754 136.700808 
L 77.79252 138.284916 
L 78.8275 136.700808 
L 79.86248 136.700808 
L 81.932441 139.869024 
L 82.967421 139.869024 
L 84.002401 141.453131 
L 85.037381 138.284916 
L 88.142322 138.284916 
L 89.177302 136.700808 
L 90.212283 133.532593 
L 92.282243 133.532593 
L 93.317223 130.364377 
L 94.352204 128.780269 
L 95.387184 125.612054 
L 98.492125 120.859731 
L 99.527105 120.859731 
L 102.632045 125.612054 
L 103.667026 124.027946 
L 104.702006 124.027946 
L 105.736986 125.612054 
L 106.771966 124.027946 
L 107.806947 124.027946 
L 108.841927 125.612054 
L 109.876907 125.612054 
L 111.946868 128.780269 
L 112.981848 127.196162 
L 114.016828 127.196162 
L 115.051808 125.612054 
L 116.086789 125.612054 
L 117.121769 122.443838 
L 118.156749 120.859731 
L 123.33165 120.859731 
L 124.36663 119.275623 
L 125.401611 120.859731 
L 126.436591 119.275623 
L 127.471571 119.275623 
L 128.506551 122.443838 
L 130.576512 125.612054 
L 131.611492 124.027946 
L 132.646472 124.027946 
L 133.681453 125.612054 
L 134.716433 125.612054 
L 135.751413 127.196162 
L 136.786393 125.612054 
L 137.821374 127.196162 
L 138.856354 130.364377 
L 139.891334 128.780269 
L 142.996275 128.780269 
L 144.031255 124.027946 
L 145.066235 120.859731 
L 148.171176 120.859731 
L 149.206156 117.691515 
L 150.241136 119.275623 
L 151.276117 117.691515 
L 152.311097 117.691515 
L 153.346077 114.5233 
L 154.381057 112.939192 
L 155.416038 114.5233 
L 156.451018 114.5233 
L 158.520978 111.355084 
L 160.590939 117.691515 
L 161.625919 116.107407 
L 162.660899 112.939192 
L 163.695879 112.939192 
L 164.73086 117.691515 
L 165.76584 114.5233 
L 166.80082 114.5233 
L 167.8358 116.107407 
L 168.870781 116.107407 
L 169.905761 114.5233 
L 170.940741 114.5233 
L 171.975721 112.939192 
L 173.010702 114.5233 
L 174.045682 112.939192 
L 175.080662 114.5233 
L 176.115642 114.5233 
L 177.150623 116.107407 
L 178.185603 119.275623 
L 179.220583 119.275623 
L 180.255563 117.691515 
L 181.290543 117.691515 
L 182.325524 114.5233 
L 183.360504 112.939192 
L 185.430464 112.939192 
L 186.465445 114.5233 
L 187.500425 114.5233 
L 189.570385 117.691515 
L 191.640346 114.5233 
L 193.710306 114.5233 
L 195.780267 111.355084 
L 199.920188 124.027946 
L 200.955168 124.027946 
L 201.990148 119.275623 
L 203.025128 122.443838 
L 204.060109 119.275623 
L 205.095089 120.859731 
L 207.165049 117.691515 
L 208.20003 112.939192 
L 209.23501 109.770976 
L 210.26999 112.939192 
L 211.30497 112.939192 
L 213.374931 109.770976 
L 214.409911 103.434545 
L 215.444891 98.682222 
L 216.479872 100.26633 
L 217.514852 105.018653 
L 218.549832 101.850438 
L 219.584812 106.602761 
L 220.619792 106.602761 
L 221.654773 108.186869 
L 223.724733 114.5233 
L 224.759713 119.275623 
L 225.794694 117.691515 
L 228.899634 117.691515 
L 229.934615 120.859731 
L 230.969595 128.780269 
L 232.004575 130.364377 
L 233.039555 130.364377 
L 235.109516 127.196162 
L 236.144496 128.780269 
L 237.179476 128.780269 
L 238.214457 125.612054 
L 239.249437 127.196162 
L 240.284417 125.612054 
L 241.319397 125.612054 
L 243.389358 122.443838 
L 245.459318 122.443838 
L 246.494298 117.691515 
L 247.529279 114.5233 
L 248.564259 112.939192 
L 249.599239 114.5233 
L 252.70418 109.770976 
L 253.73916 111.355084 
L 254.77414 109.770976 
L 255.809121 111.355084 
L 256.844101 109.770976 
L 257.879081 111.355084 
L 259.949042 117.691515 
L 260.984022 117.691515 
L 262.019002 114.5233 
L 263.053982 112.939192 
L 264.088962 114.5233 
L 268.228883 108.186869 
L 270.298844 108.186869 
L 271.333824 103.434545 
L 272.368804 103.434545 
L 273.403785 101.850438 
L 274.438765 98.682222 
L 275.473745 97.098114 
L 276.508725 93.929899 
L 279.613666 98.682222 
L 284.788567 90.761684 
L 285.823547 87.593468 
L 286.858528 87.593468 
L 288.928488 90.761684 
L 289.963468 90.761684 
L 290.998449 89.177576 
L 292.033429 90.761684 
L 293.068409 90.761684 
L 294.103389 89.177576 
L 295.13837 86.00936 
L 297.20833 86.00936 
L 298.24331 84.425253 
L 299.278291 86.00936 
L 300.313271 89.177576 
L 301.348251 90.761684 
L 302.383231 93.929899 
L 303.418211 93.929899 
L 304.453192 92.345791 
L 305.488172 92.345791 
L 306.523152 95.514007 
L 307.558132 95.514007 
L 308.593113 100.26633 
L 309.628093 101.850438 
L 310.663073 100.26633 
L 311.698053 103.434545 
L 313.768014 106.602761 
L 314.802994 109.770976 
L 315.837974 108.186869 
L 316.872955 108.186869 
L 317.907935 106.602761 
L 318.942915 106.602761 
L 319.977895 108.186869 
L 321.012875 111.355084 
L 322.047856 108.186869 
L 323.082836 109.770976 
L 324.117816 106.602761 
L 325.152796 105.018653 
L 326.187777 106.602761 
L 327.222757 105.018653 
L 328.257737 106.602761 
L 329.292717 106.602761 
L 330.327698 103.434545 
L 331.362678 101.850438 
L 332.397658 101.850438 
L 333.432638 98.682222 
L 335.502599 98.682222 
L 336.537579 97.098114 
L 337.572559 100.26633 
L 338.60754 98.682222 
L 339.64252 95.514007 
L 341.71248 95.514007 
L 342.74746 97.098114 
L 343.782441 95.514007 
L 344.817421 95.514007 
L 346.887381 98.682222 
L 347.922362 98.682222 
L 348.957342 103.434545 
L 351.027302 103.434545 
L 352.062283 105.018653 
L 353.097263 101.850438 
L 354.132243 103.434545 
L 355.167223 106.602761 
L 356.202204 106.602761 
L 358.272164 103.434545 
L 360.342125 103.434545 
L 362.412085 100.26633 
L 363.447065 100.26633 
L 364.482045 98.682222 
L 364.482045 98.682222 
" clip-path="url(#pe730fdd09c)" style="fill: none; stroke: #332288; stroke-width: 1.8; stroke-linecap: square"/>
   </g>
   <g id="line2d_15">
    <path d="M 55.022955 160.462424 
L 59.162875 160.462424 
L 60.197856 112.939192 
L 61.232836 89.177576 
L 62.267816 136.700808 
L 63.302796 136.700808 
L 64.337777 160.462424 
L 65.372757 136.700808 
L 66.407737 136.700808 
L 67.442717 207.985657 
L 68.477698 160.462424 
L 69.512678 136.700808 
L 71.582638 136.700808 
L 72.617619 160.462424 
L 73.652599 136.700808 
L 75.722559 184.22404 
L 76.75754 160.462424 
L 78.8275 160.462424 
L 79.86248 184.22404 
L 80.89746 136.700808 
L 81.932441 160.462424 
L 82.967421 160.462424 
L 84.002401 184.22404 
L 85.037381 136.700808 
L 87.107342 184.22404 
L 88.142322 160.462424 
L 89.177302 160.462424 
L 90.212283 184.22404 
L 92.282243 184.22404 
L 93.317223 136.700808 
L 94.352204 136.700808 
L 95.387184 160.462424 
L 96.422164 136.700808 
L 98.492125 184.22404 
L 99.527105 160.462424 
L 100.562085 160.462424 
L 101.597065 136.700808 
L 102.632045 184.22404 
L 103.667026 136.700808 
L 104.702006 184.22404 
L 105.736986 184.22404 
L 106.771966 160.462424 
L 107.806947 184.22404 
L 108.841927 160.462424 
L 110.911887 160.462424 
L 111.946868 136.700808 
L 114.016828 184.22404 
L 115.051808 136.700808 
L 116.086789 184.22404 
L 117.121769 184.22404 
L 118.156749 160.462424 
L 123.33165 160.462424 
L 124.36663 184.22404 
L 125.401611 136.700808 
L 127.471571 184.22404 
L 128.506551 184.22404 
L 129.541532 160.462424 
L 130.576512 184.22404 
L 132.646472 184.22404 
L 133.681453 136.700808 
L 134.716433 231.747273 
L 135.751413 207.985657 
L 136.786393 136.700808 
L 137.821374 136.700808 
L 138.856354 112.939192 
L 139.891334 160.462424 
L 140.926314 89.177576 
L 141.961294 136.700808 
L 142.996275 136.700808 
L 144.031255 207.985657 
L 147.136196 136.700808 
L 148.171176 160.462424 
L 149.206156 136.700808 
L 150.241136 136.700808 
L 151.276117 184.22404 
L 152.311097 112.939192 
L 153.346077 207.985657 
L 154.381057 136.700808 
L 155.416038 160.462424 
L 156.451018 160.462424 
L 157.485998 136.700808 
L 158.520978 160.462424 
L 159.555958 136.700808 
L 160.590939 160.462424 
L 161.625919 136.700808 
L 163.695879 184.22404 
L 164.73086 184.22404 
L 165.76584 136.700808 
L 166.80082 112.939192 
L 168.870781 160.462424 
L 169.905761 136.700808 
L 170.940741 207.985657 
L 171.975721 160.462424 
L 173.010702 160.462424 
L 175.080662 112.939192 
L 176.115642 184.22404 
L 177.150623 207.985657 
L 178.185603 112.939192 
L 179.220583 160.462424 
L 180.255563 184.22404 
L 181.290543 160.462424 
L 182.325524 160.462424 
L 183.360504 136.700808 
L 184.395484 89.177576 
L 185.430464 89.177576 
L 186.465445 136.700808 
L 187.500425 112.939192 
L 188.535405 136.700808 
L 189.570385 136.700808 
L 190.605366 112.939192 
L 191.640346 136.700808 
L 193.710306 136.700808 
L 194.745287 160.462424 
L 195.780267 160.462424 
L 196.815247 184.22404 
L 197.850227 112.939192 
L 198.885208 136.700808 
L 199.920188 112.939192 
L 200.955168 160.462424 
L 201.990148 160.462424 
L 203.025128 112.939192 
L 204.060109 89.177576 
L 205.095089 136.700808 
L 207.165049 136.700808 
L 208.20003 184.22404 
L 209.23501 112.939192 
L 210.26999 160.462424 
L 211.30497 112.939192 
L 212.339951 160.462424 
L 213.374931 112.939192 
L 214.409911 89.177576 
L 216.479872 136.700808 
L 217.514852 112.939192 
L 218.549832 112.939192 
L 219.584812 184.22404 
L 220.619792 160.462424 
L 221.654773 207.985657 
L 222.689753 160.462424 
L 223.724733 136.700808 
L 224.759713 160.462424 
L 225.794694 136.700808 
L 226.829674 160.462424 
L 227.864654 160.462424 
L 228.899634 207.985657 
L 229.934615 160.462424 
L 230.969595 160.462424 
L 233.039555 112.939192 
L 234.074536 136.700808 
L 235.109516 136.700808 
L 236.144496 112.939192 
L 237.179476 112.939192 
L 238.214457 136.700808 
L 239.249437 136.700808 
L 240.284417 184.22404 
L 241.319397 112.939192 
L 242.354377 160.462424 
L 243.389358 160.462424 
L 244.424338 112.939192 
L 246.494298 112.939192 
L 247.529279 136.700808 
L 248.564259 89.177576 
L 249.599239 136.700808 
L 250.634219 136.700808 
L 252.70418 89.177576 
L 253.73916 160.462424 
L 255.809121 112.939192 
L 256.844101 160.462424 
L 257.879081 112.939192 
L 258.914061 184.22404 
L 259.949042 136.700808 
L 260.984022 136.700808 
L 262.019002 89.177576 
L 263.053982 112.939192 
L 264.088962 112.939192 
L 265.123943 136.700808 
L 266.158923 112.939192 
L 267.193903 112.939192 
L 268.228883 136.700808 
L 269.263864 136.700808 
L 270.298844 184.22404 
L 271.333824 136.700808 
L 272.368804 112.939192 
L 273.403785 136.700808 
L 274.438765 89.177576 
L 275.473745 160.462424 
L 276.508725 89.177576 
L 277.543706 160.462424 
L 278.578686 184.22404 
L 279.613666 136.700808 
L 280.648646 112.939192 
L 281.683626 112.939192 
L 282.718607 136.700808 
L 283.753587 136.700808 
L 284.788567 112.939192 
L 285.823547 136.700808 
L 286.858528 136.700808 
L 287.893508 160.462424 
L 288.928488 112.939192 
L 289.963468 160.462424 
L 290.998449 136.700808 
L 292.033429 160.462424 
L 294.103389 112.939192 
L 295.13837 112.939192 
L 296.17335 89.177576 
L 297.20833 136.700808 
L 298.24331 65.41596 
L 299.278291 112.939192 
L 300.313271 112.939192 
L 301.348251 136.700808 
L 302.383231 89.177576 
L 303.418211 89.177576 
L 304.453192 136.700808 
L 306.523152 136.700808 
L 307.558132 65.41596 
L 308.593113 136.700808 
L 309.628093 160.462424 
L 311.698053 160.462424 
L 313.768014 112.939192 
L 314.802994 136.700808 
L 315.837974 112.939192 
L 316.872955 112.939192 
L 317.907935 160.462424 
L 318.942915 160.462424 
L 319.977895 89.177576 
L 321.012875 136.700808 
L 323.082836 136.700808 
L 324.117816 89.177576 
L 326.187777 136.700808 
L 327.222757 112.939192 
L 328.257737 184.22404 
L 329.292717 136.700808 
L 331.362678 184.22404 
L 332.397658 136.700808 
L 333.432638 112.939192 
L 334.467619 136.700808 
L 335.502599 112.939192 
L 336.537579 160.462424 
L 337.572559 112.939192 
L 338.60754 184.22404 
L 339.64252 112.939192 
L 340.6775 112.939192 
L 341.71248 89.177576 
L 342.74746 112.939192 
L 343.782441 89.177576 
L 344.817421 160.462424 
L 345.852401 136.700808 
L 346.887381 160.462424 
L 347.922362 65.41596 
L 348.957342 136.700808 
L 349.992322 160.462424 
L 351.027302 160.462424 
L 352.062283 136.700808 
L 353.097263 136.700808 
L 354.132243 112.939192 
L 355.167223 136.700808 
L 356.202204 184.22404 
L 357.237184 136.700808 
L 359.307144 136.700808 
L 360.342125 89.177576 
L 361.377105 136.700808 
L 363.447065 136.700808 
L 364.482045 112.939192 
L 364.482045 112.939192 
" clip-path="url(#pe730fdd09c)" style="fill: none; stroke: #44aa99; stroke-opacity: 0.16; stroke-width: 0.75; stroke-linecap: square"/>
   </g>
   <g id="line2d_16">
    <path d="M 55.022955 150.957778 
L 56.057935 149.37367 
L 57.092915 149.37367 
L 59.162875 146.205455 
L 60.197856 149.37367 
L 61.232836 149.37367 
L 64.337777 144.621347 
L 65.372757 144.621347 
L 66.407737 143.037239 
L 67.442717 143.037239 
L 69.512678 152.541886 
L 72.617619 157.294209 
L 73.652599 157.294209 
L 74.687579 158.878316 
L 75.722559 155.710101 
L 76.75754 157.294209 
L 77.79252 157.294209 
L 78.8275 158.878316 
L 79.86248 162.046532 
L 80.89746 162.046532 
L 82.967421 165.214747 
L 84.002401 165.214747 
L 85.037381 166.798855 
L 88.142322 162.046532 
L 90.212283 162.046532 
L 91.247263 163.63064 
L 92.282243 162.046532 
L 93.317223 163.63064 
L 94.352204 162.046532 
L 95.387184 162.046532 
L 96.422164 160.462424 
L 97.457144 162.046532 
L 98.492125 162.046532 
L 99.527105 160.462424 
L 100.562085 160.462424 
L 102.632045 163.63064 
L 106.771966 163.63064 
L 107.806947 162.046532 
L 108.841927 163.63064 
L 109.876907 166.798855 
L 110.911887 165.214747 
L 111.946868 166.798855 
L 114.016828 163.63064 
L 115.051808 163.63064 
L 116.086789 162.046532 
L 117.121769 163.63064 
L 118.156749 162.046532 
L 119.191729 162.046532 
L 120.226709 165.214747 
L 121.26169 166.798855 
L 122.29667 165.214747 
L 123.33165 168.382963 
L 125.401611 168.382963 
L 126.436591 166.798855 
L 127.471571 171.551178 
L 128.506551 174.719394 
L 130.576512 171.551178 
L 131.611492 168.382963 
L 132.646472 166.798855 
L 133.681453 163.63064 
L 134.716433 162.046532 
L 135.751413 158.878316 
L 137.821374 162.046532 
L 138.856354 160.462424 
L 139.891334 157.294209 
L 140.926314 155.710101 
L 141.961294 155.710101 
L 142.996275 149.37367 
L 145.066235 146.205455 
L 146.101215 150.957778 
L 147.136196 152.541886 
L 148.171176 152.541886 
L 149.206156 157.294209 
L 150.241136 157.294209 
L 151.276117 158.878316 
L 152.311097 154.125993 
L 154.381057 150.957778 
L 156.451018 154.125993 
L 157.485998 157.294209 
L 158.520978 157.294209 
L 159.555958 152.541886 
L 160.590939 154.125993 
L 161.625919 150.957778 
L 162.660899 150.957778 
L 163.695879 154.125993 
L 164.73086 154.125993 
L 165.76584 155.710101 
L 167.8358 152.541886 
L 168.870781 154.125993 
L 169.905761 158.878316 
L 170.940741 155.710101 
L 171.975721 154.125993 
L 173.010702 154.125993 
L 174.045682 155.710101 
L 175.080662 158.878316 
L 176.115642 158.878316 
L 177.150623 154.125993 
L 178.185603 150.957778 
L 179.220583 146.205455 
L 180.255563 143.037239 
L 181.290543 141.453131 
L 183.360504 141.453131 
L 184.395484 138.284916 
L 185.430464 133.532593 
L 186.465445 135.1167 
L 187.500425 135.1167 
L 188.535405 133.532593 
L 189.570385 135.1167 
L 190.605366 131.948485 
L 191.640346 131.948485 
L 192.675326 133.532593 
L 193.710306 138.284916 
L 194.745287 139.869024 
L 195.780267 139.869024 
L 196.815247 136.700808 
L 197.850227 136.700808 
L 198.885208 138.284916 
L 199.920188 138.284916 
L 200.955168 141.453131 
L 201.990148 139.869024 
L 203.025128 139.869024 
L 204.060109 136.700808 
L 205.095089 135.1167 
L 206.130069 135.1167 
L 207.165049 131.948485 
L 208.20003 131.948485 
L 209.23501 130.364377 
L 210.26999 127.196162 
L 211.30497 127.196162 
L 212.339951 133.532593 
L 213.374931 135.1167 
L 214.409911 139.869024 
L 215.444891 141.453131 
L 216.479872 138.284916 
L 217.514852 141.453131 
L 218.549832 139.869024 
L 219.584812 143.037239 
L 220.619792 143.037239 
L 221.654773 149.37367 
L 222.689753 154.125993 
L 223.724733 157.294209 
L 225.794694 157.294209 
L 226.829674 158.878316 
L 228.899634 152.541886 
L 229.934615 146.205455 
L 230.969595 144.621347 
L 232.004575 144.621347 
L 233.039555 146.205455 
L 234.074536 144.621347 
L 236.144496 144.621347 
L 237.179476 138.284916 
L 239.249437 131.948485 
L 240.284417 131.948485 
L 241.319397 130.364377 
L 244.424338 130.364377 
L 245.459318 128.780269 
L 246.494298 130.364377 
L 247.529279 130.364377 
L 248.564259 125.612054 
L 249.599239 128.780269 
L 250.634219 125.612054 
L 253.73916 130.364377 
L 255.809121 127.196162 
L 256.844101 128.780269 
L 257.879081 128.780269 
L 258.914061 127.196162 
L 259.949042 127.196162 
L 260.984022 130.364377 
L 262.019002 128.780269 
L 263.053982 131.948485 
L 264.088962 133.532593 
L 265.123943 130.364377 
L 266.158923 131.948485 
L 267.193903 125.612054 
L 268.228883 127.196162 
L 269.263864 124.027946 
L 271.333824 133.532593 
L 272.368804 135.1167 
L 273.403785 133.532593 
L 274.438765 133.532593 
L 275.473745 135.1167 
L 276.508725 135.1167 
L 277.543706 133.532593 
L 278.578686 130.364377 
L 279.613666 130.364377 
L 280.648646 133.532593 
L 281.683626 131.948485 
L 282.718607 136.700808 
L 283.753587 135.1167 
L 284.788567 139.869024 
L 285.823547 138.284916 
L 286.858528 133.532593 
L 288.928488 130.364377 
L 289.963468 131.948485 
L 290.998449 127.196162 
L 292.033429 125.612054 
L 294.103389 125.612054 
L 295.13837 122.443838 
L 296.17335 117.691515 
L 297.20833 119.275623 
L 298.24331 117.691515 
L 299.278291 117.691515 
L 300.313271 111.355084 
L 301.348251 111.355084 
L 303.418211 117.691515 
L 304.453192 122.443838 
L 305.488172 122.443838 
L 306.523152 125.612054 
L 307.558132 127.196162 
L 308.593113 127.196162 
L 309.628093 125.612054 
L 311.698053 135.1167 
L 312.733034 131.948485 
L 314.802994 131.948485 
L 315.837974 136.700808 
L 317.907935 130.364377 
L 318.942915 128.780269 
L 319.977895 125.612054 
L 321.012875 128.780269 
L 323.082836 131.948485 
L 324.117816 136.700808 
L 325.152796 138.284916 
L 326.187777 135.1167 
L 327.222757 133.532593 
L 329.292717 136.700808 
L 330.327698 135.1167 
L 331.362678 138.284916 
L 332.397658 139.869024 
L 333.432638 139.869024 
L 334.467619 136.700808 
L 335.502599 136.700808 
L 336.537579 130.364377 
L 337.572559 131.948485 
L 339.64252 128.780269 
L 340.6775 124.027946 
L 342.74746 127.196162 
L 343.782441 130.364377 
L 344.817421 128.780269 
L 345.852401 130.364377 
L 346.887381 125.612054 
L 347.922362 127.196162 
L 348.957342 131.948485 
L 349.992322 135.1167 
L 351.027302 136.700808 
L 352.062283 139.869024 
L 353.097263 135.1167 
L 354.132243 135.1167 
L 355.167223 133.532593 
L 356.202204 138.284916 
L 357.237184 136.700808 
L 359.307144 130.364377 
L 361.377105 127.196162 
L 362.412085 127.196162 
L 363.447065 125.612054 
L 364.482045 120.859731 
L 364.482045 120.859731 
" clip-path="url(#pe730fdd09c)" style="fill: none; stroke: #44aa99; stroke-width: 1.8; stroke-linecap: square"/>
   </g>
   <g id="line2d_17">
    <path d="M 55.022955 89.177576 
L 66.407737 89.177576 
L 67.442717 112.939192 
L 68.477698 89.177576 
L 72.617619 89.177576 
L 73.652599 112.939192 
L 74.687579 89.177576 
L 81.932441 89.177576 
L 82.967421 112.939192 
L 84.002401 89.177576 
L 87.107342 89.177576 
L 88.142322 65.41596 
L 89.177302 65.41596 
L 90.212283 89.177576 
L 93.317223 89.177576 
L 94.352204 112.939192 
L 95.387184 89.177576 
L 102.632045 89.177576 
L 103.667026 65.41596 
L 104.702006 89.177576 
L 107.806947 89.177576 
L 108.841927 112.939192 
L 109.876907 89.177576 
L 111.946868 89.177576 
L 112.981848 41.654343 
L 114.016828 89.177576 
L 115.051808 112.939192 
L 117.121769 65.41596 
L 118.156749 65.41596 
L 119.191729 89.177576 
L 121.26169 89.177576 
L 122.29667 65.41596 
L 123.33165 65.41596 
L 124.36663 89.177576 
L 126.436591 89.177576 
L 127.471571 65.41596 
L 130.576512 65.41596 
L 131.611492 41.654343 
L 133.681453 89.177576 
L 134.716433 89.177576 
L 135.751413 65.41596 
L 136.786393 89.177576 
L 138.856354 89.177576 
L 139.891334 41.654343 
L 140.926314 89.177576 
L 141.961294 65.41596 
L 142.996275 89.177576 
L 144.031255 41.654343 
L 145.066235 65.41596 
L 146.101215 65.41596 
L 147.136196 89.177576 
L 148.171176 89.177576 
L 149.206156 65.41596 
L 150.241136 89.177576 
L 151.276117 89.177576 
L 152.311097 65.41596 
L 153.346077 65.41596 
L 154.381057 89.177576 
L 156.451018 89.177576 
L 157.485998 65.41596 
L 158.520978 89.177576 
L 159.555958 89.177576 
L 160.590939 65.41596 
L 170.940741 65.41596 
L 171.975721 89.177576 
L 173.010702 65.41596 
L 174.045682 65.41596 
L 175.080662 41.654343 
L 176.115642 41.654343 
L 177.150623 89.177576 
L 179.220583 89.177576 
L 181.290543 41.654343 
L 182.325524 65.41596 
L 183.360504 41.654343 
L 184.395484 89.177576 
L 186.465445 41.654343 
L 187.500425 65.41596 
L 188.535405 112.939192 
L 189.570385 41.654343 
L 190.605366 89.177576 
L 191.640346 89.177576 
L 192.675326 112.939192 
L 193.710306 112.939192 
L 194.745287 65.41596 
L 195.780267 112.939192 
L 197.850227 65.41596 
L 198.885208 89.177576 
L 199.920188 65.41596 
L 200.955168 65.41596 
L 201.990148 89.177576 
L 203.025128 65.41596 
L 204.060109 65.41596 
L 205.095089 89.177576 
L 206.130069 65.41596 
L 207.165049 112.939192 
L 208.20003 65.41596 
L 209.23501 65.41596 
L 210.26999 112.939192 
L 211.30497 41.654343 
L 212.339951 65.41596 
L 213.374931 65.41596 
L 214.409911 89.177576 
L 215.444891 89.177576 
L 216.479872 65.41596 
L 217.514852 89.177576 
L 219.584812 41.654343 
L 220.619792 65.41596 
L 222.689753 65.41596 
L 223.724733 41.654343 
L 224.759713 41.654343 
L 226.829674 89.177576 
L 228.899634 41.654343 
L 229.934615 65.41596 
L 230.969595 65.41596 
L 232.004575 112.939192 
L 234.074536 65.41596 
L 236.144496 65.41596 
L 237.179476 41.654343 
L 238.214457 65.41596 
L 239.249437 41.654343 
L 240.284417 65.41596 
L 241.319397 65.41596 
L 242.354377 89.177576 
L 243.389358 41.654343 
L 244.424338 65.41596 
L 245.459318 65.41596 
L 246.494298 17.892727 
L 247.529279 41.654343 
L 248.564259 89.177576 
L 249.599239 89.177576 
L 250.634219 41.654343 
L 251.6692 89.177576 
L 252.70418 65.41596 
L 253.73916 65.41596 
L 254.77414 89.177576 
L 255.809121 89.177576 
L 256.844101 41.654343 
L 257.879081 112.939192 
L 258.914061 41.654343 
L 259.949042 89.177576 
L 260.984022 65.41596 
L 262.019002 65.41596 
L 263.053982 89.177576 
L 264.088962 65.41596 
L 265.123943 112.939192 
L 267.193903 65.41596 
L 268.228883 65.41596 
L 269.263864 41.654343 
L 270.298844 65.41596 
L 272.368804 65.41596 
L 273.403785 112.939192 
L 274.438765 65.41596 
L 277.543706 65.41596 
L 278.578686 89.177576 
L 279.613666 65.41596 
L 282.718607 65.41596 
L 283.753587 41.654343 
L 284.788567 65.41596 
L 285.823547 17.892727 
L 286.858528 41.654343 
L 287.893508 89.177576 
L 288.928488 41.654343 
L 289.963468 89.177576 
L 292.033429 41.654343 
L 293.068409 89.177576 
L 295.13837 89.177576 
L 296.17335 65.41596 
L 297.20833 65.41596 
L 298.24331 89.177576 
L 299.278291 41.654343 
L 300.313271 89.177576 
L 302.383231 41.654343 
L 303.418211 65.41596 
L 304.453192 65.41596 
L 305.488172 89.177576 
L 306.523152 41.654343 
L 307.558132 65.41596 
L 308.593113 65.41596 
L 309.628093 89.177576 
L 310.663073 89.177576 
L 311.698053 41.654343 
L 312.733034 89.177576 
L 313.768014 89.177576 
L 314.802994 112.939192 
L 316.872955 112.939192 
L 317.907935 160.462424 
L 318.942915 89.177576 
L 319.977895 65.41596 
L 322.047856 160.462424 
L 323.082836 41.654343 
L 324.117816 112.939192 
L 325.152796 112.939192 
L 326.187777 65.41596 
L 328.257737 65.41596 
L 329.292717 112.939192 
L 330.327698 112.939192 
L 331.362678 65.41596 
L 332.397658 65.41596 
L 335.502599 136.700808 
L 336.537579 89.177576 
L 337.572559 65.41596 
L 338.60754 136.700808 
L 339.64252 136.700808 
L 340.6775 112.939192 
L 341.71248 112.939192 
L 342.74746 41.654343 
L 343.782441 65.41596 
L 344.817421 65.41596 
L 345.852401 136.700808 
L 346.887381 65.41596 
L 347.922362 112.939192 
L 348.957342 89.177576 
L 349.992322 112.939192 
L 351.027302 65.41596 
L 352.062283 89.177576 
L 353.097263 89.177576 
L 354.132243 136.700808 
L 355.167223 89.177576 
L 356.202204 65.41596 
L 357.237184 136.700808 
L 358.272164 160.462424 
L 359.307144 89.177576 
L 360.342125 65.41596 
L 361.377105 136.700808 
L 362.412085 89.177576 
L 363.447065 112.939192 
L 364.482045 112.939192 
L 364.482045 112.939192 
" clip-path="url(#pe730fdd09c)" style="fill: none; stroke: #cc6677; stroke-opacity: 0.16; stroke-width: 0.75; stroke-linecap: square"/>
   </g>
   <g id="line2d_18">
    <path d="M 55.022955 89.177576 
L 59.162875 89.177576 
L 60.197856 90.761684 
L 65.372757 90.761684 
L 66.407737 92.345791 
L 79.86248 92.345791 
L 80.89746 90.761684 
L 81.932441 87.593468 
L 86.072362 87.593468 
L 87.107342 89.177576 
L 90.212283 89.177576 
L 91.247263 87.593468 
L 96.422164 87.593468 
L 97.457144 89.177576 
L 100.562085 89.177576 
L 101.597065 90.761684 
L 102.632045 89.177576 
L 104.702006 89.177576 
L 105.736986 86.00936 
L 106.771966 86.00936 
L 107.806947 87.593468 
L 108.841927 87.593468 
L 110.911887 84.425253 
L 111.946868 86.00936 
L 114.016828 86.00936 
L 117.121769 81.257037 
L 119.191729 81.257037 
L 120.226709 79.672929 
L 121.26169 81.257037 
L 122.29667 79.672929 
L 124.36663 73.336498 
L 125.401611 73.336498 
L 126.436591 74.920606 
L 127.471571 74.920606 
L 128.506551 73.336498 
L 129.541532 73.336498 
L 131.611492 76.504714 
L 132.646472 73.336498 
L 133.681453 73.336498 
L 134.716433 71.752391 
L 135.751413 73.336498 
L 136.786393 71.752391 
L 138.856354 71.752391 
L 139.891334 74.920606 
L 140.926314 76.504714 
L 141.961294 74.920606 
L 142.996275 74.920606 
L 144.031255 76.504714 
L 146.101215 73.336498 
L 147.136196 73.336498 
L 148.171176 76.504714 
L 151.276117 76.504714 
L 152.311097 79.672929 
L 154.381057 79.672929 
L 156.451018 76.504714 
L 157.485998 76.504714 
L 159.555958 73.336498 
L 161.625919 73.336498 
L 163.695879 70.168283 
L 165.76584 70.168283 
L 166.80082 68.584175 
L 167.8358 65.41596 
L 168.870781 63.831852 
L 171.975721 68.584175 
L 173.010702 68.584175 
L 174.045682 67.000067 
L 175.080662 67.000067 
L 176.115642 65.41596 
L 177.150623 67.000067 
L 178.185603 67.000067 
L 180.255563 63.831852 
L 181.290543 67.000067 
L 182.325524 65.41596 
L 184.395484 71.752391 
L 186.465445 74.920606 
L 187.500425 73.336498 
L 189.570385 79.672929 
L 190.605366 79.672929 
L 191.640346 82.841145 
L 192.675326 81.257037 
L 193.710306 81.257037 
L 194.745287 84.425253 
L 195.780267 84.425253 
L 196.815247 81.257037 
L 197.850227 84.425253 
L 198.885208 82.841145 
L 199.920188 84.425253 
L 201.990148 78.088822 
L 203.025128 81.257037 
L 204.060109 76.504714 
L 205.095089 74.920606 
L 207.165049 74.920606 
L 208.20003 76.504714 
L 211.30497 76.504714 
L 213.374931 73.336498 
L 214.409911 73.336498 
L 215.444891 70.168283 
L 217.514852 67.000067 
L 218.549832 63.831852 
L 219.584812 67.000067 
L 220.619792 67.000067 
L 223.724733 62.247744 
L 224.759713 65.41596 
L 226.829674 65.41596 
L 227.864654 67.000067 
L 228.899634 67.000067 
L 229.934615 65.41596 
L 232.004575 65.41596 
L 233.039555 67.000067 
L 235.109516 67.000067 
L 236.144496 65.41596 
L 237.179476 67.000067 
L 238.214457 67.000067 
L 239.249437 63.831852 
L 240.284417 59.079529 
L 241.319397 59.079529 
L 242.354377 60.663636 
L 243.389358 59.079529 
L 245.459318 62.247744 
L 246.494298 62.247744 
L 247.529279 65.41596 
L 248.564259 67.000067 
L 249.599239 65.41596 
L 250.634219 67.000067 
L 251.6692 67.000067 
L 252.70418 68.584175 
L 253.73916 68.584175 
L 255.809121 74.920606 
L 256.844101 73.336498 
L 257.879081 74.920606 
L 258.914061 78.088822 
L 259.949042 76.504714 
L 260.984022 76.504714 
L 264.088962 71.752391 
L 265.123943 73.336498 
L 266.158923 73.336498 
L 267.193903 74.920606 
L 268.228883 73.336498 
L 272.368804 73.336498 
L 273.403785 70.168283 
L 274.438765 68.584175 
L 275.473745 68.584175 
L 276.508725 67.000067 
L 277.543706 68.584175 
L 278.578686 65.41596 
L 279.613666 63.831852 
L 280.648646 65.41596 
L 281.683626 60.663636 
L 282.718607 62.247744 
L 283.753587 62.247744 
L 284.788567 60.663636 
L 285.823547 62.247744 
L 286.858528 62.247744 
L 287.893508 63.831852 
L 289.963468 63.831852 
L 290.998449 65.41596 
L 292.033429 65.41596 
L 293.068409 67.000067 
L 294.103389 70.168283 
L 295.13837 70.168283 
L 296.17335 68.584175 
L 297.20833 70.168283 
L 298.24331 70.168283 
L 299.278291 68.584175 
L 300.313271 70.168283 
L 301.348251 68.584175 
L 303.418211 68.584175 
L 304.453192 67.000067 
L 305.488172 68.584175 
L 306.523152 68.584175 
L 307.558132 73.336498 
L 308.593113 74.920606 
L 309.628093 78.088822 
L 310.663073 86.00936 
L 311.698053 87.593468 
L 312.733034 87.593468 
L 313.768014 89.177576 
L 314.802994 97.098114 
L 315.837974 95.514007 
L 316.872955 98.682222 
L 317.907935 100.26633 
L 318.942915 98.682222 
L 319.977895 100.26633 
L 321.012875 98.682222 
L 322.047856 100.26633 
L 323.082836 100.26633 
L 325.152796 93.929899 
L 326.187777 89.177576 
L 327.222757 90.761684 
L 328.257737 95.514007 
L 329.292717 93.929899 
L 330.327698 87.593468 
L 331.362678 93.929899 
L 332.397658 95.514007 
L 333.432638 95.514007 
L 334.467619 98.682222 
L 335.502599 97.098114 
L 336.537579 97.098114 
L 337.572559 93.929899 
L 338.60754 95.514007 
L 339.64252 95.514007 
L 340.6775 98.682222 
L 342.74746 98.682222 
L 343.782441 93.929899 
L 344.817421 93.929899 
L 345.852401 95.514007 
L 346.887381 95.514007 
L 348.957342 89.177576 
L 349.992322 90.761684 
L 351.027302 98.682222 
L 352.062283 100.26633 
L 354.132243 100.26633 
L 355.167223 101.850438 
L 356.202204 101.850438 
L 357.237184 103.434545 
L 358.272164 103.434545 
L 359.307144 106.602761 
L 361.377105 109.770976 
L 362.412085 108.186869 
L 363.447065 109.770976 
L 364.482045 112.939192 
L 364.482045 112.939192 
" clip-path="url(#pe730fdd09c)" style="fill: none; stroke: #cc6677; stroke-width: 1.8; stroke-linecap: square"/>
   </g>
   <g id="patch_3">
    <path d="M 39.55 242.44 
L 39.55 7.2 
" style="fill: none; stroke: #252525; stroke-width: 0.8; stroke-linejoin: miter; stroke-linecap: square"/>
   </g>
   <g id="patch_4">
    <path d="M 39.55 242.44 
L 379.955 242.44 
" style="fill: none; stroke: #252525; stroke-width: 0.8; stroke-linejoin: miter; stroke-linecap: square"/>
   </g>
   <g id="legend_1">
    <g id="line2d_19">
     <path d="M 294.61875 206.09625 
L 302.61875 206.09625 
L 310.61875 206.09625 
" style="fill: none; stroke: #332288; stroke-width: 1.8; stroke-linecap: square"/>
    </g>
    <g id="text_15">
     <text style="font: 8px 'sans-serif'; text-anchor: start" x="317.01875" y="208.89625" transform="rotate(-0, 317.01875, 208.89625)">LinkerHand O6</text>
    </g>
    <g id="line2d_20">
     <path d="M 294.61875 218.29625 
L 302.61875 218.29625 
L 310.61875 218.29625 
" style="fill: none; stroke: #44aa99; stroke-width: 1.8; stroke-linecap: square"/>
    </g>
    <g id="text_16">
     <text style="font: 8px 'sans-serif'; text-anchor: start" x="317.01875" y="221.09625" transform="rotate(-0, 317.01875, 221.09625)">XHand</text>
    </g>
    <g id="line2d_21">
     <path d="M 294.61875 230.49625 
L 302.61875 230.49625 
L 310.61875 230.49625 
" style="fill: none; stroke: #cc6677; stroke-width: 1.8; stroke-linecap: square"/>
    </g>
    <g id="text_17">
     <text style="font: 8px 'sans-serif'; text-anchor: start" x="317.01875" y="233.29625" transform="rotate(-0, 317.01875, 233.29625)">WujiHand</text>
    </g>
   </g>
  </g>
  <g id="axes_2">
   <g id="patch_5">
    <path d="M 422.995 242.44 
L 763.4 242.44 
L 763.4 7.2 
L 422.995 7.2 
z
" style="fill: #ffffff"/>
   </g>
   <g id="matplotlib.axis_3">
    <g id="xtick_8">
     <g id="line2d_22">
      <g>
       <use xlink:href="#m1691db715d" x="437.432974" y="242.44" style="fill: #252525; stroke: #252525; stroke-width: 0.8"/>
      </g>
     </g>
     <g id="text_18">
      <text style="fill: #252525; font: 10px 'sans-serif'; text-anchor: middle" x="437.432974" y="257.399375" transform="rotate(-0, 437.432974, 257.399375)">0</text>
     </g>
    </g>
    <g id="xtick_9">
     <g id="line2d_23">
      <g>
       <use xlink:href="#m1691db715d" x="489.181986" y="242.44" style="fill: #252525; stroke: #252525; stroke-width: 0.8"/>
      </g>
     </g>
     <g id="text_19">
      <text style="fill: #252525; font: 10px 'sans-serif'; text-anchor: middle" x="489.181986" y="257.399375" transform="rotate(-0, 489.181986, 257.399375)">50</text>
     </g>
    </g>
    <g id="xtick_10">
     <g id="line2d_24">
      <g>
       <use xlink:href="#m1691db715d" x="540.930998" y="242.44" style="fill: #252525; stroke: #252525; stroke-width: 0.8"/>
      </g>
     </g>
     <g id="text_20">
      <text style="fill: #252525; font: 10px 'sans-serif'; text-anchor: middle" x="540.930998" y="257.399375" transform="rotate(-0, 540.930998, 257.399375)">100</text>
     </g>
    </g>
    <g id="xtick_11">
     <g id="line2d_25">
      <g>
       <use xlink:href="#m1691db715d" x="592.68001" y="242.44" style="fill: #252525; stroke: #252525; stroke-width: 0.8"/>
      </g>
     </g>
     <g id="text_21">
      <text style="fill: #252525; font: 10px 'sans-serif'; text-anchor: middle" x="592.68001" y="257.399375" transform="rotate(-0, 592.68001, 257.399375)">150</text>
     </g>
    </g>
    <g id="xtick_12">
     <g id="line2d_26">
      <g>
       <use xlink:href="#m1691db715d" x="644.429022" y="242.44" style="fill: #252525; stroke: #252525; stroke-width: 0.8"/>
      </g>
     </g>
     <g id="text_22">
      <text style="fill: #252525; font: 10px 'sans-serif'; text-anchor: middle" x="644.429022" y="257.399375" transform="rotate(-0, 644.429022, 257.399375)">200</text>
     </g>
    </g>
    <g id="xtick_13">
     <g id="line2d_27">
      <g>
       <use xlink:href="#m1691db715d" x="696.178034" y="242.44" style="fill: #252525; stroke: #252525; stroke-width: 0.8"/>
      </g>
     </g>
     <g id="text_23">
      <text style="fill: #252525; font: 10px 'sans-serif'; text-anchor: middle" x="696.178034" y="257.399375" transform="rotate(-0, 696.178034, 257.399375)">250</text>
     </g>
    </g>
    <g id="xtick_14">
     <g id="line2d_28">
      <g>
       <use xlink:href="#m1691db715d" x="747.927045" y="242.44" style="fill: #252525; stroke: #252525; stroke-width: 0.8"/>
      </g>
     </g>
     <g id="text_24">
      <text style="fill: #252525; font: 10px 'sans-serif'; text-anchor: middle" x="747.927045" y="257.399375" transform="rotate(-0, 747.927045, 257.399375)">300</text>
     </g>
    </g>
    <g id="text_25">
     <text style="fill: #252525; font: 10px 'sans-serif'; text-anchor: middle" x="593.1975" y="271.649375" transform="rotate(-0, 593.1975, 271.649375)">PPO iteration</text>
    </g>
   </g>
   <g id="matplotlib.axis_4">
    <g id="ytick_6">
     <g id="line2d_29">
      <g>
       <use xlink:href="#m2e000f0c8f" x="422.995" y="216.103592" style="fill: #252525; stroke: #252525; stroke-width: 0.8"/>
      </g>
     </g>
     <g id="text_26">
      <text style="fill: #252525; font: 10px 'sans-serif'; text-anchor: end" x="415.995" y="220.08328" transform="rotate(-0, 415.995, 220.08328)">4</text>
     </g>
    </g>
    <g id="ytick_7">
     <g id="line2d_30">
      <g>
       <use xlink:href="#m2e000f0c8f" x="422.995" y="186.958782" style="fill: #252525; stroke: #252525; stroke-width: 0.8"/>
      </g>
     </g>
     <g id="text_27">
      <text style="fill: #252525; font: 10px 'sans-serif'; text-anchor: end" x="415.995" y="190.93847" transform="rotate(-0, 415.995, 190.93847)">6</text>
     </g>
    </g>
    <g id="ytick_8">
     <g id="line2d_31">
      <g>
       <use xlink:href="#m2e000f0c8f" x="422.995" y="157.813972" style="fill: #252525; stroke: #252525; stroke-width: 0.8"/>
      </g>
     </g>
     <g id="text_28">
      <text style="fill: #252525; font: 10px 'sans-serif'; text-anchor: end" x="415.995" y="161.79366" transform="rotate(-0, 415.995, 161.79366)">8</text>
     </g>
    </g>
    <g id="ytick_9">
     <g id="line2d_32">
      <g>
       <use xlink:href="#m2e000f0c8f" x="422.995" y="128.669162" style="fill: #252525; stroke: #252525; stroke-width: 0.8"/>
      </g>
     </g>
     <g id="text_29">
      <text style="fill: #252525; font: 10px 'sans-serif'; text-anchor: end" x="415.995" y="132.64885" transform="rotate(-0, 415.995, 132.64885)">10</text>
     </g>
    </g>
    <g id="ytick_10">
     <g id="line2d_33">
      <g>
       <use xlink:href="#m2e000f0c8f" x="422.995" y="99.524352" style="fill: #252525; stroke: #252525; stroke-width: 0.8"/>
      </g>
     </g>
     <g id="text_30">
      <text style="fill: #252525; font: 10px 'sans-serif'; text-anchor: end" x="415.995" y="103.504039" transform="rotate(-0, 415.995, 103.504039)">12</text>
     </g>
    </g>
    <g id="ytick_11">
     <g id="line2d_34">
      <g>
       <use xlink:href="#m2e000f0c8f" x="422.995" y="70.379542" style="fill: #252525; stroke: #252525; stroke-width: 0.8"/>
      </g>
     </g>
     <g id="text_31">
      <text style="fill: #252525; font: 10px 'sans-serif'; text-anchor: end" x="415.995" y="74.359229" transform="rotate(-0, 415.995, 74.359229)">14</text>
     </g>
    </g>
    <g id="ytick_12">
     <g id="line2d_35">
      <g>
       <use xlink:href="#m2e000f0c8f" x="422.995" y="41.234732" style="fill: #252525; stroke: #252525; stroke-width: 0.8"/>
      </g>
     </g>
     <g id="text_32">
      <text style="fill: #252525; font: 10px 'sans-serif'; text-anchor: end" x="415.995" y="45.214419" transform="rotate(-0, 415.995, 45.214419)">16</text>
     </g>
    </g>
    <g id="ytick_13">
     <g id="line2d_36">
      <g>
       <use xlink:href="#m2e000f0c8f" x="422.995" y="12.089922" style="fill: #252525; stroke: #252525; stroke-width: 0.8"/>
      </g>
     </g>
     <g id="text_33">
      <text style="fill: #252525; font: 10px 'sans-serif'; text-anchor: end" x="415.995" y="16.069609" transform="rotate(-0, 415.995, 16.069609)">18</text>
     </g>
    </g>
    <g id="text_34">
     <text style="fill: #252525; font: 10px 'sans-serif'; text-anchor: middle" x="398.604375" y="124.82" transform="rotate(-90, 398.604375, 124.82)">平均最终抬升（cm）</text>
    </g>
   </g>
   <g id="line2d_37">
    <path d="M 438.467955 162.321858 
L 439.502935 153.881856 
L 440.537915 168.395808 
L 441.572895 199.134779 
L 442.607875 170.528104 
L 443.642856 176.67482 
L 444.677836 168.550556 
L 445.712816 154.353119 
L 446.747796 141.794465 
L 447.782777 145.46415 
L 448.817757 146.431785 
L 449.852737 145.00861 
L 450.887717 175.666833 
L 451.922698 151.061664 
L 452.957678 167.620725 
L 453.992658 167.262317 
L 455.027638 195.042205 
L 456.062619 154.594677 
L 457.097599 171.613942 
L 458.132579 171.264911 
L 459.167559 146.930392 
L 460.20254 194.807288 
L 462.2725 145.46853 
L 463.30748 146.578743 
L 464.34246 166.581092 
L 465.377441 203.864402 
L 466.412421 148.466849 
L 467.447401 148.402806 
L 468.482381 208.130606 
L 469.517362 156.232896 
L 470.552342 194.625888 
L 471.587322 151.081849 
L 472.622302 204.867644 
L 473.657283 169.061943 
L 474.692263 144.09722 
L 475.727243 155.899456 
L 476.762223 172.141829 
L 477.797204 153.506104 
L 478.832184 150.865709 
L 479.867164 143.661609 
L 480.902144 148.687943 
L 481.937125 177.188708 
L 482.972105 152.088179 
L 484.007085 147.536346 
L 485.042065 147.035365 
L 486.077045 146.712712 
L 487.112026 165.777423 
L 488.147006 169.202079 
L 489.181986 147.328901 
L 490.216966 173.99598 
L 491.251947 176.107899 
L 492.286927 202.07358 
L 493.321907 155.159815 
L 494.356887 147.109249 
L 495.391868 152.324669 
L 496.426848 143.548341 
L 497.461828 165.583833 
L 498.496808 154.404487 
L 499.531789 153.691995 
L 500.566769 167.50461 
L 501.601749 178.339525 
L 502.636729 175.469233 
L 503.671709 147.695807 
L 504.70669 148.857719 
L 505.74167 156.365981 
L 506.77665 175.415136 
L 507.81163 142.369672 
L 508.846611 139.785958 
L 509.881591 176.806877 
L 510.916571 148.415013 
L 511.951551 186.351817 
L 512.986532 144.624838 
L 514.021512 146.433998 
L 515.056492 162.339766 
L 516.091472 146.011687 
L 517.126453 166.632791 
L 518.161433 158.763993 
L 519.196413 176.548126 
L 520.231393 187.020601 
L 521.266374 161.963396 
L 522.301354 155.460704 
L 523.336334 175.506012 
L 524.371314 154.249426 
L 525.406294 139.861403 
L 526.441275 191.733012 
L 527.476255 154.386725 
L 528.511235 154.512657 
L 529.546215 203.393152 
L 530.581196 116.031192 
L 531.616176 197.870043 
L 532.651156 151.000219 
L 533.686136 154.10987 
L 534.721117 136.935312 
L 535.756097 130.040775 
L 536.791077 140.117491 
L 537.826057 175.167078 
L 538.861038 153.03332 
L 539.896018 136.819471 
L 541.965978 160.89613 
L 545.070919 124.41388 
L 546.105899 135.350545 
L 547.140879 193.560846 
L 548.17586 141.798567 
L 549.21084 161.813675 
L 550.24582 191.083068 
L 551.2808 179.349215 
L 552.315781 141.834254 
L 553.350761 122.762095 
L 554.385741 156.370454 
L 555.420721 221.923422 
L 556.455702 122.382996 
L 557.490682 163.307861 
L 558.525662 147.605246 
L 559.560642 127.681677 
L 560.595623 164.080497 
L 561.630603 138.598885 
L 562.665583 140.69389 
L 563.700563 168.905973 
L 564.735543 135.398578 
L 565.770524 224.438966 
L 566.805504 189.564659 
L 567.840484 168.249914 
L 568.875464 169.827373 
L 569.910445 139.814271 
L 570.945425 148.522097 
L 571.980405 142.343389 
L 573.015385 115.068546 
L 574.050366 118.95902 
L 575.085346 120.333614 
L 576.120326 117.955486 
L 577.155306 152.816176 
L 578.190287 143.180458 
L 579.225267 151.118541 
L 580.260247 169.318348 
L 581.295227 194.137994 
L 582.330208 145.831647 
L 583.365188 151.933851 
L 584.400168 151.928111 
L 585.435148 124.39712 
L 586.470128 147.93616 
L 587.505109 179.307255 
L 588.540089 147.177013 
L 589.575069 198.225311 
L 590.610049 172.15943 
L 591.64503 121.208185 
L 592.68001 121.410892 
L 593.71499 221.34446 
L 594.74997 143.934724 
L 595.784951 175.924089 
L 596.819931 172.879438 
L 597.854911 143.66039 
L 598.889891 123.623092 
L 599.924872 117.029224 
L 600.959852 178.669586 
L 601.994832 148.838633 
L 603.029812 173.780343 
L 604.064792 122.604835 
L 605.099773 121.126563 
L 606.134753 120.192823 
L 607.169733 195.117383 
L 608.204713 174.299482 
L 609.239694 171.710715 
L 610.274674 200.853382 
L 611.309654 196.758962 
L 612.344634 175.853927 
L 613.379615 200.252672 
L 615.449575 122.701888 
L 616.484555 162.880393 
L 617.519536 145.365606 
L 618.554516 140.696773 
L 619.589496 126.183356 
L 620.624476 117.832003 
L 621.659457 181.613154 
L 622.694437 169.582303 
L 623.729417 144.279016 
L 624.764397 98.625596 
L 625.799377 196.55481 
L 626.834358 169.754654 
L 627.869338 175.148607 
L 628.904318 142.392499 
L 629.939298 175.085552 
L 630.974279 143.43791 
L 632.009259 126.676663 
L 633.044239 145.024755 
L 634.079219 121.911985 
L 635.1142 145.033131 
L 636.14918 145.24503 
L 637.18416 160.28935 
L 638.21914 178.279622 
L 640.289101 121.667478 
L 641.324081 139.20587 
L 642.359061 149.786779 
L 643.394042 143.212953 
L 644.429022 169.536479 
L 645.464002 172.0488 
L 646.498982 149.453875 
L 647.533962 102.131678 
L 648.568943 171.65798 
L 649.603923 136.944798 
L 650.638903 169.391457 
L 651.673883 173.873721 
L 652.708864 122.645163 
L 653.743844 116.871783 
L 654.778824 175.058662 
L 655.813804 145.435682 
L 656.848785 141.189069 
L 657.883765 170.59079 
L 658.918745 126.766529 
L 659.953725 165.062288 
L 660.988706 143.708566 
L 662.023686 115.291195 
L 663.058666 146.108397 
L 664.093646 145.536861 
L 665.128626 120.693368 
L 666.163607 131.859995 
L 667.198587 119.693896 
L 668.233567 148.635411 
L 669.268547 167.246321 
L 670.303528 171.706433 
L 671.338508 101.096358 
L 672.373488 117.150084 
L 673.408468 144.62336 
L 674.443449 121.404688 
L 675.478429 149.292276 
L 676.513409 119.301278 
L 677.548389 123.014496 
L 678.58337 169.927067 
L 679.61835 173.028495 
L 680.65333 147.498255 
L 681.68831 144.401085 
L 683.758271 146.99499 
L 684.793251 146.252927 
L 685.828231 151.715369 
L 686.863211 103.108349 
L 687.898192 120.633617 
L 688.933172 117.552514 
L 689.968152 146.283353 
L 691.003132 149.179397 
L 692.038113 148.309201 
L 693.073093 145.981139 
L 694.108073 126.051432 
L 695.143053 147.257279 
L 696.178034 143.811102 
L 697.213014 169.40847 
L 698.247994 120.559869 
L 699.282974 155.293244 
L 700.317955 168.316975 
L 701.352935 145.237619 
L 702.387915 154.998376 
L 703.422895 140.870322 
L 704.457875 152.124511 
L 705.492856 166.949652 
L 706.527836 142.652391 
L 707.562816 122.074849 
L 709.632777 170.743841 
L 710.667757 154.70482 
L 711.702737 151.134004 
L 712.737717 145.678463 
L 713.772698 171.201523 
L 714.807678 166.76617 
L 715.842658 135.489836 
L 716.877638 165.391873 
L 717.912619 138.930608 
L 718.947599 164.557849 
L 719.982579 148.179532 
L 721.017559 141.700897 
L 722.05254 143.099152 
L 723.08752 141.753295 
L 724.1225 92.998094 
L 725.15748 165.852091 
L 726.19246 123.696935 
L 727.227441 167.325214 
L 728.262421 142.759883 
L 729.297401 121.341204 
L 730.332381 120.127044 
L 731.367362 125.168731 
L 732.402342 143.550726 
L 733.437322 146.477189 
L 734.472302 140.354791 
L 735.507283 140.090678 
L 736.542263 124.897672 
L 737.577243 145.694222 
L 738.612223 126.150353 
L 739.647204 167.15142 
L 740.682184 145.128527 
L 741.717164 167.466732 
L 742.752144 194.416124 
L 743.787125 145.311459 
L 744.822105 119.274311 
L 745.857085 171.572728 
L 746.892065 143.980782 
L 747.927045 143.5538 
L 747.927045 143.5538 
" clip-path="url(#pcc8c63263c)" style="fill: none; stroke: #332288; stroke-opacity: 0.16; stroke-width: 0.75; stroke-linecap: square"/>
   </g>
   <g id="line2d_38">
    <path d="M 438.467955 166.00626 
L 439.502935 164.637767 
L 442.607875 161.300366 
L 443.642856 162.190031 
L 444.677836 161.439351 
L 446.747796 162.121973 
L 447.782777 164.865996 
L 448.817757 163.945921 
L 449.852737 162.111198 
L 450.887717 162.160319 
L 451.922698 160.177357 
L 452.957678 161.927805 
L 453.992658 163.023261 
L 455.027638 163.268199 
L 456.062619 163.342505 
L 457.097599 164.685792 
L 458.132579 168.609511 
L 459.167559 166.796179 
L 460.20254 166.618922 
L 461.23752 169.319581 
L 462.2725 168.584286 
L 463.30748 168.556531 
L 464.34246 168.322343 
L 465.377441 170.539256 
L 467.447401 170.203514 
L 468.482381 167.609658 
L 469.517362 167.700117 
L 470.552342 168.235955 
L 471.587322 168.521753 
L 472.622302 166.993787 
L 473.657283 163.315357 
L 474.692263 165.230147 
L 475.727243 165.475839 
L 476.762223 161.436222 
L 477.797204 160.823053 
L 478.832184 157.628841 
L 479.867164 158.608546 
L 480.902144 156.230842 
L 481.937125 154.781972 
L 482.972105 156.775223 
L 484.007085 158.122452 
L 485.042065 160.117902 
L 486.077045 160.22815 
L 487.112026 159.977719 
L 488.147006 160.555257 
L 489.181986 160.212616 
L 490.216966 159.438958 
L 491.251947 159.593379 
L 492.286927 160.003755 
L 493.321907 161.368372 
L 494.356887 163.476826 
L 495.391868 164.122946 
L 496.426848 162.689195 
L 497.461828 162.791116 
L 498.496808 161.615783 
L 499.531789 161.569599 
L 500.566769 157.589338 
L 501.601749 156.564414 
L 502.636729 158.544256 
L 503.671709 158.283612 
L 504.70669 161.137178 
L 505.74167 159.739911 
L 506.77665 159.208545 
L 507.81163 159.785063 
L 508.846611 158.352202 
L 509.881591 157.571753 
L 510.916571 156.45807 
L 511.951551 158.381558 
L 512.986532 160.92575 
L 514.021512 161.298911 
L 515.056492 159.968616 
L 516.091472 162.177705 
L 517.126453 163.141936 
L 518.161433 160.678905 
L 519.196413 163.566771 
L 520.231393 161.435765 
L 521.266374 162.094953 
L 522.301354 165.89223 
L 523.336334 162.804992 
L 524.371314 166.262216 
L 525.406294 165.220044 
L 526.441275 164.909769 
L 527.476255 162.268915 
L 528.511235 158.47026 
L 529.546215 157.013866 
L 530.581196 158.327624 
L 531.616176 156.829445 
L 532.651156 155.667448 
L 533.686136 156.290784 
L 534.721117 154.234991 
L 535.756097 153.845477 
L 536.791077 152.686766 
L 537.826057 147.421481 
L 538.861038 148.709438 
L 539.896018 148.422158 
L 540.930998 147.808715 
L 541.965978 148.322302 
L 544.035939 155.219381 
L 545.070919 155.333832 
L 546.105899 151.840167 
L 547.140879 152.062642 
L 548.17586 157.736239 
L 549.21084 155.947676 
L 550.24582 156.108458 
L 551.2808 156.045874 
L 552.315781 155.415853 
L 553.350761 158.060295 
L 554.385741 158.276851 
L 555.420721 154.752387 
L 556.455702 156.559547 
L 557.490682 154.798541 
L 558.525662 157.022267 
L 559.560642 157.703297 
L 560.595623 159.464341 
L 561.630603 162.602026 
L 562.665583 161.498281 
L 563.700563 156.604859 
L 564.735543 157.935552 
L 565.770524 154.719597 
L 566.805504 152.809849 
L 567.840484 152.319978 
L 568.875464 149.244977 
L 569.910445 150.192797 
L 570.945425 150.358568 
L 571.980405 149.172739 
L 573.015385 151.434057 
L 574.050366 149.413993 
L 575.085346 146.498458 
L 578.190287 143.189627 
L 579.225267 143.150564 
L 580.260247 145.614822 
L 581.295227 147.755386 
L 582.330208 153.039806 
L 583.365188 156.49486 
L 584.400168 156.711707 
L 585.435148 154.618021 
L 586.470128 159.828955 
L 587.505109 159.350034 
L 588.540089 159.790416 
L 589.575069 158.373179 
L 590.610049 158.228429 
L 591.64503 156.341045 
L 592.68001 154.014452 
L 593.71499 157.632617 
L 594.74997 157.692782 
L 595.784951 157.324321 
L 596.819931 155.686176 
L 597.854911 150.546259 
L 598.889891 147.081819 
L 599.924872 152.009098 
L 600.959852 155.535004 
L 601.994832 152.226088 
L 603.029812 156.020665 
L 604.064792 157.409657 
L 605.099773 157.607956 
L 606.134753 161.380775 
L 607.169733 163.9128 
L 608.204713 164.290978 
L 609.239694 163.238365 
L 610.274674 163.00683 
L 611.309654 160.801258 
L 612.344634 161.039826 
L 613.379615 160.820189 
L 614.414595 164.914878 
L 615.449575 163.212539 
L 616.484555 161.211175 
L 617.519536 156.338833 
L 618.554516 156.052262 
L 619.589496 154.251975 
L 620.624476 154.204953 
L 621.659457 150.347608 
L 622.694437 151.246414 
L 623.729417 152.628816 
L 624.764397 150.215234 
L 625.799377 150.19251 
L 626.834358 148.940191 
L 627.869338 150.196843 
L 628.904318 152.024378 
L 629.939298 150.602791 
L 630.974279 151.182612 
L 632.009259 151.576467 
L 633.044239 153.112593 
L 634.079219 149.28933 
L 635.1142 147.958138 
L 636.14918 145.829095 
L 637.18416 147.638694 
L 638.21914 147.436243 
L 639.254121 147.837308 
L 640.289101 146.200975 
L 641.324081 147.976524 
L 642.359061 148.978711 
L 643.394042 150.6026 
L 644.429022 152.511179 
L 645.464002 150.001566 
L 646.498982 145.907711 
L 648.568943 149.150379 
L 649.603923 149.282592 
L 650.638903 150.669526 
L 651.673883 149.573098 
L 652.708864 149.274818 
L 653.743844 147.385469 
L 654.778824 145.107957 
L 655.813804 148.039739 
L 656.848785 146.298331 
L 657.883765 145.214902 
L 658.918745 142.712805 
L 659.953725 139.100816 
L 660.988706 140.8335 
L 662.023686 144.191802 
L 663.058666 143.96832 
L 664.093646 141.012365 
L 666.163607 137.678604 
L 667.198587 137.321148 
L 668.233567 136.269814 
L 669.268547 134.642661 
L 670.303528 135.157548 
L 671.338508 136.745459 
L 673.408468 140.365228 
L 674.443449 141.2013 
L 675.478429 142.931952 
L 676.513409 142.822591 
L 678.58337 140.090294 
L 680.65333 140.456662 
L 681.68831 138.651939 
L 682.723291 140.310517 
L 683.758271 140.302991 
L 684.793251 142.236853 
L 685.828231 143.767963 
L 686.863211 140.84292 
L 687.898192 139.124839 
L 688.933172 138.879029 
L 689.968152 140.546188 
L 691.003132 138.873267 
L 692.038113 139.426484 
L 693.073093 140.897421 
L 694.108073 140.465571 
L 695.143053 143.924906 
L 696.178034 145.274019 
L 697.213014 147.578819 
L 698.247994 148.956573 
L 699.282974 148.521439 
L 700.317955 146.772482 
L 701.352935 146.78504 
L 702.387915 149.764534 
L 704.457875 150.749231 
L 705.492856 149.16723 
L 706.527836 152.54334 
L 707.562816 153.308202 
L 708.597796 151.119726 
L 709.632777 152.463343 
L 710.667757 151.392159 
L 711.702737 152.971327 
L 712.737717 152.708329 
L 713.772698 151.025078 
L 714.807678 151.054862 
L 715.842658 152.366759 
L 716.877638 148.821997 
L 717.912619 148.49588 
L 718.947599 146.428688 
L 719.982579 147.508102 
L 721.017559 147.31353 
L 723.08752 140.880234 
L 724.1225 140.19216 
L 725.15748 138.736084 
L 726.19246 139.239189 
L 727.227441 137.625652 
L 728.262421 137.086395 
L 729.297401 135.96618 
L 730.332381 136.139185 
L 731.367362 135.098988 
L 732.402342 140.042544 
L 733.437322 138.660973 
L 734.472302 141.578959 
L 735.507283 143.38502 
L 736.542263 143.555125 
L 737.577243 143.417332 
L 738.612223 146.847044 
L 739.647204 148.101181 
L 740.682184 148.101386 
L 741.717164 147.906493 
L 743.787125 148.350635 
L 744.822105 149.594377 
L 745.857085 149.451682 
L 746.892065 150.611912 
L 747.927045 149.038737 
L 747.927045 149.038737 
" clip-path="url(#pcc8c63263c)" style="fill: none; stroke: #332288; stroke-width: 1.8; stroke-linecap: square"/>
   </g>
   <g id="line2d_39">
    <path d="M 438.467955 214.133685 
L 439.502935 197.495614 
L 440.537915 197.785122 
L 441.572895 189.063685 
L 442.607875 210.922953 
L 443.642856 164.542927 
L 444.677836 153.530854 
L 445.712816 196.556829 
L 446.747796 195.09078 
L 447.782777 154.022188 
L 448.817757 172.689423 
L 449.852737 159.952718 
L 450.887717 195.209742 
L 451.922698 168.157092 
L 452.957678 171.234319 
L 453.992658 168.544729 
L 455.027638 123.256544 
L 456.062619 166.611074 
L 457.097599 169.385893 
L 458.132579 190.287199 
L 459.167559 201.21911 
L 460.20254 200.797871 
L 461.23752 176.892289 
L 463.30748 220.313892 
L 464.34246 195.76236 
L 465.377441 217.464279 
L 466.412421 157.410018 
L 467.447401 171.738159 
L 468.482381 197.54515 
L 469.517362 174.762426 
L 470.552342 219.828807 
L 471.587322 169.694269 
L 472.622302 187.839312 
L 473.657283 152.220105 
L 474.692263 159.442448 
L 475.727243 196.32983 
L 476.762223 145.409841 
L 477.797204 147.079368 
L 478.832184 122.578121 
L 479.867164 115.25555 
L 480.902144 216.499025 
L 481.937125 160.773752 
L 482.972105 139.271533 
L 484.007085 177.70939 
L 485.042065 147.470645 
L 486.077045 147.285832 
L 487.112026 123.704232 
L 488.147006 213.000412 
L 489.181986 168.213362 
L 490.216966 180.83564 
L 491.251947 156.440235 
L 492.286927 147.904801 
L 493.321907 185.085321 
L 494.356887 201.703686 
L 495.391868 123.460472 
L 496.426848 179.554506 
L 497.461828 217.853315 
L 498.496808 194.09476 
L 499.531789 194.373072 
L 500.566769 157.009009 
L 501.601749 193.377994 
L 502.636729 189.04469 
L 503.671709 173.871288 
L 504.70669 166.310884 
L 505.74167 145.625357 
L 506.77665 195.728978 
L 507.81163 184.993967 
L 508.846611 142.649185 
L 509.881591 226.612234 
L 510.916571 207.409931 
L 511.951551 166.503703 
L 512.986532 184.688771 
L 514.021512 189.809327 
L 515.056492 186.264029 
L 516.091472 184.431785 
L 517.126453 168.743889 
L 518.161433 231.747273 
L 519.196413 170.597195 
L 520.231393 173.713331 
L 521.266374 135.074434 
L 522.301354 84.346827 
L 523.336334 189.951578 
L 524.371314 92.407118 
L 525.406294 139.462775 
L 526.441275 168.58948 
L 527.476255 167.373235 
L 528.511235 169.858939 
L 529.546215 147.681874 
L 530.581196 136.682607 
L 531.616176 175.298604 
L 532.651156 140.928049 
L 533.686136 181.572925 
L 534.721117 196.498382 
L 535.756097 112.761194 
L 536.791077 168.668996 
L 537.826057 114.093168 
L 538.861038 220.704167 
L 539.896018 210.103812 
L 540.930998 166.20638 
L 541.965978 169.778831 
L 544.035939 224.381091 
L 545.070919 144.579264 
L 546.105899 165.804353 
L 547.140879 206.183633 
L 548.17586 161.631265 
L 549.21084 105.122296 
L 550.24582 144.087249 
L 551.2808 161.464498 
L 552.315781 138.939316 
L 553.350761 120.546712 
L 554.385741 144.260629 
L 555.420721 217.173932 
L 556.455702 144.867012 
L 557.490682 116.370137 
L 558.525662 142.456448 
L 559.560642 173.91498 
L 560.595623 201.797403 
L 561.630603 69.055615 
L 562.665583 186.825496 
L 563.700563 162.332237 
L 564.735543 143.500729 
L 565.770524 194.196996 
L 566.805504 174.760905 
L 567.840484 139.058582 
L 568.875464 131.18869 
L 569.910445 176.026001 
L 570.945425 118.301681 
L 571.980405 156.909752 
L 573.015385 111.576668 
L 574.050366 169.776609 
L 575.085346 122.774842 
L 576.120326 172.388547 
L 577.155306 113.979453 
L 578.190287 208.215191 
L 579.225267 147.828053 
L 580.260247 146.632254 
L 581.295227 117.874938 
L 582.330208 137.758261 
L 583.365188 175.636536 
L 584.400168 185.31874 
L 585.435148 120.210091 
L 587.505109 73.13979 
L 588.540089 127.205158 
L 589.575069 123.363903 
L 590.610049 143.536311 
L 591.64503 185.643879 
L 592.68001 112.266733 
L 593.71499 111.016313 
L 594.74997 143.073848 
L 595.784951 167.84632 
L 596.819931 98.259513 
L 597.854911 115.299369 
L 598.889891 127.385355 
L 599.924872 69.198934 
L 600.959852 159.50733 
L 601.994832 135.928262 
L 603.029812 143.02781 
L 604.064792 146.175434 
L 605.099773 146.312424 
L 606.134753 138.150293 
L 607.169733 166.704706 
L 608.204713 138.479514 
L 609.239694 138.959331 
L 610.274674 141.885093 
L 611.309654 132.293301 
L 612.344634 139.529322 
L 613.379615 169.165312 
L 614.414595 128.950811 
L 615.449575 138.503599 
L 616.484555 87.788915 
L 617.519536 143.619483 
L 618.554516 115.716071 
L 619.589496 110.280434 
L 620.624476 141.20794 
L 621.659457 132.612736 
L 622.694437 149.142928 
L 623.729417 169.734284 
L 624.764397 114.32266 
L 626.834358 110.149509 
L 627.869338 117.031781 
L 628.904318 91.7911 
L 629.939298 88.000478 
L 630.974279 187.973069 
L 632.009259 113.349393 
L 633.044239 78.563131 
L 634.079219 143.697456 
L 635.1142 97.344627 
L 637.18416 116.660155 
L 638.21914 145.355912 
L 639.254121 147.842796 
L 640.289101 72.530911 
L 641.324081 118.114725 
L 642.359061 196.448542 
L 643.394042 115.561674 
L 644.429022 141.00175 
L 645.464002 104.42306 
L 646.498982 142.663851 
L 647.533962 110.732966 
L 648.568943 134.926616 
L 649.603923 120.963417 
L 650.638903 113.818473 
L 651.673883 137.08244 
L 652.708864 134.588503 
L 653.743844 137.13845 
L 654.778824 118.225728 
L 655.813804 90.027895 
L 656.848785 102.432101 
L 657.883765 89.103155 
L 658.918745 89.656392 
L 660.988706 140.598687 
L 662.023686 151.449184 
L 663.058666 152.768022 
L 664.093646 118.634311 
L 665.128626 142.675763 
L 666.163607 161.774421 
L 667.198587 132.888728 
L 668.233567 115.799098 
L 669.268547 119.784398 
L 670.303528 142.518925 
L 671.338508 157.80366 
L 672.373488 115.458702 
L 673.408468 120.093088 
L 674.443449 136.285386 
L 675.478429 109.074016 
L 676.513409 140.361893 
L 677.548389 100.877499 
L 678.58337 101.910433 
L 680.65333 135.11405 
L 681.68831 110.775267 
L 682.723291 137.835154 
L 683.758271 169.217535 
L 684.793251 115.80268 
L 685.828231 141.921328 
L 686.863211 98.866801 
L 687.898192 114.082721 
L 688.933172 126.512889 
L 689.968152 116.721669 
L 691.003132 94.970757 
L 692.038113 158.320341 
L 693.073093 166.396478 
L 694.108073 110.753311 
L 695.143053 129.501427 
L 696.178034 115.236973 
L 697.213014 109.142374 
L 698.247994 155.364441 
L 699.282974 139.512865 
L 700.317955 87.683174 
L 701.352935 89.426549 
L 702.387915 191.436649 
L 703.422895 101.828192 
L 704.457875 144.171011 
L 705.492856 118.763013 
L 706.527836 143.365077 
L 707.562816 113.938806 
L 708.597796 134.662082 
L 709.632777 89.243131 
L 711.702737 190.574011 
L 712.737717 166.582568 
L 713.772698 158.221641 
L 714.807678 164.037516 
L 715.842658 87.581758 
L 716.877638 113.470925 
L 717.912619 131.612035 
L 718.947599 91.214398 
L 719.982579 191.875138 
L 721.017559 113.083046 
L 722.05254 165.499848 
L 723.08752 109.902994 
L 724.1225 124.8455 
L 725.15748 98.262972 
L 726.19246 138.658407 
L 727.227441 105.894637 
L 728.262421 131.495524 
L 729.297401 140.514992 
L 730.332381 131.794417 
L 731.367362 105.708664 
L 732.402342 114.176696 
L 733.437322 100.361701 
L 734.472302 140.58938 
L 736.542263 87.247163 
L 737.577243 136.916756 
L 738.612223 112.35631 
L 739.647204 109.107343 
L 740.682184 115.774416 
L 741.717164 69.430139 
L 742.752144 136.439852 
L 743.787125 82.186771 
L 744.822105 164.217306 
L 745.857085 159.763548 
L 746.892065 146.366564 
L 747.927045 114.077096 
L 747.927045 114.077096 
" clip-path="url(#pcc8c63263c)" style="fill: none; stroke: #44aa99; stroke-opacity: 0.16; stroke-width: 0.75; stroke-linecap: square"/>
   </g>
   <g id="line2d_40">
    <path d="M 438.467955 201.531164 
L 439.502935 200.261637 
L 440.537915 196.254204 
L 441.572895 193.491253 
L 442.607875 189.879189 
L 443.642856 188.617593 
L 446.747796 179.653265 
L 447.782777 174.703994 
L 448.817757 172.625724 
L 450.887717 169.938154 
L 451.922698 172.383233 
L 452.957678 175.534367 
L 453.992658 174.223398 
L 455.027638 174.397783 
L 456.062619 178.81723 
L 457.097599 180.355426 
L 458.132579 184.18953 
L 459.167559 181.669549 
L 460.20254 181.908286 
L 461.23752 183.662342 
L 462.2725 184.076855 
L 463.30748 190.515006 
L 464.34246 190.720552 
L 465.377441 191.95078 
L 467.447401 186.627863 
L 468.482381 186.329994 
L 469.517362 184.231164 
L 470.552342 180.856018 
L 471.587322 174.340299 
L 472.622302 168.973179 
L 473.657283 168.908829 
L 474.692263 169.133077 
L 475.727243 166.968636 
L 476.762223 165.646252 
L 477.797204 163.8268 
L 478.832184 158.990601 
L 479.867164 155.924599 
L 480.902144 157.602006 
L 481.937125 158.668223 
L 482.972105 160.094436 
L 484.007085 157.435129 
L 485.042065 157.60146 
L 486.077045 160.13519 
L 487.112026 165.410228 
L 488.147006 165.957223 
L 489.181986 163.494255 
L 491.251947 170.954441 
L 492.286927 172.065353 
L 493.321907 172.701244 
L 494.356887 175.774055 
L 495.391868 180.130085 
L 496.426848 177.521477 
L 497.461828 177.394645 
L 498.496808 175.047293 
L 500.566769 180.139153 
L 501.601749 177.310078 
L 502.636729 178.970647 
L 503.671709 184.567278 
L 504.70669 183.697224 
L 505.74167 181.486255 
L 506.77665 181.200559 
L 507.81163 180.659956 
L 508.846611 182.488141 
L 509.881591 180.845868 
L 510.916571 183.692707 
L 511.951551 183.474434 
L 512.986532 183.96793 
L 514.021512 183.264535 
L 515.056492 175.839059 
L 516.091472 176.169566 
L 517.126453 172.820095 
L 518.161433 167.010131 
L 519.196413 164.422101 
L 520.231393 164.48007 
L 521.266374 163.491414 
L 522.301354 160.682918 
L 523.336334 157.377489 
L 524.371314 156.768611 
L 525.406294 154.914221 
L 526.441275 151.569265 
L 527.476255 153.296011 
L 528.511235 149.232535 
L 530.581196 153.455262 
L 531.616176 155.505434 
L 532.651156 163.35188 
L 533.686136 165.134787 
L 534.721117 165.214078 
L 535.756097 167.269407 
L 536.791077 170.904217 
L 537.826057 170.697376 
L 539.896018 174.697828 
L 540.930998 176.078042 
L 541.965978 170.981334 
L 543.000958 167.487258 
L 544.035939 170.734145 
L 545.070919 168.752166 
L 546.105899 169.182403 
L 547.140879 164.086167 
L 548.17586 164.557508 
L 549.21084 163.134884 
L 552.315781 152.493448 
L 553.350761 156.307991 
L 554.385741 149.858075 
L 555.420721 148.567532 
L 556.455702 148.614264 
L 557.490682 151.172826 
L 558.525662 154.513476 
L 559.560642 155.399903 
L 560.595623 155.407854 
L 561.630603 156.117319 
L 562.665583 158.235011 
L 563.700563 151.643527 
L 564.735543 152.446377 
L 565.770524 152.126812 
L 566.805504 153.948156 
L 567.840484 150.538814 
L 568.875464 148.578223 
L 569.910445 151.573146 
L 570.945425 152.999126 
L 571.980405 152.03218 
L 573.015385 152.240948 
L 574.050366 147.152811 
L 575.085346 144.685968 
L 576.120326 147.124498 
L 577.155306 150.733168 
L 578.190287 147.012108 
L 579.225267 145.579344 
L 580.260247 139.99468 
L 581.295227 141.036579 
L 582.330208 137.942398 
L 583.365188 139.326496 
L 584.400168 140.210185 
L 585.435148 140.096004 
L 586.470128 133.616079 
L 587.505109 133.299132 
L 588.540089 134.713403 
L 589.575069 133.405708 
L 590.610049 131.908448 
L 591.64503 128.691703 
L 592.68001 120.950382 
L 594.74997 126.178068 
L 595.784951 130.837269 
L 596.819931 132.101954 
L 597.854911 133.631856 
L 598.889891 133.272788 
L 599.924872 132.010176 
L 601.994832 135.620563 
L 603.029812 135.541312 
L 604.064792 133.171111 
L 605.099773 135.922432 
L 606.134753 139.513495 
L 607.169733 139.617858 
L 608.204713 144.238169 
L 609.239694 139.456942 
L 610.274674 139.96969 
L 611.309654 138.148907 
L 612.344634 135.755907 
L 614.414595 135.046438 
L 615.449575 133.875653 
L 616.484555 135.959304 
L 617.519536 134.316859 
L 618.554516 132.336038 
L 620.624476 129.359949 
L 621.659457 124.201668 
L 622.694437 121.471646 
L 623.729417 124.769611 
L 624.764397 126.473643 
L 625.799377 122.136553 
L 626.834358 124.001978 
L 627.869338 123.139591 
L 628.904318 120.882219 
L 629.939298 119.818714 
L 630.974279 119.566246 
L 632.009259 118.106813 
L 633.044239 115.320697 
L 634.079219 115.716827 
L 635.1142 121.470095 
L 636.14918 121.372088 
L 637.18416 124.652798 
L 638.21914 125.747637 
L 639.254121 122.727023 
L 640.289101 122.552594 
L 641.324081 126.31016 
L 642.359061 124.794557 
L 643.394042 125.892813 
L 644.429022 127.875152 
L 645.464002 129.070376 
L 646.498982 128.522545 
L 647.533962 126.548074 
L 648.568943 127.714539 
L 649.603923 126.669031 
L 650.638903 119.512672 
L 652.708864 115.99805 
L 653.743844 118.409758 
L 654.778824 118.995447 
L 655.813804 121.797784 
L 656.848785 120.711631 
L 657.883765 122.15912 
L 658.918745 125.356184 
L 659.953725 125.076603 
L 662.023686 122.667039 
L 663.058666 124.286586 
L 664.093646 128.80497 
L 665.128626 129.67341 
L 666.163607 131.739405 
L 667.198587 134.848005 
L 668.233567 134.507093 
L 669.268547 134.491306 
L 671.338508 127.729355 
L 672.373488 127.75021 
L 673.408468 127.246096 
L 674.443449 123.846152 
L 675.478429 124.175914 
L 676.513409 127.737143 
L 677.548389 127.471695 
L 678.58337 127.431855 
L 679.61835 123.502731 
L 680.65333 123.410999 
L 681.68831 123.838986 
L 682.723291 122.534738 
L 683.758271 121.594521 
L 684.793251 122.791751 
L 685.828231 127.159683 
L 687.898192 128.452827 
L 688.933172 127.127689 
L 689.968152 127.018829 
L 691.003132 128.187448 
L 693.073093 124.332503 
L 694.108073 120.832851 
L 695.143053 127.004174 
L 696.178034 126.187206 
L 697.213014 127.364414 
L 698.247994 127.500504 
L 699.282974 130.726792 
L 700.317955 127.768023 
L 701.352935 125.652396 
L 702.387915 124.218384 
L 703.422895 124.793192 
L 704.457875 129.815661 
L 705.492856 133.645008 
L 706.527836 133.835488 
L 707.562816 135.470464 
L 708.597796 135.463703 
L 709.632777 137.066662 
L 710.667757 133.078354 
L 711.702737 132.370768 
L 712.737717 135.551043 
L 713.772698 135.172379 
L 714.807678 136.64803 
L 715.842658 136.378976 
L 716.877638 135.724537 
L 717.912619 136.32586 
L 718.947599 136.361517 
L 719.982579 130.716226 
L 721.017559 128.377089 
L 722.05254 127.196646 
L 723.08752 125.047106 
L 724.1225 126.255566 
L 725.15748 126.302618 
L 726.19246 124.219262 
L 727.227441 127.510928 
L 728.262421 122.277189 
L 730.332381 118.649257 
L 731.367362 118.812812 
L 732.402342 117.763601 
L 733.437322 118.931031 
L 734.472302 114.315813 
L 735.507283 116.352161 
L 736.542263 113.06491 
L 737.577243 114.645065 
L 738.612223 116.509674 
L 739.647204 119.2202 
L 740.682184 119.21356 
L 741.717164 120.12792 
L 742.752144 118.360434 
L 743.787125 118.407637 
L 744.822105 120.196299 
L 745.857085 118.673655 
L 746.892065 118.788374 
L 747.927045 119.119691 
L 747.927045 119.119691 
" clip-path="url(#pcc8c63263c)" style="fill: none; stroke: #44aa99; stroke-width: 1.8; stroke-linecap: square"/>
   </g>
   <g id="line2d_41">
    <path d="M 438.467955 121.948361 
L 439.502935 119.567483 
L 440.537915 110.016828 
L 441.572895 116.267982 
L 442.607875 142.209644 
L 443.642856 114.483205 
L 444.677836 124.693204 
L 445.712816 122.081867 
L 446.747796 103.040505 
L 447.782777 118.05089 
L 448.817757 121.146655 
L 449.852737 137.881945 
L 450.887717 117.638093 
L 451.922698 121.673676 
L 452.957678 142.254383 
L 453.992658 124.014289 
L 455.027638 143.993592 
L 456.062619 123.143364 
L 457.097599 118.731683 
L 458.132579 70.945809 
L 459.167559 142.182696 
L 460.20254 108.892393 
L 462.2725 121.124527 
L 463.30748 119.540149 
L 464.34246 119.772753 
L 465.377441 119.671364 
L 466.412421 101.872598 
L 467.447401 114.527012 
L 468.482381 92.686794 
L 469.517362 113.818923 
L 470.552342 97.059266 
L 471.587322 95.414427 
L 472.622302 118.553885 
L 473.657283 120.232933 
L 474.692263 119.96536 
L 475.727243 100.001458 
L 476.762223 122.194985 
L 478.832184 120.740896 
L 479.867164 119.586556 
L 480.902144 122.571439 
L 481.937125 117.194633 
L 482.972105 115.939788 
L 484.007085 102.643113 
L 485.042065 121.633443 
L 486.077045 96.922463 
L 487.112026 100.228758 
L 488.147006 71.804002 
L 489.181986 97.168941 
L 490.216966 89.256434 
L 491.251947 97.057703 
L 492.286927 113.423588 
L 493.321907 85.600904 
L 494.356887 97.694198 
L 495.391868 120.227853 
L 496.426848 65.999906 
L 497.461828 142.612318 
L 498.496808 123.865604 
L 499.531789 138.282832 
L 500.566769 92.92874 
L 501.601749 94.753305 
L 502.636729 134.064582 
L 504.70669 143.956026 
L 505.74167 95.322594 
L 506.77665 112.340433 
L 507.81163 122.358146 
L 508.846611 96.240922 
L 509.881591 115.650928 
L 510.916571 115.065603 
L 511.951551 112.026588 
L 512.986532 117.059841 
L 514.021512 92.153787 
L 515.056492 70.124845 
L 516.091472 109.193022 
L 517.126453 95.404985 
L 518.161433 94.81156 
L 519.196413 115.022524 
L 520.231393 52.691664 
L 521.266374 115.446676 
L 522.301354 110.731096 
L 523.336334 88.749443 
L 524.371314 116.820457 
L 525.406294 79.652108 
L 526.441275 138.4635 
L 527.476255 90.743541 
L 528.511235 72.187108 
L 529.546215 75.403593 
L 530.581196 97.164681 
L 531.616176 94.542399 
L 532.651156 114.4732 
L 533.686136 98.52685 
L 534.721117 98.505275 
L 535.756097 78.717904 
L 536.791077 95.497632 
L 537.826057 73.623176 
L 538.861038 139.245671 
L 539.896018 118.317917 
L 540.930998 87.982055 
L 541.965978 116.886113 
L 543.000958 108.964382 
L 544.035939 94.343683 
L 545.070919 89.412124 
L 546.105899 114.56633 
L 547.140879 113.923986 
L 548.17586 115.469472 
L 549.21084 115.017399 
L 550.24582 116.571525 
L 551.2808 96.334492 
L 552.315781 115.217442 
L 553.350761 95.665946 
L 554.385741 72.047172 
L 555.420721 141.287644 
L 556.455702 73.817716 
L 557.490682 97.572013 
L 558.525662 92.132551 
L 559.560642 70.623519 
L 560.595623 122.097937 
L 561.630603 75.541646 
L 562.665583 92.138888 
L 563.700563 101.220852 
L 564.735543 72.363813 
L 565.770524 73.830872 
L 566.805504 61.259264 
L 567.840484 91.000042 
L 568.875464 73.066052 
L 569.910445 96.823067 
L 570.945425 116.911798 
L 571.980405 102.70194 
L 573.015385 92.550849 
L 574.050366 133.16642 
L 575.085346 110.865702 
L 576.120326 94.913231 
L 577.155306 76.566664 
L 578.190287 95.727416 
L 579.225267 138.483641 
L 580.260247 99.087727 
L 581.295227 96.021167 
L 582.330208 118.176054 
L 583.365188 89.294893 
L 584.400168 80.862434 
L 585.435148 112.796567 
L 586.470128 92.453771 
L 587.505109 112.768809 
L 588.540089 109.699869 
L 589.575069 113.196372 
L 590.610049 113.337914 
L 591.64503 114.375825 
L 592.68001 117.043264 
L 593.71499 121.262403 
L 594.74997 58.528663 
L 595.784951 87.869098 
L 596.819931 88.17998 
L 597.854911 92.246226 
L 598.889891 65.525332 
L 599.924872 94.811773 
L 600.959852 73.493586 
L 601.994832 113.421932 
L 603.029812 69.81557 
L 604.064792 91.168806 
L 605.099773 107.799556 
L 606.134753 116.997458 
L 607.169733 68.102979 
L 608.204713 91.940861 
L 609.239694 88.049123 
L 610.274674 87.659412 
L 611.309654 92.506837 
L 612.344634 71.510598 
L 613.379615 87.51741 
L 614.414595 106.423909 
L 615.449575 110.353556 
L 616.484555 86.268931 
L 617.519536 54.434425 
L 618.554516 88.099246 
L 619.589496 67.707624 
L 620.624476 65.290284 
L 621.659457 101.864 
L 622.694437 63.830963 
L 623.729417 69.098741 
L 624.764397 96.212907 
L 626.834358 45.812727 
L 627.869338 89.562777 
L 628.904318 39.872244 
L 629.939298 60.101394 
L 630.974279 59.610403 
L 632.009259 62.846242 
L 633.044239 87.023256 
L 634.079219 82.209226 
L 635.1142 78.176446 
L 636.14918 69.632331 
L 637.18416 89.758992 
L 638.21914 118.800527 
L 639.254121 96.253077 
L 640.289101 91.673515 
L 641.324081 46.24241 
L 642.359061 68.925966 
L 643.394042 95.920178 
L 644.429022 44.110449 
L 645.464002 74.827817 
L 646.498982 91.510199 
L 647.533962 17.892727 
L 648.568943 143.559711 
L 649.603923 72.730294 
L 650.638903 91.941383 
L 651.673883 90.611436 
L 652.708864 49.407098 
L 654.778824 87.58408 
L 655.813804 87.814382 
L 656.848785 83.950942 
L 657.883765 61.314961 
L 658.918745 78.413023 
L 659.953725 76.989755 
L 660.988706 87.221124 
L 662.023686 111.549894 
L 663.058666 92.013098 
L 664.093646 88.073979 
L 665.128626 85.754355 
L 666.163607 67.942475 
L 667.198587 60.438307 
L 668.233567 46.191252 
L 669.268547 43.359606 
L 670.303528 55.556571 
L 671.338508 83.394885 
L 672.373488 58.895291 
L 673.408468 86.639018 
L 674.443449 66.609238 
L 675.478429 83.845716 
L 676.513409 111.761036 
L 677.548389 110.708909 
L 678.58337 78.586395 
L 679.61835 71.500732 
L 680.65333 66.516419 
L 681.68831 68.731356 
L 682.723291 66.402796 
L 683.758271 93.801998 
L 684.793251 93.324667 
L 685.828231 40.907647 
L 686.863211 86.074674 
L 687.898192 63.270353 
L 688.933172 97.391339 
L 689.968152 64.797654 
L 691.003132 95.665789 
L 692.038113 30.913166 
L 693.073093 83.942305 
L 694.108073 78.282201 
L 695.143053 58.32704 
L 696.178034 64.015731 
L 697.213014 66.932518 
L 698.247994 101.203672 
L 699.282974 126.234812 
L 700.317955 67.98924 
L 701.352935 152.312385 
L 702.387915 94.828783 
L 703.422895 71.828786 
L 704.457875 105.456798 
L 705.492856 156.862522 
L 706.527836 66.859611 
L 707.562816 145.669585 
L 708.597796 68.077026 
L 709.632777 87.535081 
L 710.667757 73.762634 
L 711.702737 91.181684 
L 712.737717 138.629546 
L 713.772698 97.89894 
L 714.807678 89.142414 
L 715.842658 89.96745 
L 717.912619 140.009259 
L 718.947599 84.489114 
L 719.982579 77.991641 
L 721.017559 91.940488 
L 722.05254 136.097102 
L 723.08752 172.628293 
L 724.1225 139.310285 
L 725.15748 110.91049 
L 726.19246 71.081985 
L 727.227441 66.03655 
L 728.262421 86.921821 
L 729.297401 143.889656 
L 730.332381 89.211217 
L 731.367362 119.172255 
L 732.402342 113.223982 
L 733.437322 124.030043 
L 734.472302 63.049897 
L 735.507283 114.425238 
L 736.542263 100.674439 
L 737.577243 134.266272 
L 739.647204 61.91041 
L 740.682184 131.633456 
L 741.717164 129.691799 
L 743.787125 67.097595 
L 744.822105 129.320326 
L 745.857085 118.704798 
L 746.892065 121.72612 
L 747.927045 138.055138 
L 747.927045 138.055138 
" clip-path="url(#pcc8c63263c)" style="fill: none; stroke: #cc6677; stroke-opacity: 0.16; stroke-width: 0.75; stroke-linecap: square"/>
   </g>
   <g id="line2d_42">
    <path d="M 438.467955 121.660474 
L 439.502935 120.39995 
L 440.537915 120.140118 
L 441.572895 120.086671 
L 442.607875 121.14891 
L 443.642856 120.861559 
L 444.677836 120.843247 
L 445.712816 122.196981 
L 446.747796 122.33471 
L 447.782777 123.963117 
L 448.817757 124.83822 
L 449.852737 125.002466 
L 450.887717 120.251544 
L 451.922698 122.098177 
L 452.957678 121.044789 
L 453.992658 120.582346 
L 455.027638 121.787948 
L 456.062619 121.887232 
L 457.097599 121.795638 
L 459.167559 119.530566 
L 460.20254 119.054122 
L 461.23752 115.749616 
L 462.2725 115.069925 
L 463.30748 111.94097 
L 464.34246 110.092374 
L 465.377441 110.080521 
L 466.412421 113.366329 
L 467.447401 111.885174 
L 468.482381 111.292445 
L 469.517362 111.762429 
L 472.622302 111.855284 
L 473.657283 112.048623 
L 474.692263 113.070091 
L 475.727243 113.164277 
L 476.762223 113.828031 
L 477.797204 114.348999 
L 478.832184 114.339879 
L 479.867164 114.660834 
L 480.902144 111.544175 
L 481.937125 110.006576 
L 482.972105 107.959314 
L 484.007085 107.763064 
L 485.042065 107.178304 
L 486.077045 104.784844 
L 487.112026 103.248398 
L 488.147006 103.291151 
L 489.181986 99.519715 
L 490.216966 101.214227 
L 491.251947 101.742615 
L 492.286927 104.118597 
L 493.321907 102.20495 
L 494.356887 102.060339 
L 495.391868 104.316061 
L 496.426848 108.796175 
L 497.461828 111.915314 
L 498.496808 112.319725 
L 499.531789 113.338574 
L 501.601749 114.643545 
L 502.636729 115.840661 
L 503.671709 115.496511 
L 504.70669 118.564956 
L 505.74167 116.861458 
L 506.77665 114.747337 
L 507.81163 110.203471 
L 508.846611 111.287756 
L 509.881591 111.331202 
L 510.916571 108.714334 
L 511.951551 107.115454 
L 512.986532 101.031163 
L 514.021512 102.372768 
L 515.056492 102.265479 
L 516.091472 100.024899 
L 517.126453 101.396868 
L 518.161433 98.996947 
L 519.196413 100.556806 
L 520.231393 99.137937 
L 521.266374 96.146421 
L 522.301354 95.029741 
L 523.336334 96.832397 
L 524.371314 95.855689 
L 525.406294 97.126903 
L 526.441275 97.374589 
L 527.476255 96.27344 
L 528.511235 98.008522 
L 529.546215 96.678586 
L 530.581196 94.204725 
L 531.616176 97.57114 
L 532.651156 97.67097 
L 533.686136 98.2263 
L 534.721117 96.787808 
L 535.756097 98.002531 
L 536.791077 99.479636 
L 537.826057 100.413538 
L 539.896018 102.865753 
L 540.930998 102.932171 
L 543.000958 105.235958 
L 545.070919 107.725051 
L 546.105899 109.194569 
L 547.140879 104.714669 
L 548.17586 106.245984 
L 549.21084 105.301695 
L 552.315781 101.310622 
L 553.350761 103.489676 
L 554.385741 100.888031 
L 555.420721 99.435691 
L 556.455702 98.485783 
L 558.525662 92.792834 
L 559.560642 90.454485 
L 561.630603 87.333332 
L 562.665583 88.985058 
L 563.700563 87.360002 
L 564.735543 89.285617 
L 565.770524 88.950873 
L 567.840484 94.369276 
L 568.875464 92.556963 
L 569.910445 92.625297 
L 570.945425 92.864532 
L 571.980405 95.348718 
L 573.015385 97.130312 
L 574.050366 98.609665 
L 575.085346 102.404118 
L 576.120326 102.290441 
L 577.155306 102.8102 
L 578.190287 103.8751 
L 579.225267 102.244565 
L 580.260247 102.91569 
L 581.295227 104.058958 
L 582.330208 102.727621 
L 583.365188 102.892435 
L 584.400168 104.189942 
L 585.435148 106.888382 
L 586.470128 108.590714 
L 587.505109 103.260382 
L 588.540089 102.512474 
L 589.575069 101.989728 
L 591.64503 98.676435 
L 592.68001 99.606391 
L 593.71499 96.986192 
L 594.74997 98.38407 
L 595.784951 95.52052 
L 596.819931 94.285116 
L 597.854911 93.925328 
L 598.889891 94.169298 
L 599.924872 91.084442 
L 600.959852 89.410948 
L 601.994832 87.19673 
L 603.029812 89.138779 
L 604.064792 89.447962 
L 605.099773 88.33667 
L 606.134753 88.021416 
L 607.169733 90.747987 
L 608.204713 91.784106 
L 609.239694 92.635796 
L 610.274674 88.703295 
L 611.309654 89.922207 
L 612.344634 88.358128 
L 613.379615 85.524177 
L 614.414595 84.515279 
L 615.449575 84.230478 
L 616.484555 82.70767 
L 617.519536 83.251923 
L 618.554516 82.050401 
L 619.589496 78.93746 
L 620.624476 80.140939 
L 623.729417 70.49355 
L 624.764397 68.932037 
L 625.799377 71.104626 
L 626.834358 70.711958 
L 627.869338 71.40988 
L 628.904318 71.699349 
L 629.939298 70.892349 
L 630.974279 74.556986 
L 632.009259 76.367276 
L 633.044239 76.064649 
L 634.079219 74.505038 
L 635.1142 76.045921 
L 636.14918 76.469747 
L 637.18416 76.752294 
L 638.21914 77.734056 
L 639.254121 79.860709 
L 640.289101 76.863808 
L 641.324081 80.632905 
L 642.359061 80.000976 
L 643.394042 80.918638 
L 644.429022 82.317246 
L 645.464002 79.627119 
L 646.498982 76.24809 
L 647.533962 75.670157 
L 648.568943 75.412882 
L 649.603923 77.926784 
L 650.638903 77.419384 
L 651.673883 76.25224 
L 652.708864 78.444194 
L 653.743844 79.270414 
L 654.778824 80.606394 
L 655.813804 85.547752 
L 656.848785 81.848703 
L 657.883765 82.716974 
L 658.918745 81.117047 
L 659.953725 79.105505 
L 660.988706 78.891115 
L 662.023686 77.240749 
L 663.058666 75.105582 
L 664.093646 74.810948 
L 665.128626 73.140572 
L 666.163607 74.828842 
L 667.198587 74.041923 
L 668.233567 74.498987 
L 669.268547 76.134981 
L 670.303528 76.078916 
L 671.338508 75.183802 
L 672.373488 74.078919 
L 673.408468 72.79639 
L 674.443449 72.848982 
L 675.478429 73.246615 
L 677.548389 79.751668 
L 678.58337 78.775073 
L 679.61835 78.953726 
L 680.65333 79.245397 
L 681.68831 79.962218 
L 682.723291 79.841446 
L 683.758271 80.629451 
L 684.793251 75.239593 
L 685.828231 73.455153 
L 686.863211 73.434873 
L 687.898192 72.556627 
L 689.968152 72.269992 
L 692.038113 76.752238 
L 693.073093 75.063209 
L 694.108073 82.490192 
L 697.213014 84.182059 
L 698.247994 90.319716 
L 699.282974 88.399305 
L 700.317955 96.049732 
L 701.352935 94.992047 
L 702.387915 95.608906 
L 703.422895 96.637946 
L 704.457875 98.449009 
L 705.492856 103.228811 
L 706.527836 103.008495 
L 707.562816 100.535669 
L 708.597796 102.000883 
L 709.632777 99.510081 
L 710.667757 102.522112 
L 711.702737 103.366134 
L 712.737717 101.535124 
L 713.772698 97.206988 
L 714.807678 101.822821 
L 715.842658 103.620068 
L 716.877638 108.368952 
L 717.912619 109.927313 
L 718.947599 109.748603 
L 719.982579 108.07226 
L 721.017559 104.625079 
L 722.05254 107.691127 
L 723.08752 107.695713 
L 724.1225 109.6427 
L 725.15748 109.527609 
L 726.19246 108.462328 
L 727.227441 107.033047 
L 728.262421 109.461954 
L 729.297401 110.044217 
L 730.332381 109.922162 
L 732.402342 99.870199 
L 733.437322 101.25173 
L 734.472302 105.159051 
L 735.507283 107.274538 
L 736.542263 105.952923 
L 737.577243 104.981634 
L 738.612223 106.947873 
L 739.647204 107.118131 
L 740.682184 108.773541 
L 741.717164 109.708547 
L 742.752144 114.708897 
L 743.787125 116.284223 
L 744.822105 118.77627 
L 745.857085 119.028861 
L 746.892065 121.615955 
L 747.927045 126.692271 
L 747.927045 126.692271 
" clip-path="url(#pcc8c63263c)" style="fill: none; stroke: #cc6677; stroke-width: 1.8; stroke-linecap: square"/>
   </g>
   <g id="patch_6">
    <path d="M 422.995 242.44 
L 422.995 7.2 
" style="fill: none; stroke: #252525; stroke-width: 0.8; stroke-linejoin: miter; stroke-linecap: square"/>
   </g>
   <g id="patch_7">
    <path d="M 422.995 242.44 
L 763.4 242.44 
" style="fill: none; stroke: #252525; stroke-width: 0.8; stroke-linejoin: miter; stroke-linecap: square"/>
   </g>
  </g>
 </g>
 <defs>
  <clipPath id="pe730fdd09c">
   <rect x="39.55" y="7.2" width="340.405" height="235.24"/>
  </clipPath>
  <clipPath id="pcc8c63263c">
   <rect x="422.995" y="7.2" width="340.405" height="235.24"/>
  </clipPath>
 </defs>
</svg>
