<?xml version="1.0" encoding="utf-8" standalone="no"?>
<!DOCTYPE svg PUBLIC "-//W3C//DTD SVG 1.1//EN"
  "http://www.w3.org/Graphics/SVG/1.1/DTD/svg11.dtd">
<svg xmlns:xlink="http://www.w3.org/1999/xlink" width="618.515pt" height="350.306pt" viewBox="0 0 618.515 350.306" xmlns="http://www.w3.org/2000/svg" version="1.1">
 <metadata>
  <rdf:RDF xmlns:dc="http://purl.org/dc/elements/1.1/" xmlns:cc="http://creativecommons.org/ns#" xmlns:rdf="http://www.w3.org/1999/02/22-rdf-syntax-ns#">
   <cc:Work>
    <dc:type rdf:resource="http://purl.org/dc/dcmitype/StillImage"/>
    <dc:date>2026-09-03T15:46:19.658492</dc:date>
    <dc:format>image/svg+xml</dc:format>
    <dc:creator>
     <cc:Agent>
      <dc:title>Matplotlib v3.5.1, https://matplotlib.org/</dc:title>
     </cc:Agent>
    </dc:creator>
   </cc:Work>
  </rdf:RDF>
 </metadata>
 <defs>
  <style type="text/css">*{stroke-linejoin: round; stroke-linecap: butt}</style>
 </defs>
 <g id="figure_1">
  <g id="patch_1">
   <path d="M -0 350.306 
L 618.515 350.306 
L 618.515 0 
L -0 0 
z
" style="fill: #ffffff"/>
  </g>
  <g id="axes_1">
   <g id="patch_2">
    <path d="M 42.155 325.3435 
L 611.315 325.3435 
L 611.315 25.9675 
L 42.155 25.9675 
z
" style="fill: #ffffff"/>
   </g>
   <g id="matplotlib.axis_1">
    <g id="xtick_1">
     <g id="line2d_1">
      <defs>
       <path id="m4850c19649" d="M 0 0 
L 0 3.5 
" style="stroke: #243447; stroke-width: 0.8"/>
      </defs>
      <g>
       <use xlink:href="#m4850c19649" x="61.286429" y="325.3435" style="fill: #243447; stroke: #243447; stroke-width: 0.8"/>
      </g>
     </g>
     <g id="text_1">
      <!-- 曾到达目标区 -->
      <g style="fill: #243447" transform="translate(29.786429 340.700844)scale(0.105 -0.105)">
       <defs>
        <path id="NotoSansCJKjp-Regular-66fe" d="M 4589 1491 
L 4589 960 
L 1856 960 
L 1856 1491 
L 4589 1491 
z
M 1856 90 
L 1856 608 
L 4589 608 
L 4589 90 
L 1856 90 
z
M 1408 -474 
L 1856 -474 
L 1856 -288 
L 4589 -288 
L 4589 -474 
L 5056 -474 
L 5056 1862 
L 1408 1862 
L 1408 -474 
z
M 1818 3398 
C 1984 3162 2150 2842 2208 2630 
L 2547 2771 
C 2490 2976 2317 3290 2138 3520 
L 1818 3398 
z
M 4051 2624 
C 4205 2829 4384 3136 4544 3430 
L 4160 3552 
C 4064 3315 3878 2957 3731 2733 
L 4051 2624 
z
M 4922 2579 
L 3379 2579 
L 3379 3635 
L 4922 3635 
L 4922 2579 
z
M 1504 3635 
L 2970 3635 
L 2970 2579 
L 1504 2579 
L 1504 3635 
z
M 2515 5197 
L 2515 4794 
L 4090 4794 
C 4282 4499 4544 4218 4832 3968 
L 1574 3968 
C 1882 4256 2157 4582 2362 4928 
L 1920 5075 
C 1562 4461 915 3923 243 3590 
C 346 3501 506 3309 563 3219 
C 742 3322 922 3437 1094 3565 
L 1094 2240 
L 5357 2240 
L 5357 3584 
C 5523 3482 5690 3392 5856 3315 
C 5920 3437 6061 3629 6163 3718 
C 5446 3994 4717 4557 4384 5197 
L 2515 5197 
z
" transform="scale(0.015625)"/>
        <path id="NotoSansCJKjp-Regular-5230" d="M 2214 416 
L 2214 1478 
L 3418 1478 
L 3418 1914 
L 2214 1914 
L 2214 2675 
L 1754 2675 
L 1754 1914 
L 531 1914 
L 531 1478 
L 1754 1478 
L 1754 358 
C 1190 288 678 224 275 179 
L 352 -294 
C 1197 -173 2445 0 3635 173 
L 3622 602 
L 2214 416 
z
M 2362 3981 
C 2528 3782 2707 3552 2867 3322 
C 2355 3296 1850 3277 1395 3258 
C 1574 3635 1760 4109 1920 4512 
L 3610 4512 
L 3610 4934 
L 346 4934 
L 346 4512 
L 1389 4512 
C 1267 4115 1088 3616 915 3238 
L 333 3213 
L 371 2758 
C 1101 2803 2131 2854 3136 2925 
C 3226 2778 3296 2643 3354 2528 
L 3725 2752 
C 3546 3142 3098 3738 2714 4179 
L 2362 3981 
z
M 4339 4589 
L 3885 4589 
L 3885 1069 
L 4339 1069 
L 4339 4589 
z
M 5389 5178 
L 5389 154 
C 5389 32 5350 0 5235 -6 
C 5114 -6 4710 -13 4294 6 
C 4358 -134 4429 -358 4454 -486 
C 4973 -486 5350 -480 5562 -403 
C 5773 -320 5850 -173 5850 154 
L 5850 5178 
L 5389 5178 
z
" transform="scale(0.015625)"/>
        <path id="NotoSansCJKjp-Regular-8fbe" d="M 1997 3853 
L 1997 3405 
L 3603 3405 
C 3462 2240 3072 1395 1933 890 
C 2042 813 2182 640 2246 525 
C 3270 1005 3738 1747 3955 2739 
C 4262 1658 4806 934 5786 544 
C 5850 672 5978 851 6086 947 
C 5005 1325 4474 2163 4230 3405 
L 5965 3405 
L 5965 3853 
L 4109 3853 
C 4141 4314 4154 4806 4160 5338 
L 3686 5338 
C 3680 4800 3674 4307 3642 3853 
L 1997 3853 
z
M 2042 4493 
C 1818 4742 1357 5069 966 5267 
L 646 4979 
C 1037 4762 1491 4416 1702 4166 
L 2042 4493 
z
M 1837 3232 
C 1600 3488 1107 3808 698 3994 
L 384 3686 
C 806 3482 1286 3149 1517 2893 
L 1837 3232 
z
M 1715 2400 
L 346 2400 
L 346 1958 
L 1254 1958 
L 1254 768 
C 928 499 557 230 256 38 
L 506 -429 
C 851 -154 1190 115 1504 390 
C 1914 -102 2483 -333 3315 -371 
C 4006 -390 5318 -378 6003 -352 
C 6029 -205 6106 13 6163 122 
C 5414 70 3994 58 3309 83 
C 2573 109 2016 326 1715 800 
L 1715 2400 
z
" transform="scale(0.015625)"/>
        <path id="NotoSansCJKjp-Regular-76ee" d="M 1498 448 
L 1498 1498 
L 4845 1498 
L 4845 448 
L 1498 448 
z
M 4845 3002 
L 4845 1952 
L 1498 1952 
L 1498 3002 
L 4845 3002 
z
M 4845 4493 
L 4845 3456 
L 1498 3456 
L 1498 4493 
L 4845 4493 
z
M 1030 4954 
L 1030 -454 
L 1498 -454 
L 1498 -19 
L 4845 -19 
L 4845 -454 
L 5338 -454 
L 5338 4954 
L 1030 4954 
z
" transform="scale(0.015625)"/>
        <path id="NotoSansCJKjp-Regular-6807" d="M 5747 4864 
L 2976 4864 
L 2976 4416 
L 5747 4416 
L 5747 4864 
z
M 2637 2304 
C 2515 2470 1971 3162 1779 3392 
L 1779 3558 
L 2605 3558 
L 2605 4006 
L 1779 4006 
L 1779 5350 
L 1306 5350 
L 1306 4006 
L 339 4006 
L 339 3558 
L 1203 3558 
C 998 2765 582 1856 173 1376 
C 262 1261 390 1069 442 934 
C 768 1344 1075 2010 1306 2694 
L 1306 -486 
L 1779 -486 
L 1779 2842 
C 1990 2528 2253 2131 2355 1926 
L 2637 2304 
z
M 3142 2189 
C 2976 1510 2688 826 2336 378 
C 2445 326 2630 192 2714 128 
C 3059 614 3379 1357 3578 2093 
L 3142 2189 
z
M 6086 2899 
L 6086 3347 
L 2701 3347 
L 2701 2899 
L 4064 2899 
L 4064 122 
C 4064 38 4038 19 3942 13 
C 3859 6 3565 6 3232 19 
C 3290 -122 3360 -326 3379 -467 
C 3827 -467 4122 -461 4301 -371 
C 4486 -294 4538 -154 4538 115 
L 4538 2899 
L 6086 2899 
z
M 4973 2080 
C 5274 1453 5568 621 5658 122 
L 6099 275 
C 5990 781 5677 1587 5370 2202 
L 4973 2080 
z
" transform="scale(0.015625)"/>
        <path id="NotoSansCJKjp-Regular-533a" d="M 6067 320 
L 1094 320 
L 1094 4506 
L 5920 4506 
L 5920 4960 
L 621 4960 
L 621 -499 
L 1094 -499 
L 1094 -128 
L 6067 -128 
L 6067 320 
z
M 5280 1203 
C 4960 1594 4467 2054 3910 2502 
C 4314 3008 4678 3552 4986 4128 
L 4531 4282 
C 4262 3757 3930 3258 3546 2790 
C 3066 3162 2554 3520 2080 3814 
L 1747 3514 
C 2234 3200 2758 2829 3245 2438 
C 2714 1856 2112 1357 1478 973 
C 1594 883 1779 704 1862 608 
C 2470 1018 3066 1542 3603 2144 
C 4141 1683 4608 1229 4909 845 
L 5280 1203 
z
" transform="scale(0.015625)"/>
       </defs>
       <use xlink:href="#NotoSansCJKjp-Regular-66fe"/>
       <use xlink:href="#NotoSansCJKjp-Regular-5230" x="99.999985"/>
       <use xlink:href="#NotoSansCJKjp-Regular-8fbe" x="199.999969"/>
       <use xlink:href="#NotoSansCJKjp-Regular-76ee" x="299.999954"/>
       <use xlink:href="#NotoSansCJKjp-Regular-6807" x="399.999939"/>
       <use xlink:href="#NotoSansCJKjp-Regular-533a" x="499.999924"/>
      </g>
     </g>
    </g>
    <g id="xtick_2">
     <g id="line2d_2">
      <g>
       <use xlink:href="#m4850c19649" x="220.715" y="325.3435" style="fill: #243447; stroke: #243447; stroke-width: 0.8"/>
      </g>
     </g>
     <g id="text_2">
      <!-- 末段仍在目标区 -->
      <g style="fill: #243447" transform="translate(183.965 340.700844)scale(0.105 -0.105)">
       <defs>
        <path id="NotoSansCJKjp-Regular-672b" d="M 5677 2227 
L 5677 2694 
L 3437 2694 
L 3437 3808 
L 6003 3808 
L 6003 4275 
L 3437 4275 
L 3437 5357 
L 2944 5357 
L 2944 4275 
L 422 4275 
L 422 3808 
L 2944 3808 
L 2944 2694 
L 749 2694 
L 749 2227 
L 2662 2227 
C 2093 1427 1139 659 256 275 
C 365 179 518 -13 602 -128 
C 1434 294 2330 1062 2944 1907 
L 2944 -486 
L 3437 -486 
L 3437 1939 
C 4058 1101 4966 307 5805 -122 
C 5888 13 6048 198 6157 294 
C 5286 672 4326 1440 3738 2227 
L 5677 2227 
z
" transform="scale(0.015625)"/>
        <path id="NotoSansCJKjp-Regular-6bb5" d="M 3808 4666 
L 4813 4666 
L 4813 3546 
C 4813 3194 4851 3085 4941 3008 
C 5024 2925 5178 2893 5293 2893 
L 5619 2893 
C 5722 2893 5850 2912 5920 2957 
C 6010 2995 6074 3059 6112 3168 
C 6144 3270 6163 3558 6176 3808 
C 6054 3840 5894 3917 5811 3987 
C 5811 3731 5798 3539 5786 3443 
C 5773 3366 5747 3322 5715 3302 
C 5690 3290 5632 3283 5581 3283 
L 5395 3283 
C 5350 3283 5318 3290 5293 3309 
C 5261 3334 5254 3398 5254 3520 
L 5254 5088 
L 3366 5088 
L 3366 4186 
C 3366 3763 3290 3302 2720 2950 
C 2810 2886 2982 2714 3040 2624 
C 3680 3027 3808 3654 3808 4173 
L 3808 4666 
z
M 2925 915 
L 2899 1357 
C 2323 1254 1734 1152 1210 1069 
L 1210 2042 
L 2733 2042 
L 2733 2483 
L 1210 2483 
L 1210 3264 
L 2682 3264 
L 2682 3699 
L 1210 3699 
L 1210 4435 
C 1811 4582 2464 4781 2938 5011 
L 2528 5350 
C 2182 5152 1587 4941 1018 4787 
L 762 4877 
L 762 992 
L 237 909 
L 320 448 
L 762 525 
L 762 -480 
L 1210 -480 
L 1210 608 
L 2925 915 
z
M 5235 2099 
C 5043 1638 4768 1254 4429 928 
C 4109 1261 3859 1658 3686 2099 
L 5235 2099 
z
M 5542 2554 
L 5453 2534 
L 3002 2534 
L 3002 2099 
L 3578 2099 
L 3264 2016 
C 3462 1491 3731 1024 4077 640 
C 3622 301 3078 64 2509 -83 
C 2605 -186 2720 -378 2771 -499 
C 3373 -320 3930 -58 4416 307 
C 4819 -45 5306 -307 5862 -480 
C 5926 -352 6061 -160 6176 -70 
C 5632 77 5165 307 4774 621 
C 5248 1082 5619 1677 5843 2432 
L 5542 2554 
z
" transform="scale(0.015625)"/>
        <path id="NotoSansCJKjp-Regular-4ecd" d="M 1786 5338 
C 1414 4371 794 3424 147 2816 
C 230 2714 371 2458 416 2355 
C 659 2598 896 2880 1126 3200 
L 1126 -474 
L 1574 -474 
L 1574 3885 
C 1824 4301 2048 4755 2227 5203 
L 1786 5338 
z
M 4960 3200 
C 5018 3750 5069 4378 5107 4902 
L 2227 4902 
L 2227 4461 
L 2963 4461 
C 2938 2829 2835 851 1734 -186 
C 1856 -262 2016 -403 2099 -506 
C 3270 640 3405 2707 3443 4461 
L 4621 4461 
C 4570 3738 4486 2906 4410 2374 
L 4864 2342 
C 4883 2464 4896 2605 4915 2758 
L 5581 2758 
C 5491 947 5382 237 5210 64 
C 5139 -13 5056 -26 4934 -26 
C 4794 -26 4422 -19 4026 13 
C 4109 -102 4166 -307 4173 -442 
C 4563 -467 4922 -467 5126 -454 
C 5344 -429 5478 -390 5606 -230 
C 5843 26 5939 826 6054 2976 
C 6061 3040 6061 3200 6061 3200 
L 4960 3200 
z
" transform="scale(0.015625)"/>
        <path id="NotoSansCJKjp-Regular-5728" d="M 4294 1907 
L 5734 1907 
L 5734 2355 
L 4294 2355 
L 4294 3578 
L 3821 3578 
L 3821 2355 
L 2387 2355 
L 2387 1907 
L 3821 1907 
L 3821 109 
L 2138 109 
L 2138 -339 
L 5984 -339 
L 5984 109 
L 4294 109 
L 4294 1907 
z
M 2688 4365 
C 2803 4653 2912 4947 2995 5235 
L 2509 5357 
C 2419 5030 2304 4691 2170 4365 
L 422 4365 
L 422 3910 
L 1958 3910 
C 1562 3098 998 2342 269 1824 
C 346 1722 467 1523 512 1395 
C 781 1587 1030 1798 1254 2042 
L 1254 -461 
L 1722 -461 
L 1722 2605 
C 2022 3014 2272 3450 2496 3910 
L 5984 3910 
L 5984 4365 
L 2688 4365 
z
" transform="scale(0.015625)"/>
       </defs>
       <use xlink:href="#NotoSansCJKjp-Regular-672b"/>
       <use xlink:href="#NotoSansCJKjp-Regular-6bb5" x="99.999985"/>
       <use xlink:href="#NotoSansCJKjp-Regular-4ecd" x="199.999969"/>
       <use xlink:href="#NotoSansCJKjp-Regular-5728" x="299.999954"/>
       <use xlink:href="#NotoSansCJKjp-Regular-76ee" x="399.999939"/>
       <use xlink:href="#NotoSansCJKjp-Regular-6807" x="499.999924"/>
       <use xlink:href="#NotoSansCJKjp-Regular-533a" x="599.999908"/>
      </g>
     </g>
    </g>
    <g id="xtick_3">
     <g id="line2d_3">
      <g>
       <use xlink:href="#m4850c19649" x="380.143571" y="325.3435" style="fill: #243447; stroke: #243447; stroke-width: 0.8"/>
      </g>
     </g>
     <g id="text_3">
      <!-- 稳定保持 -->
      <g style="fill: #243447" transform="translate(359.143571 340.700844)scale(0.105 -0.105)">
       <defs>
        <path id="NotoSansCJKjp-Regular-7a33" d="M 4717 4538 
C 4602 4333 4454 4102 4307 3923 
L 2880 3923 
C 3078 4115 3258 4326 3411 4538 
L 4717 4538 
z
M 2726 3520 
L 5197 3520 
L 5197 2989 
L 2810 2989 
L 2810 2618 
L 5197 2618 
L 5197 2061 
L 2637 2061 
L 2637 1664 
L 5626 1664 
L 5626 3923 
L 4794 3923 
C 4992 4179 5184 4480 5325 4749 
L 5030 4941 
L 4960 4922 
L 3661 4922 
C 3731 5050 3802 5178 3859 5306 
L 3418 5382 
C 3213 4915 2816 4352 2240 3930 
C 2336 3872 2470 3725 2534 3629 
C 2598 3680 2662 3725 2726 3782 
L 2726 3520 
z
M 4774 781 
C 4634 998 4339 1325 4102 1568 
L 3770 1376 
C 4006 1126 4294 787 4429 563 
L 4774 781 
z
M 2464 1926 
C 2355 2093 1894 2733 1722 2938 
L 1722 3085 
L 2458 3085 
L 2458 3533 
L 1722 3533 
L 1722 4672 
C 1984 4736 2234 4819 2445 4915 
L 2144 5306 
C 1741 5101 1050 4915 448 4800 
C 499 4698 570 4531 589 4422 
C 806 4461 1043 4506 1274 4557 
L 1274 3533 
L 378 3533 
L 378 3085 
L 1210 3085 
C 992 2362 595 1536 237 1082 
C 320 960 442 755 486 621 
C 774 1005 1050 1594 1274 2208 
L 1274 -499 
L 1722 -499 
L 1722 2368 
C 1888 2074 2086 1715 2170 1530 
L 2464 1926 
z
M 2394 -179 
C 2592 166 2797 685 2944 1037 
L 2573 1203 
C 2445 858 2221 346 2010 32 
L 2394 -179 
z
M 3859 -6 
C 3616 -6 3578 19 3578 166 
L 3578 1203 
L 3142 1203 
L 3142 166 
C 3142 -269 3277 -390 3814 -390 
L 4717 -390 
C 5146 -390 5274 -218 5318 474 
C 5197 506 5024 563 4928 634 
C 4909 70 4870 -6 4672 -6 
L 3859 -6 
z
M 5165 1133 
C 5389 742 5638 198 5741 -128 
L 6131 26 
C 6029 346 5773 864 5536 1254 
L 5165 1133 
z
" transform="scale(0.015625)"/>
        <path id="NotoSansCJKjp-Regular-5b9a" d="M 1011 4173 
L 5370 4173 
L 5370 3238 
L 5856 3238 
L 5856 4621 
L 3437 4621 
L 3437 5350 
L 2944 5350 
L 2944 4621 
L 544 4621 
L 544 3238 
L 1011 3238 
L 1011 4173 
z
M 3437 1453 
L 5331 1453 
L 5331 1894 
L 3437 1894 
L 3437 2957 
L 5069 2957 
L 5069 3405 
L 1363 3405 
L 1363 2957 
L 2950 2957 
L 2950 275 
C 2426 474 2016 838 1773 1510 
C 1837 1779 1888 2061 1926 2362 
L 1440 2406 
C 1299 1261 954 352 243 -198 
C 358 -269 557 -435 634 -518 
C 1050 -154 1363 320 1587 909 
C 2170 -173 3123 -403 4448 -403 
L 5933 -403 
C 5952 -262 6035 -38 6112 77 
C 5805 70 4704 70 4474 70 
C 4102 70 3750 90 3437 147 
L 3437 1453 
z
" transform="scale(0.015625)"/>
        <path id="NotoSansCJKjp-Regular-4fdd" d="M 1779 5338 
C 1414 4371 800 3424 166 2816 
C 250 2707 384 2458 435 2355 
C 666 2592 902 2867 1120 3174 
L 1120 -474 
L 1574 -474 
L 1574 3872 
C 1824 4288 2042 4742 2227 5203 
L 1779 5338 
z
M 2886 4627 
L 5261 4627 
L 5261 3456 
L 2886 3456 
L 2886 4627 
z
M 6086 1805 
L 6086 2240 
L 4294 2240 
L 4294 3034 
L 5734 3034 
L 5734 5056 
L 2438 5056 
L 2438 3034 
L 3821 3034 
L 3821 2240 
L 1965 2240 
L 1965 1805 
L 3546 1805 
C 3117 1126 2438 493 1779 166 
C 1888 77 2029 -96 2112 -211 
C 2733 147 3373 787 3821 1491 
L 3821 -493 
L 4294 -493 
L 4294 1510 
C 4730 813 5344 147 5914 -224 
C 5997 -102 6150 70 6253 154 
C 5638 486 4992 1133 4570 1805 
L 6086 1805 
z
" transform="scale(0.015625)"/>
        <path id="NotoSansCJKjp-Regular-6301" d="M 2182 2573 
L 1549 2374 
L 1549 3629 
L 2221 3629 
L 2221 4070 
L 1549 4070 
L 1549 5350 
L 1107 5350 
L 1107 4070 
L 288 4070 
L 288 3629 
L 1107 3629 
L 1107 2246 
C 762 2138 448 2042 198 1971 
L 320 1517 
C 557 1587 826 1670 1107 1766 
L 1107 83 
C 1107 -6 1075 -32 992 -32 
C 922 -38 672 -38 397 -26 
C 461 -160 518 -352 538 -474 
C 941 -480 1184 -461 1331 -384 
C 1491 -307 1549 -179 1549 83 
L 1549 1914 
L 2246 2138 
L 2182 2573 
z
M 2867 1306 
C 3142 973 3450 493 3565 186 
L 3962 422 
C 3827 730 3514 1190 3232 1523 
L 2867 1306 
z
M 6125 2842 
L 6125 3283 
L 4454 3283 
L 4454 4096 
L 5818 4096 
L 5818 4531 
L 4454 4531 
L 4454 5325 
L 4000 5325 
L 4000 4531 
L 2643 4531 
L 2643 4096 
L 4000 4096 
L 4000 3283 
L 2317 3283 
L 2317 2842 
L 4845 2842 
L 4845 2138 
L 2394 2138 
L 2394 1702 
L 4845 1702 
L 4845 90 
C 4845 0 4819 -26 4717 -32 
C 4627 -38 4288 -38 3930 -26 
C 3994 -160 4058 -346 4077 -486 
C 4544 -486 4858 -480 5050 -403 
C 5235 -333 5299 -205 5299 90 
L 5299 1702 
L 6086 1702 
L 6086 2138 
L 5299 2138 
L 5299 2842 
L 6125 2842 
z
" transform="scale(0.015625)"/>
       </defs>
       <use xlink:href="#NotoSansCJKjp-Regular-7a33"/>
       <use xlink:href="#NotoSansCJKjp-Regular-5b9a" x="99.999985"/>
       <use xlink:href="#NotoSansCJKjp-Regular-4fdd" x="199.999969"/>
       <use xlink:href="#NotoSansCJKjp-Regular-6301" x="299.999954"/>
      </g>
     </g>
    </g>
    <g id="xtick_4">
     <g id="line2d_4">
      <g>
       <use xlink:href="#m4850c19649" x="539.572143" y="325.3435" style="fill: #243447; stroke: #243447; stroke-width: 0.8"/>
      </g>
     </g>
     <g id="text_4">
      <!-- 稳定运输 -->
      <g style="fill: #243447" transform="translate(518.572143 340.700844)scale(0.105 -0.105)">
       <defs>
        <path id="NotoSansCJKjp-Regular-8fd0" d="M 5658 4986 
L 2458 4986 
L 2458 4544 
L 5658 4544 
L 5658 4986 
z
M 2099 1267 
L 2170 800 
C 3014 870 4256 979 5440 1094 
C 5542 909 5626 730 5683 576 
L 6093 800 
C 5888 1325 5370 2099 4877 2682 
L 4493 2490 
C 4742 2195 4992 1850 5203 1510 
C 4486 1453 3770 1395 3149 1344 
C 3392 1843 3661 2496 3878 3053 
L 6125 3053 
L 6125 3501 
L 2054 3501 
L 2054 3053 
L 3315 3053 
C 3155 2490 2893 1798 2662 1306 
L 2099 1267 
z
M 1965 4512 
C 1754 4762 1286 5075 909 5274 
L 595 4979 
C 979 4768 1427 4435 1632 4186 
L 1965 4512 
z
M 1779 3264 
C 1536 3507 1056 3814 659 3994 
L 346 3686 
C 749 3488 1222 3168 1453 2925 
L 1779 3264 
z
M 1619 2400 
L 320 2400 
L 320 1958 
L 1158 1958 
L 1158 768 
C 858 499 518 230 237 38 
L 486 -429 
C 813 -154 1126 115 1414 390 
C 1818 -102 2400 -333 3238 -371 
C 3949 -390 5286 -378 5990 -352 
C 6016 -205 6086 13 6150 122 
C 5389 70 3936 58 3232 77 
C 2490 109 1926 326 1619 800 
L 1619 2400 
z
" transform="scale(0.015625)"/>
        <path id="NotoSansCJKjp-Regular-8f93" d="M 2323 1536 
L 1837 1421 
L 1837 2208 
L 2342 2208 
L 2342 2643 
L 1837 2643 
L 1837 3597 
L 1421 3597 
L 1421 2643 
L 864 2643 
C 1024 3085 1184 3610 1312 4154 
L 2355 4154 
L 2355 4589 
L 1408 4589 
C 1453 4819 1498 5050 1530 5274 
L 1088 5344 
C 1062 5088 1024 4838 979 4589 
L 320 4589 
L 320 4154 
L 890 4154 
C 787 3629 659 3200 602 3034 
C 512 2752 435 2547 333 2515 
C 384 2413 454 2202 474 2112 
C 531 2170 717 2208 922 2208 
L 1421 2208 
L 1421 1325 
C 992 1229 602 1133 294 1075 
L 397 634 
C 698 704 1050 794 1421 890 
L 1421 -486 
L 1837 -486 
L 1837 998 
L 2362 1133 
L 2323 1536 
z
M 3053 1203 
L 3053 1728 
L 3930 1728 
L 3930 1203 
L 3053 1203 
z
M 3930 2592 
L 3930 2093 
L 3053 2093 
L 3053 2592 
L 3930 2592 
z
M 4326 2976 
L 2662 2976 
L 2662 -467 
L 3053 -467 
L 3053 845 
L 3930 845 
L 3930 13 
C 3930 -45 3917 -58 3859 -64 
C 3802 -64 3635 -64 3437 -58 
C 3494 -173 3546 -339 3558 -454 
C 3834 -454 4032 -448 4160 -378 
C 4294 -307 4326 -192 4326 13 
L 4326 2976 
z
M 5498 51 
C 5498 -26 5472 -45 5395 -45 
C 5312 -51 5062 -51 4768 -45 
C 4832 -160 4877 -326 4896 -435 
C 5274 -435 5523 -429 5683 -358 
C 5837 -294 5882 -179 5882 51 
L 5882 3091 
L 5498 3091 
L 5498 51 
z
M 5056 2861 
L 4685 2861 
L 4685 563 
L 5056 563 
L 5056 2861 
z
M 3232 3789 
C 3590 4045 3923 4352 4211 4685 
C 4531 4326 4890 4038 5280 3789 
L 3232 3789 
z
M 4205 5376 
C 3795 4704 3008 4077 2234 3718 
C 2349 3622 2477 3475 2541 3366 
C 2720 3456 2886 3552 3059 3667 
L 3059 3398 
L 5408 3398 
L 5414 3706 
C 5568 3610 5734 3520 5907 3430 
C 5971 3552 6099 3706 6208 3802 
C 5549 4090 4947 4448 4461 4992 
C 4506 5062 4557 5133 4602 5197 
L 4205 5376 
z
" transform="scale(0.015625)"/>
       </defs>
       <use xlink:href="#NotoSansCJKjp-Regular-7a33"/>
       <use xlink:href="#NotoSansCJKjp-Regular-5b9a" x="99.999985"/>
       <use xlink:href="#NotoSansCJKjp-Regular-8fd0" x="199.999969"/>
       <use xlink:href="#NotoSansCJKjp-Regular-8f93" x="299.999954"/>
      </g>
     </g>
    </g>
   </g>
   <g id="matplotlib.axis_2">
    <g id="ytick_1">
     <g id="line2d_5">
      <path d="M 42.155 325.3435 
L 611.315 325.3435 
" clip-path="url(#p3a86869cdc)" style="fill: none; stroke: #d9dee5; stroke-opacity: 0.7; stroke-width: 0.8; stroke-linecap: square"/>
     </g>
     <g id="line2d_6">
      <defs>
       <path id="m69319d7ed7" d="M 0 0 
L -3.5 0 
" style="stroke: #243447; stroke-width: 0.8"/>
      </defs>
      <g>
       <use xlink:href="#m69319d7ed7" x="42.155" y="325.3435" style="fill: #243447; stroke: #243447; stroke-width: 0.8"/>
      </g>
     </g>
     <g id="text_5">
      <!-- 0 -->
      <g style="fill: #243447" transform="translate(29.3275 329.522172)scale(0.105 -0.105)">
       <defs>
        <path id="NotoSansCJKjp-Regular-30" d="M 1779 -83 
C 2669 -83 3238 730 3238 2362 
C 3238 3987 2669 4781 1779 4781 
C 883 4781 314 3994 314 2362 
C 314 730 883 -83 1779 -83 
z
M 1779 384 
C 1242 384 883 979 883 2362 
C 883 3731 1242 4314 1779 4314 
C 2310 4314 2669 3731 2669 2362 
C 2669 979 2310 384 1779 384 
z
" transform="scale(0.015625)"/>
       </defs>
       <use xlink:href="#NotoSansCJKjp-Regular-30"/>
      </g>
     </g>
    </g>
    <g id="ytick_2">
     <g id="line2d_7">
      <path d="M 42.155 287.9215 
L 611.315 287.9215 
" clip-path="url(#p3a86869cdc)" style="fill: none; stroke: #d9dee5; stroke-opacity: 0.7; stroke-width: 0.8; stroke-linecap: square"/>
     </g>
     <g id="line2d_8">
      <g>
       <use xlink:href="#m69319d7ed7" x="42.155" y="287.9215" style="fill: #243447; stroke: #243447; stroke-width: 0.8"/>
      </g>
     </g>
     <g id="text_6">
      <!-- 10 -->
      <g style="fill: #243447" transform="translate(23.5 292.100172)scale(0.105 -0.105)">
       <defs>
        <path id="NotoSansCJKjp-Regular-31" d="M 563 0 
L 3136 0 
L 3136 486 
L 2195 486 
L 2195 4698 
L 1747 4698 
C 1491 4544 1190 4435 774 4358 
L 774 3987 
L 1606 3987 
L 1606 486 
L 563 486 
L 563 0 
z
" transform="scale(0.015625)"/>
       </defs>
       <use xlink:href="#NotoSansCJKjp-Regular-31"/>
       <use xlink:href="#NotoSansCJKjp-Regular-30" x="55.499985"/>
      </g>
     </g>
    </g>
    <g id="ytick_3">
     <g id="line2d_9">
      <path d="M 42.155 250.4995 
L 611.315 250.4995 
" clip-path="url(#p3a86869cdc)" style="fill: none; stroke: #d9dee5; stroke-opacity: 0.7; stroke-width: 0.8; stroke-linecap: square"/>
     </g>
     <g id="line2d_10">
      <g>
       <use xlink:href="#m69319d7ed7" x="42.155" y="250.4995" style="fill: #243447; stroke: #243447; stroke-width: 0.8"/>
      </g>
     </g>
     <g id="text_7">
      <!-- 20 -->
      <g style="fill: #243447" transform="translate(23.5 254.678172)scale(0.105 -0.105)">
       <defs>
        <path id="NotoSansCJKjp-Regular-32" d="M 282 0 
L 3232 0 
L 3232 506 
L 1933 506 
C 1696 506 1408 480 1165 461 
C 2266 1504 3002 2458 3002 3392 
C 3002 4230 2477 4781 1638 4781 
C 1043 4781 640 4506 256 4090 
L 595 3757 
C 851 4064 1184 4301 1568 4301 
C 2150 4301 2432 3910 2432 3373 
C 2432 2566 1754 1632 282 346 
L 282 0 
z
" transform="scale(0.015625)"/>
       </defs>
       <use xlink:href="#NotoSansCJKjp-Regular-32"/>
       <use xlink:href="#NotoSansCJKjp-Regular-30" x="55.499985"/>
      </g>
     </g>
    </g>
    <g id="ytick_4">
     <g id="line2d_11">
      <path d="M 42.155 213.0775 
L 611.315 213.0775 
" clip-path="url(#p3a86869cdc)" style="fill: none; stroke: #d9dee5; stroke-opacity: 0.7; stroke-width: 0.8; stroke-linecap: square"/>
     </g>
     <g id="line2d_12">
      <g>
       <use xlink:href="#m69319d7ed7" x="42.155" y="213.0775" style="fill: #243447; stroke: #243447; stroke-width: 0.8"/>
      </g>
     </g>
     <g id="text_8">
      <!-- 30 -->
      <g style="fill: #243447" transform="translate(23.5 217.256172)scale(0.105 -0.105)">
       <defs>
        <path id="NotoSansCJKjp-Regular-33" d="M 1690 -83 
C 2522 -83 3194 416 3194 1254 
C 3194 1894 2752 2317 2202 2445 
L 2202 2470 
C 2694 2656 3034 3034 3034 3603 
C 3034 4346 2458 4781 1670 4781 
C 1126 4781 710 4544 358 4218 
L 672 3846 
C 934 4115 1267 4301 1645 4301 
C 2131 4301 2438 4006 2438 3558 
C 2438 3053 2106 2662 1139 2662 
L 1139 2214 
C 2221 2214 2598 1837 2598 1280 
C 2598 736 2202 403 1645 403 
C 1114 403 755 653 480 941 
L 186 557 
C 493 224 954 -83 1690 -83 
z
" transform="scale(0.015625)"/>
       </defs>
       <use xlink:href="#NotoSansCJKjp-Regular-33"/>
       <use xlink:href="#NotoSansCJKjp-Regular-30" x="55.499985"/>
      </g>
     </g>
    </g>
    <g id="ytick_5">
     <g id="line2d_13">
      <path d="M 42.155 175.6555 
L 611.315 175.6555 
" clip-path="url(#p3a86869cdc)" style="fill: none; stroke: #d9dee5; stroke-opacity: 0.7; stroke-width: 0.8; stroke-linecap: square"/>
     </g>
     <g id="line2d_14">
      <g>
       <use xlink:href="#m69319d7ed7" x="42.155" y="175.6555" style="fill: #243447; stroke: #243447; stroke-width: 0.8"/>
      </g>
     </g>
     <g id="text_9">
      <!-- 40 -->
      <g style="fill: #243447" transform="translate(23.5 179.834172)scale(0.105 -0.105)">
       <defs>
        <path id="NotoSansCJKjp-Regular-34" d="M 736 1760 
L 1805 3360 
C 1939 3590 2067 3821 2182 4051 
L 2208 4051 
C 2195 3808 2176 3430 2176 3200 
L 2176 1760 
L 736 1760 
z
M 2176 0 
L 2726 0 
L 2726 1293 
L 3347 1293 
L 3347 1760 
L 2726 1760 
L 2726 4698 
L 2080 4698 
L 128 1677 
L 128 1293 
L 2176 1293 
L 2176 0 
z
" transform="scale(0.015625)"/>
       </defs>
       <use xlink:href="#NotoSansCJKjp-Regular-34"/>
       <use xlink:href="#NotoSansCJKjp-Regular-30" x="55.499985"/>
      </g>
     </g>
    </g>
    <g id="ytick_6">
     <g id="line2d_15">
      <path d="M 42.155 138.2335 
L 611.315 138.2335 
" clip-path="url(#p3a86869cdc)" style="fill: none; stroke: #d9dee5; stroke-opacity: 0.7; stroke-width: 0.8; stroke-linecap: square"/>
     </g>
     <g id="line2d_16">
      <g>
       <use xlink:href="#m69319d7ed7" x="42.155" y="138.2335" style="fill: #243447; stroke: #243447; stroke-width: 0.8"/>
      </g>
     </g>
     <g id="text_10">
      <!-- 50 -->
      <g style="fill: #243447" transform="translate(23.5 142.412172)scale(0.105 -0.105)">
       <defs>
        <path id="NotoSansCJKjp-Regular-35" d="M 1670 -83 
C 2464 -83 3206 499 3206 1530 
C 3206 2560 2573 3021 1792 3021 
C 1510 3021 1306 2950 1094 2835 
L 1210 4192 
L 2982 4192 
L 2982 4698 
L 698 4698 
L 550 2496 
L 864 2304 
C 1133 2483 1331 2579 1645 2579 
C 2234 2579 2618 2182 2618 1510 
C 2618 826 2170 403 1619 403 
C 1075 403 736 653 467 922 
L 179 538 
C 493 224 941 -83 1670 -83 
z
" transform="scale(0.015625)"/>
       </defs>
       <use xlink:href="#NotoSansCJKjp-Regular-35"/>
       <use xlink:href="#NotoSansCJKjp-Regular-30" x="55.499985"/>
      </g>
     </g>
    </g>
    <g id="ytick_7">
     <g id="line2d_17">
      <path d="M 42.155 100.8115 
L 611.315 100.8115 
" clip-path="url(#p3a86869cdc)" style="fill: none; stroke: #d9dee5; stroke-opacity: 0.7; stroke-width: 0.8; stroke-linecap: square"/>
     </g>
     <g id="line2d_18">
      <g>
       <use xlink:href="#m69319d7ed7" x="42.155" y="100.8115" style="fill: #243447; stroke: #243447; stroke-width: 0.8"/>
      </g>
     </g>
     <g id="text_11">
      <!-- 60 -->
      <g style="fill: #243447" transform="translate(23.5 104.990172)scale(0.105 -0.105)">
       <defs>
        <path id="NotoSansCJKjp-Regular-36" d="M 1875 2477 
C 2445 2477 2726 2074 2726 1440 
C 2726 800 2374 371 1926 371 
C 1338 371 986 902 915 1875 
C 1203 2304 1581 2477 1875 2477 
z
M 1926 -83 
C 2656 -83 3270 531 3270 1440 
C 3270 2419 2765 2912 1971 2912 
C 1600 2912 1190 2694 902 2342 
C 928 3802 1472 4294 2112 4294 
C 2400 4294 2682 4160 2867 3936 
L 3187 4301 
C 2931 4576 2579 4781 2093 4781 
C 1184 4781 358 4077 358 2240 
C 358 691 1024 -83 1926 -83 
z
" transform="scale(0.015625)"/>
       </defs>
       <use xlink:href="#NotoSansCJKjp-Regular-36"/>
       <use xlink:href="#NotoSansCJKjp-Regular-30" x="55.499985"/>
      </g>
     </g>
    </g>
    <g id="ytick_8">
     <g id="line2d_19">
      <path d="M 42.155 63.3895 
L 611.315 63.3895 
" clip-path="url(#p3a86869cdc)" style="fill: none; stroke: #d9dee5; stroke-opacity: 0.7; stroke-width: 0.8; stroke-linecap: square"/>
     </g>
     <g id="line2d_20">
      <g>
       <use xlink:href="#m69319d7ed7" x="42.155" y="63.3895" style="fill: #243447; stroke: #243447; stroke-width: 0.8"/>
      </g>
     </g>
     <g id="text_12">
      <!-- 70 -->
      <g style="fill: #243447" transform="translate(23.5 67.568172)scale(0.105 -0.105)">
       <defs>
        <path id="NotoSansCJKjp-Regular-37" d="M 1267 0 
L 1875 0 
C 1946 1837 2150 2931 3251 4339 
L 3251 4698 
L 314 4698 
L 314 4192 
L 2586 4192 
C 1670 2912 1344 1779 1267 0 
z
" transform="scale(0.015625)"/>
       </defs>
       <use xlink:href="#NotoSansCJKjp-Regular-37"/>
       <use xlink:href="#NotoSansCJKjp-Regular-30" x="55.499985"/>
      </g>
     </g>
    </g>
    <g id="ytick_9">
     <g id="line2d_21">
      <path d="M 42.155 25.9675 
L 611.315 25.9675 
" clip-path="url(#p3a86869cdc)" style="fill: none; stroke: #d9dee5; stroke-opacity: 0.7; stroke-width: 0.8; stroke-linecap: square"/>
     </g>
     <g id="line2d_22">
      <g>
       <use xlink:href="#m69319d7ed7" x="42.155" y="25.9675" style="fill: #243447; stroke: #243447; stroke-width: 0.8"/>
      </g>
     </g>
     <g id="text_13">
      <!-- 80 -->
      <g style="fill: #243447" transform="translate(23.5 30.146172)scale(0.105 -0.105)">
       <defs>
        <path id="NotoSansCJKjp-Regular-38" d="M 1786 -83 
C 2669 -83 3258 448 3258 1133 
C 3258 1773 2874 2125 2464 2362 
L 2464 2394 
C 2746 2611 3091 3034 3091 3526 
C 3091 4250 2605 4762 1805 4762 
C 1075 4762 518 4288 518 3571 
C 518 3078 806 2726 1152 2490 
L 1152 2458 
C 723 2227 288 1792 288 1165 
C 288 442 922 -83 1786 -83 
z
M 2106 2547 
C 1555 2765 1050 3008 1050 3571 
C 1050 4026 1363 4333 1798 4333 
C 2304 4333 2592 3955 2592 3494 
C 2592 3149 2426 2829 2106 2547 
z
M 1798 352 
C 1235 352 819 717 819 1216 
C 819 1664 1082 2035 1459 2278 
C 2125 2010 2701 1773 2701 1146 
C 2701 678 2336 352 1798 352 
z
" transform="scale(0.015625)"/>
       </defs>
       <use xlink:href="#NotoSansCJKjp-Regular-38"/>
       <use xlink:href="#NotoSansCJKjp-Regular-30" x="55.499985"/>
      </g>
     </g>
    </g>
    <g id="text_14">
     <!-- 通过比例（%） -->
     <g style="fill: #243447" transform="translate(16.75125 217.181125)rotate(-90)scale(0.12 -0.12)">
      <defs>
       <path id="NotoSansCJKjp-Regular-901a" d="M 3853 3392 
L 3853 2829 
L 2778 2829 
L 2778 3392 
L 3853 3392 
z
M 5395 2829 
L 4282 2829 
L 4282 3392 
L 5395 3392 
L 5395 2829 
z
M 4282 1894 
L 4282 2477 
L 5395 2477 
L 5395 1894 
L 4282 1894 
z
M 2778 1894 
L 2778 2477 
L 3853 2477 
L 3853 1894 
L 2778 1894 
z
M 2778 1530 
L 3853 1530 
L 3853 493 
L 4282 493 
L 4282 1530 
L 5395 1530 
L 5395 947 
C 5395 864 5370 838 5286 838 
C 5210 838 4934 832 4634 845 
C 4691 736 4749 570 4768 454 
C 5197 454 5466 461 5632 525 
C 5798 595 5850 710 5850 941 
L 5850 3757 
L 5043 3757 
C 4902 3834 4736 3923 4550 4013 
C 5024 4250 5504 4570 5843 4890 
L 5549 5114 
L 5459 5088 
L 2336 5088 
L 2336 4710 
L 5005 4710 
C 4749 4525 4435 4339 4128 4205 
C 3827 4333 3514 4461 3238 4557 
L 2938 4288 
C 3322 4147 3776 3942 4154 3757 
L 2330 3757 
L 2330 467 
L 2778 467 
L 2778 1530 
z
M 1811 4179 
C 1606 4493 1133 4922 730 5210 
L 397 4915 
C 800 4614 1261 4166 1459 3853 
L 1811 4179 
z
M 1670 2848 
L 288 2848 
L 288 2400 
L 1210 2400 
L 1210 755 
C 883 493 518 224 211 32 
L 442 -429 
C 806 -160 1146 115 1472 397 
C 1862 -109 2438 -333 3277 -365 
C 3981 -397 5338 -384 6048 -352 
C 6074 -211 6144 6 6195 115 
C 5434 64 3974 45 3277 77 
C 2528 102 1978 314 1670 794 
L 1670 2848 
z
" transform="scale(0.015625)"/>
       <path id="NotoSansCJKjp-Regular-8fc7" d="M 4602 1229 
C 4602 1120 4557 1082 4429 1075 
C 4301 1075 3853 1075 3392 1088 
C 3462 954 3539 742 3558 608 
C 4160 608 4550 621 4768 698 
C 4992 768 5075 909 5075 1229 
L 5075 3757 
L 5958 3757 
L 5958 4211 
L 5075 4211 
L 5075 5331 
L 4602 5331 
L 4602 4211 
L 2144 4211 
L 2144 3757 
L 4602 3757 
L 4602 1229 
z
M 2445 3046 
C 2771 2650 3155 2093 3334 1760 
L 3738 2003 
C 3552 2336 3142 2861 2822 3251 
L 2445 3046 
z
M 1862 4122 
C 1670 4422 1248 4864 896 5184 
L 531 4941 
C 883 4614 1293 4147 1472 3846 
L 1862 4122 
z
M 1690 2970 
L 346 2970 
L 346 2522 
L 1222 2522 
L 1222 858 
C 941 749 602 467 262 102 
L 595 -346 
C 922 90 1229 467 1440 467 
C 1581 467 1792 256 2054 90 
C 2496 -192 3027 -262 3814 -262 
C 4429 -262 5549 -230 6003 -198 
C 6010 -51 6086 186 6150 314 
C 5530 250 4576 192 3827 192 
C 3123 192 2573 243 2163 499 
C 1946 634 1811 749 1690 826 
L 1690 2970 
z
" transform="scale(0.015625)"/>
       <path id="NotoSansCJKjp-Regular-6bd4" d="M 1606 2931 
L 3040 2931 
L 3040 3386 
L 1606 3386 
L 1606 5318 
L 1126 5318 
L 1126 320 
C 813 250 518 192 269 147 
L 422 -346 
C 1210 -160 2285 96 3290 346 
L 3245 800 
C 2701 672 2131 538 1606 422 
L 1606 2931 
z
M 4358 102 
C 4051 102 4000 166 4000 518 
L 4000 2579 
C 4672 2867 5395 3219 5926 3565 
L 5574 3968 
C 5197 3667 4589 3322 4000 3040 
L 4000 5318 
L 3520 5318 
L 3520 525 
C 3520 -166 3686 -352 4307 -352 
L 5376 -352 
C 5984 -352 6112 6 6176 1050 
C 6042 1082 5850 1158 5728 1254 
C 5690 333 5645 102 5350 102 
L 4358 102 
z
" transform="scale(0.015625)"/>
       <path id="NotoSansCJKjp-Regular-4f8b" d="M 1504 5331 
C 1197 4352 691 3379 141 2746 
C 218 2630 346 2381 390 2266 
C 602 2515 800 2803 992 3117 
L 992 -486 
L 1434 -486 
L 1434 3942 
C 1632 4352 1805 4781 1946 5210 
L 1504 5331 
z
M 3584 3283 
C 3514 2797 3411 2355 3277 1965 
C 3072 2163 2752 2406 2470 2592 
C 2560 2816 2643 3046 2714 3283 
L 3584 3283 
z
M 1971 4602 
L 2547 4602 
C 2413 3674 2138 2573 1574 1901 
C 1664 1824 1798 1670 1862 1574 
C 2022 1766 2170 1978 2291 2214 
C 2586 2010 2912 1734 3110 1523 
C 2790 781 2355 224 1830 -141 
C 1926 -211 2080 -397 2138 -506 
C 3117 205 3821 1562 4070 3629 
L 3795 3712 
L 3712 3699 
L 2829 3699 
C 2899 4006 2957 4307 3008 4602 
L 4282 4602 
L 4282 5030 
L 1971 5030 
L 1971 4602 
z
M 4736 4634 
L 4314 4634 
L 4314 966 
L 4736 966 
L 4736 4634 
z
M 5478 5254 
L 5478 109 
C 5478 0 5440 -32 5331 -38 
C 5229 -38 4890 -45 4506 -32 
C 4576 -160 4634 -371 4659 -493 
C 5165 -493 5478 -480 5658 -403 
C 5850 -326 5914 -186 5914 109 
L 5914 5254 
L 5478 5254 
z
" transform="scale(0.015625)"/>
       <path id="NotoSansCJKjp-Regular-ff08" d="M 4448 2432 
C 4448 1184 4954 166 5722 -614 
L 6106 -416 
C 5370 346 4915 1293 4915 2432 
C 4915 3571 5370 4518 6106 5280 
L 5722 5478 
C 4954 4698 4448 3680 4448 2432 
z
" transform="scale(0.015625)"/>
       <path id="NotoSansCJKjp-Regular-25" d="M 1312 1818 
C 1958 1818 2381 2362 2381 3309 
C 2381 4250 1958 4781 1312 4781 
C 672 4781 250 4250 250 3309 
C 250 2362 672 1818 1312 1818 
z
M 1312 2182 
C 947 2182 691 2560 691 3309 
C 691 4058 947 4422 1312 4422 
C 1683 4422 1939 4058 1939 3309 
C 1939 2560 1683 2182 1312 2182 
z
M 1453 -83 
L 1843 -83 
L 4435 4781 
L 4038 4781 
L 1453 -83 
z
M 4582 -83 
C 5222 -83 5645 454 5645 1402 
C 5645 2342 5222 2874 4582 2874 
C 3942 2874 3514 2342 3514 1402 
C 3514 454 3942 -83 4582 -83 
z
M 4582 275 
C 4211 275 3962 653 3962 1402 
C 3962 2150 4211 2515 4582 2515 
C 4947 2515 5203 2150 5203 1402 
C 5203 653 4947 275 4582 275 
z
" transform="scale(0.015625)"/>
       <path id="NotoSansCJKjp-Regular-ff09" d="M 1952 2432 
C 1952 3680 1446 4698 678 5478 
L 294 5280 
C 1030 4518 1485 3571 1485 2432 
C 1485 1293 1030 346 294 -416 
L 678 -614 
C 1446 166 1952 1184 1952 2432 
z
" transform="scale(0.015625)"/>
      </defs>
      <use xlink:href="#NotoSansCJKjp-Regular-901a"/>
      <use xlink:href="#NotoSansCJKjp-Regular-8fc7" x="99.999985"/>
      <use xlink:href="#NotoSansCJKjp-Regular-6bd4" x="199.999969"/>
      <use xlink:href="#NotoSansCJKjp-Regular-4f8b" x="299.999954"/>
      <use xlink:href="#NotoSansCJKjp-Regular-ff08" x="399.999939"/>
      <use xlink:href="#NotoSansCJKjp-Regular-25" x="499.999924"/>
      <use xlink:href="#NotoSansCJKjp-Regular-ff09" x="592.099915"/>
     </g>
    </g>
   </g>
   <g id="line2d_23">
    <path d="M 61.286429 161.06092 
L 220.715 174.53284 
L 380.143571 177.90082 
L 539.572143 194.3665 
" clip-path="url(#p3a86869cdc)" style="fill: none; stroke: #4e79a7; stroke-width: 2.4; stroke-linecap: square"/>
    <defs>
     <path id="mdc2969ecb4" d="M 0 3.75 
C 0.994512 3.75 1.948425 3.354876 2.65165 2.65165 
C 3.354876 1.948425 3.75 0.994512 3.75 0 
C 3.75 -0.994512 3.354876 -1.948425 2.65165 -2.65165 
C 1.948425 -3.354876 0.994512 -3.75 0 -3.75 
C -0.994512 -3.75 -1.948425 -3.354876 -2.65165 -2.65165 
C -3.354876 -1.948425 -3.75 -0.994512 -3.75 0 
C -3.75 0.994512 -3.354876 1.948425 -2.65165 2.65165 
C -1.948425 3.354876 -0.994512 3.75 0 3.75 
z
" style="stroke: #4e79a7"/>
    </defs>
    <g clip-path="url(#p3a86869cdc)">
     <use xlink:href="#mdc2969ecb4" x="61.286429" y="161.06092" style="fill: #4e79a7; stroke: #4e79a7"/>
     <use xlink:href="#mdc2969ecb4" x="220.715" y="174.53284" style="fill: #4e79a7; stroke: #4e79a7"/>
     <use xlink:href="#mdc2969ecb4" x="380.143571" y="177.90082" style="fill: #4e79a7; stroke: #4e79a7"/>
     <use xlink:href="#mdc2969ecb4" x="539.572143" y="194.3665" style="fill: #4e79a7; stroke: #4e79a7"/>
    </g>
   </g>
   <g id="line2d_24">
    <path d="M 61.286429 65.2606 
L 220.715 77.98408 
L 380.143571 80.2294 
L 539.572143 89.5849 
" clip-path="url(#p3a86869cdc)" style="fill: none; stroke: #f28e2b; stroke-width: 2.4; stroke-linecap: square"/>
    <defs>
     <path id="mbc0e6189d9" d="M 0 3.75 
C 0.994512 3.75 1.948425 3.354876 2.65165 2.65165 
C 3.354876 1.948425 3.75 0.994512 3.75 0 
C 3.75 -0.994512 3.354876 -1.948425 2.65165 -2.65165 
C 1.948425 -3.354876 0.994512 -3.75 0 -3.75 
C -0.994512 -3.75 -1.948425 -3.354876 -2.65165 -2.65165 
C -3.354876 -1.948425 -3.75 -0.994512 -3.75 0 
C -3.75 0.994512 -3.354876 1.948425 -2.65165 2.65165 
C -1.948425 3.354876 -0.994512 3.75 0 3.75 
z
" style="stroke: #f28e2b"/>
    </defs>
    <g clip-path="url(#p3a86869cdc)">
     <use xlink:href="#mbc0e6189d9" x="61.286429" y="65.2606" style="fill: #f28e2b; stroke: #f28e2b"/>
     <use xlink:href="#mbc0e6189d9" x="220.715" y="77.98408" style="fill: #f28e2b; stroke: #f28e2b"/>
     <use xlink:href="#mbc0e6189d9" x="380.143571" y="80.2294" style="fill: #f28e2b; stroke: #f28e2b"/>
     <use xlink:href="#mbc0e6189d9" x="539.572143" y="89.5849" style="fill: #f28e2b; stroke: #f28e2b"/>
    </g>
   </g>
   <g id="line2d_25">
    <path d="M 61.286429 56.65354 
L 220.715 66.75748 
L 380.143571 70.12546 
L 539.572143 77.60986 
" clip-path="url(#p3a86869cdc)" style="fill: none; stroke: #59a14f; stroke-width: 2.4; stroke-linecap: square"/>
    <defs>
     <path id="m9a4b3774fd" d="M 0 3.75 
C 0.994512 3.75 1.948425 3.354876 2.65165 2.65165 
C 3.354876 1.948425 3.75 0.994512 3.75 0 
C 3.75 -0.994512 3.354876 -1.948425 2.65165 -2.65165 
C 1.948425 -3.354876 0.994512 -3.75 0 -3.75 
C -0.994512 -3.75 -1.948425 -3.354876 -2.65165 -2.65165 
C -3.354876 -1.948425 -3.75 -0.994512 -3.75 0 
C -3.75 0.994512 -3.354876 1.948425 -2.65165 2.65165 
C -1.948425 3.354876 -0.994512 3.75 0 3.75 
z
" style="stroke: #59a14f"/>
    </defs>
    <g clip-path="url(#p3a86869cdc)">
     <use xlink:href="#m9a4b3774fd" x="61.286429" y="56.65354" style="fill: #59a14f; stroke: #59a14f"/>
     <use xlink:href="#m9a4b3774fd" x="220.715" y="66.75748" style="fill: #59a14f; stroke: #59a14f"/>
     <use xlink:href="#m9a4b3774fd" x="380.143571" y="70.12546" style="fill: #59a14f; stroke: #59a14f"/>
     <use xlink:href="#m9a4b3774fd" x="539.572143" y="77.60986" style="fill: #59a14f; stroke: #59a14f"/>
    </g>
   </g>
   <g id="patch_3">
    <path d="M 42.155 325.3435 
L 42.155 25.9675 
" style="fill: none; stroke: #d9dee5; stroke-width: 0.8; stroke-linejoin: miter; stroke-linecap: square"/>
   </g>
   <g id="patch_4">
    <path d="M 42.155 325.3435 
L 611.315 325.3435 
" style="fill: none; stroke: #d9dee5; stroke-width: 0.8; stroke-linejoin: miter; stroke-linecap: square"/>
   </g>
   <g id="text_15">
    <!-- 35.0% -->
    <g style="fill: #4e79a7" transform="translate(552.326429 197.281344)scale(0.1 -0.1)">
     <defs>
      <path id="NotoSansCJKjp-Bold-33" d="M 1754 -90 
C 2656 -90 3418 416 3418 1286 
C 3418 1907 3008 2304 2477 2451 
L 2477 2483 
C 2976 2682 3264 3053 3264 3565 
C 3264 4371 2643 4826 1728 4826 
C 1171 4826 717 4602 307 4243 
L 787 3667 
C 1069 3930 1344 4083 1683 4083 
C 2086 4083 2317 3866 2317 3494 
C 2317 3072 2035 2771 1165 2771 
L 1165 2099 
C 2195 2099 2470 1805 2470 1344 
C 2470 915 2144 678 1664 678 
C 1235 678 890 890 608 1165 
L 166 570 
C 499 192 1005 -90 1754 -90 
z
" transform="scale(0.015625)"/>
      <path id="NotoSansCJKjp-Bold-35" d="M 1766 -90 
C 2643 -90 3424 518 3424 1574 
C 3424 2605 2758 3078 1965 3078 
C 1747 3078 1587 3034 1395 2944 
L 1485 3949 
L 3206 3949 
L 3206 4742 
L 672 4742 
L 544 2438 
L 973 2157 
C 1248 2336 1402 2406 1683 2406 
C 2163 2406 2483 2099 2483 1549 
C 2483 992 2138 678 1645 678 
C 1203 678 870 896 602 1158 
L 166 557 
C 518 205 1018 -90 1766 -90 
z
" transform="scale(0.015625)"/>
      <path id="NotoSansCJKjp-Bold-2e" d="M 1037 -90 
C 1376 -90 1626 179 1626 525 
C 1626 877 1376 1139 1037 1139 
C 704 1139 454 877 454 525 
C 454 179 704 -90 1037 -90 
z
" transform="scale(0.015625)"/>
      <path id="NotoSansCJKjp-Bold-30" d="M 1888 -90 
C 2854 -90 3488 755 3488 2387 
C 3488 4019 2854 4826 1888 4826 
C 922 4826 282 4026 282 2387 
C 282 755 922 -90 1888 -90 
z
M 1888 646 
C 1478 646 1171 1056 1171 2387 
C 1171 3712 1478 4096 1888 4096 
C 2298 4096 2598 3712 2598 2387 
C 2598 1056 2298 646 1888 646 
z
" transform="scale(0.015625)"/>
      <path id="NotoSansCJKjp-Bold-25" d="M 1357 1824 
C 2035 1824 2515 2381 2515 3334 
C 2515 4282 2035 4826 1357 4826 
C 678 4826 205 4282 205 3334 
C 205 2381 678 1824 1357 1824 
z
M 1357 2355 
C 1082 2355 870 2637 870 3334 
C 870 4032 1082 4294 1357 4294 
C 1632 4294 1850 4032 1850 3334 
C 1850 2637 1632 2355 1357 2355 
z
M 1517 -90 
L 2074 -90 
L 4646 4826 
L 4090 4826 
L 1517 -90 
z
M 4800 -90 
C 5472 -90 5958 474 5958 1421 
C 5958 2374 5472 2918 4800 2918 
C 4128 2918 3648 2374 3648 1421 
C 3648 474 4128 -90 4800 -90 
z
M 4800 448 
C 4525 448 4314 723 4314 1421 
C 4314 2118 4525 2387 4800 2387 
C 5075 2387 5293 2118 5293 1421 
C 5293 723 5075 448 4800 448 
z
" transform="scale(0.015625)"/>
     </defs>
     <use xlink:href="#NotoSansCJKjp-Bold-33"/>
     <use xlink:href="#NotoSansCJKjp-Bold-35" x="58.899994"/>
     <use xlink:href="#NotoSansCJKjp-Bold-2e" x="117.799988"/>
     <use xlink:href="#NotoSansCJKjp-Bold-30" x="150.299973"/>
     <use xlink:href="#NotoSansCJKjp-Bold-25" x="209.199966"/>
    </g>
   </g>
   <g id="text_16">
    <!-- 63.0% -->
    <g style="fill: #f28e2b" transform="translate(552.326429 92.499744)scale(0.1 -0.1)">
     <defs>
      <path id="NotoSansCJKjp-Bold-36" d="M 1971 2317 
C 2381 2317 2650 2054 2650 1498 
C 2650 915 2355 621 2003 621 
C 1606 621 1286 954 1197 1818 
C 1414 2176 1715 2317 1971 2317 
z
M 2022 -90 
C 2829 -90 3507 525 3507 1498 
C 3507 2509 2944 2982 2150 2982 
C 1843 2982 1434 2790 1178 2470 
C 1216 3661 1664 4070 2208 4070 
C 2483 4070 2771 3917 2938 3725 
L 3437 4288 
C 3149 4582 2733 4826 2150 4826 
C 1197 4826 320 4070 320 2304 
C 320 634 1120 -90 2022 -90 
z
" transform="scale(0.015625)"/>
     </defs>
     <use xlink:href="#NotoSansCJKjp-Bold-36"/>
     <use xlink:href="#NotoSansCJKjp-Bold-33" x="58.899994"/>
     <use xlink:href="#NotoSansCJKjp-Bold-2e" x="117.799988"/>
     <use xlink:href="#NotoSansCJKjp-Bold-30" x="150.299973"/>
     <use xlink:href="#NotoSansCJKjp-Bold-25" x="209.199966"/>
    </g>
   </g>
   <g id="text_17">
    <!-- 66.2% -->
    <g style="fill: #59a14f" transform="translate(552.326429 80.524704)scale(0.1 -0.1)">
     <defs>
      <path id="NotoSansCJKjp-Bold-32" d="M 275 0 
L 3450 0 
L 3450 794 
L 2426 794 
C 2202 794 1888 768 1651 742 
C 2515 1587 3226 2509 3226 3366 
C 3226 4250 2630 4826 1734 4826 
C 1088 4826 666 4576 230 4109 
L 742 3597 
C 986 3859 1267 4083 1613 4083 
C 2067 4083 2323 3795 2323 3315 
C 2323 2586 1562 1696 275 544 
L 275 0 
z
" transform="scale(0.015625)"/>
     </defs>
     <use xlink:href="#NotoSansCJKjp-Bold-36"/>
     <use xlink:href="#NotoSansCJKjp-Bold-36" x="58.899994"/>
     <use xlink:href="#NotoSansCJKjp-Bold-2e" x="117.799988"/>
     <use xlink:href="#NotoSansCJKjp-Bold-32" x="150.299973"/>
     <use xlink:href="#NotoSansCJKjp-Bold-25" x="209.199966"/>
    </g>
   </g>
   <g id="text_18">
    <!-- 重定向：成功不是单帧抬起，而是逐层通过质量筛选 -->
    <g style="fill: #243447" transform="translate(142.735 19.9675)scale(0.16 -0.16)">
     <defs>
      <path id="NotoSansCJKjp-Bold-91cd" d="M 1728 1920 
L 1728 2208 
L 2790 2208 
L 2790 1920 
L 1728 1920 
z
M 1728 2950 
L 2790 2950 
L 2790 2662 
L 1728 2662 
L 1728 2950 
z
M 4678 2950 
L 4678 2662 
L 3558 2662 
L 3558 2950 
L 4678 2950 
z
M 4678 1920 
L 3558 1920 
L 3558 2208 
L 4678 2208 
L 4678 1920 
z
M 3558 224 
L 3558 563 
L 5696 563 
L 5696 1133 
L 3558 1133 
L 3558 1421 
L 5459 1421 
L 5459 3450 
L 3558 3450 
L 3558 3693 
L 6067 3693 
L 6067 4288 
L 3558 4288 
L 3558 4621 
C 4256 4672 4922 4742 5478 4832 
L 5126 5421 
C 4045 5242 2310 5133 819 5101 
C 883 4947 966 4691 973 4518 
C 1549 4525 2176 4544 2790 4570 
L 2790 4288 
L 346 4288 
L 346 3693 
L 2790 3693 
L 2790 3450 
L 986 3450 
L 986 1421 
L 2790 1421 
L 2790 1133 
L 774 1133 
L 774 563 
L 2790 563 
L 2790 224 
L 307 224 
L 307 -378 
L 6112 -378 
L 6112 224 
L 3558 224 
z
" transform="scale(0.015625)"/>
      <path id="NotoSansCJKjp-Bold-5b9a" d="M 1216 4051 
L 5152 4051 
L 5152 3174 
L 5939 3174 
L 5939 4774 
L 3597 4774 
L 3597 5414 
L 2790 5414 
L 2790 4774 
L 467 4774 
L 467 3174 
L 1216 3174 
L 1216 4051 
z
M 3590 1261 
L 5350 1261 
L 5350 1978 
L 3590 1978 
L 3590 2778 
L 4960 2778 
L 4960 3501 
L 1440 3501 
L 1440 2778 
L 2803 2778 
L 2803 518 
C 2426 704 2125 1011 1933 1523 
C 1990 1779 2035 2048 2074 2336 
L 1280 2413 
C 1165 1318 851 435 160 -77 
C 339 -192 659 -461 787 -595 
C 1152 -282 1434 128 1638 614 
C 2227 -294 3104 -486 4282 -486 
L 5882 -486 
C 5920 -262 6042 102 6150 288 
C 5722 269 4666 269 4320 269 
C 4064 269 3821 282 3590 307 
L 3590 1261 
z
" transform="scale(0.015625)"/>
      <path id="NotoSansCJKjp-Bold-5411" d="M 3750 2323 
L 3750 1472 
L 2637 1472 
L 2637 2323 
L 3750 2323 
z
M 4448 806 
L 4448 2989 
L 1952 2989 
L 1952 358 
L 2637 358 
L 2637 806 
L 4448 806 
z
M 5856 4352 
L 3187 4352 
C 3341 4634 3501 4966 3635 5286 
L 2669 5421 
C 2592 5101 2464 4698 2330 4352 
L 563 4352 
L 563 -550 
L 1325 -550 
L 1325 3610 
L 5088 3610 
L 5088 346 
C 5088 230 5050 198 4928 198 
C 4800 192 4371 186 3994 211 
C 4102 6 4218 -339 4243 -557 
C 4819 -557 5229 -544 5498 -422 
C 5766 -301 5856 -83 5856 333 
L 5856 4352 
z
" transform="scale(0.015625)"/>
      <path id="NotoSansCJKjp-Bold-ff1a" d="M 3200 3302 
C 3539 3302 3808 3558 3808 3898 
C 3808 4250 3539 4506 3200 4506 
C 2861 4506 2592 4250 2592 3898 
C 2592 3558 2861 3302 3200 3302 
z
M 3200 250 
C 3539 250 3808 506 3808 845 
C 3808 1197 3539 1453 3200 1453 
C 2861 1453 2592 1197 2592 845 
C 2592 506 2861 250 3200 250 
z
" transform="scale(0.015625)"/>
      <path id="NotoSansCJKjp-Bold-6210" d="M 5024 3379 
C 4870 2861 4659 2387 4410 1958 
C 4301 2470 4211 3072 4154 3712 
L 6131 3712 
L 6131 4467 
L 5466 4467 
L 5773 4794 
C 5549 5005 5082 5299 4730 5478 
L 4269 5024 
C 4531 4864 4851 4659 5088 4467 
L 4109 4467 
C 4096 4781 4090 5094 4096 5414 
L 3296 5414 
C 3296 5094 3309 4781 3322 4467 
L 710 4467 
L 710 2598 
C 710 1766 666 653 179 -115 
C 352 -205 691 -486 826 -634 
C 1350 147 1485 1395 1510 2330 
L 2342 2330 
C 2323 1523 2298 1216 2234 1126 
C 2182 1062 2131 1050 2042 1050 
C 1939 1050 1722 1056 1491 1075 
C 1606 883 1690 589 1702 365 
C 1997 358 2272 358 2438 384 
C 2630 416 2758 474 2880 640 
C 3027 826 3066 1395 3085 2739 
C 3085 2829 3091 3027 3091 3027 
L 1510 3027 
L 1510 3712 
L 3366 3712 
C 3450 2752 3590 1856 3808 1133 
C 3437 717 2995 365 2502 96 
C 2662 -51 2938 -365 3053 -531 
C 3450 -288 3808 0 4134 339 
C 4416 -186 4768 -506 5216 -506 
C 5811 -506 6067 -224 6189 960 
C 5984 1043 5715 1210 5542 1389 
C 5510 589 5434 269 5280 269 
C 5075 269 4870 538 4685 998 
C 5146 1619 5523 2362 5786 3194 
L 5024 3379 
z
" transform="scale(0.015625)"/>
      <path id="NotoSansCJKjp-Bold-529f" d="M 2739 1946 
C 2445 1869 2150 1792 1856 1715 
L 1856 4013 
L 2675 4013 
L 2675 4730 
L 269 4730 
L 269 4013 
L 1101 4013 
L 1101 1530 
C 762 1440 442 1370 179 1312 
L 365 525 
C 1069 717 1990 973 2835 1222 
L 2739 1946 
z
M 4429 4064 
C 4435 4461 4442 4883 4442 5312 
L 3667 5312 
C 3667 4877 3667 4454 3661 4064 
L 2765 4064 
L 2765 3334 
L 3629 3334 
C 3546 1869 3219 755 1978 51 
C 2163 -90 2400 -365 2515 -563 
C 3917 275 4288 1626 4397 3334 
L 5254 3334 
C 5197 1338 5126 531 4966 358 
C 4896 269 4832 250 4717 250 
C 4570 250 4256 250 3923 275 
C 4051 64 4141 -256 4154 -474 
C 4512 -486 4858 -486 5075 -454 
C 5318 -416 5478 -346 5638 -115 
C 5869 192 5939 1126 6016 3712 
C 6022 3808 6022 4064 6022 4064 
L 4429 4064 
z
" transform="scale(0.015625)"/>
      <path id="NotoSansCJKjp-Bold-4e0d" d="M 3616 2957 
L 3616 3622 
C 3750 3814 3878 4013 3987 4211 
L 5978 4211 
L 5978 4992 
L 429 4992 
L 429 4211 
L 2982 4211 
C 2387 3232 1389 2240 224 1696 
C 390 1523 627 1210 749 1005 
C 1517 1402 2202 1958 2784 2579 
L 2784 -544 
L 3616 -544 
L 3616 2771 
C 4307 2240 5178 1510 5574 1037 
L 6221 1619 
C 5760 2125 4774 2861 4090 3354 
L 3616 2957 
z
" transform="scale(0.015625)"/>
      <path id="NotoSansCJKjp-Bold-662f" d="M 4646 4346 
L 1715 4346 
L 1715 4666 
L 4646 4666 
L 4646 4346 
z
M 4646 3520 
L 1715 3520 
L 1715 3846 
L 4646 3846 
L 4646 3520 
z
M 5421 5203 
L 979 5203 
L 979 2982 
L 5421 2982 
L 5421 5203 
z
M 3654 890 
L 5626 890 
L 5626 1549 
L 3654 1549 
L 3654 2029 
L 6029 2029 
L 6029 2701 
L 384 2701 
L 384 2029 
L 2880 2029 
L 2880 403 
C 2470 531 2157 768 1958 1203 
C 2010 1389 2061 1581 2106 1786 
L 1344 1901 
C 1197 1043 806 365 154 -38 
C 326 -147 621 -429 730 -570 
C 1101 -314 1395 26 1626 448 
C 2163 -294 2957 -454 4128 -454 
L 5952 -454 
C 5990 -237 6106 96 6208 269 
C 5754 250 4525 250 4166 250 
C 3994 250 3821 256 3654 269 
L 3654 890 
z
" transform="scale(0.015625)"/>
      <path id="NotoSansCJKjp-Bold-5355" d="M 1632 2259 
L 1632 2701 
L 2797 2701 
L 2797 2259 
L 1632 2259 
z
M 1632 3712 
L 2797 3712 
L 2797 3277 
L 1632 3277 
L 1632 3712 
z
M 4794 3277 
L 3584 3277 
L 3584 3712 
L 4794 3712 
L 4794 3277 
z
M 4794 2259 
L 3584 2259 
L 3584 2701 
L 4794 2701 
L 4794 2259 
z
M 6093 1216 
L 3584 1216 
L 3584 1632 
L 5581 1632 
L 5581 4333 
L 4666 4333 
C 4838 4576 5030 4845 5203 5126 
L 4358 5370 
C 4237 5050 4013 4646 3808 4333 
L 2438 4333 
L 2714 4467 
C 2586 4730 2298 5120 2048 5389 
L 1395 5101 
C 1581 4870 1792 4576 1920 4333 
L 890 4333 
L 890 1632 
L 2797 1632 
L 2797 1216 
L 326 1216 
L 326 506 
L 2797 506 
L 2797 -538 
L 3584 -538 
L 3584 506 
L 6093 506 
L 6093 1216 
z
" transform="scale(0.015625)"/>
      <path id="NotoSansCJKjp-Bold-5e27" d="M 3686 3194 
L 5178 3194 
L 5178 813 
L 5862 813 
L 5862 3840 
L 4774 3840 
L 4774 4262 
L 6106 4262 
L 6106 4947 
L 4774 4947 
L 4774 5402 
L 4032 5402 
L 4032 3840 
L 3034 3840 
L 3034 787 
L 3686 787 
L 3686 3194 
z
M 2765 4243 
L 1901 4243 
L 1901 5414 
L 1274 5414 
L 1274 4243 
L 429 4243 
L 429 768 
L 979 768 
L 979 3578 
L 1274 3578 
L 1274 -557 
L 1901 -557 
L 1901 3578 
L 2202 3578 
L 2202 1542 
C 2202 1491 2189 1478 2150 1478 
L 1914 1478 
C 2003 1299 2086 1011 2093 819 
C 2317 819 2464 838 2598 954 
C 2739 1075 2765 1280 2765 1517 
L 2765 4243 
z
M 4806 2861 
L 4096 2861 
L 4096 1664 
C 4096 1088 3891 429 2438 51 
C 2579 -102 2784 -371 2874 -544 
C 4429 -38 4806 813 4806 1651 
L 4806 2861 
z
M 4493 294 
C 4947 58 5536 -307 5818 -557 
L 6227 -19 
C 5933 230 5325 557 4883 768 
L 4493 294 
z
" transform="scale(0.015625)"/>
      <path id="NotoSansCJKjp-Bold-62ac" d="M 2477 2554 
C 3270 2605 4352 2682 5395 2758 
C 5485 2592 5555 2438 5606 2304 
L 6272 2694 
C 6061 3187 5549 3923 5126 4467 
L 4512 4141 
C 4672 3923 4838 3680 4992 3437 
C 4525 3411 4058 3386 3622 3360 
C 3891 3923 4186 4621 4422 5254 
L 3539 5421 
C 3386 4787 3117 3949 2842 3322 
L 2336 3296 
L 2400 2720 
L 1798 2566 
L 1798 3514 
L 2445 3514 
L 2445 4218 
L 1798 4218 
L 1798 5414 
L 1050 5414 
L 1050 4218 
L 256 4218 
L 256 3514 
L 1050 3514 
L 1050 2381 
C 717 2298 403 2227 147 2176 
L 333 1446 
L 1050 1632 
L 1050 262 
C 1050 173 1018 147 934 141 
C 851 141 589 141 346 154 
C 429 -45 531 -352 550 -544 
C 998 -544 1306 -525 1523 -410 
C 1734 -294 1798 -109 1798 269 
L 1798 1830 
C 2048 1894 2298 1965 2541 2035 
L 2477 2554 
z
M 4979 1402 
L 4979 390 
L 3437 390 
L 3437 1402 
L 4979 1402 
z
M 2707 -550 
L 3437 -550 
L 3437 -294 
L 4979 -294 
L 4979 -531 
L 5747 -531 
L 5747 2093 
L 2707 2093 
L 2707 -550 
z
" transform="scale(0.015625)"/>
      <path id="NotoSansCJKjp-Bold-8d77" d="M 5094 3526 
L 3475 3526 
L 3475 1562 
C 3475 826 3680 621 4390 621 
L 5299 621 
C 5920 621 6106 890 6189 1843 
C 5997 1888 5683 2010 5523 2131 
C 5498 1414 5459 1299 5235 1299 
L 4493 1299 
C 4243 1299 4198 1331 4198 1562 
L 4198 2874 
L 5094 2874 
L 5094 2707 
L 5830 2707 
L 5830 5178 
L 3418 5178 
L 3418 4512 
L 5094 4512 
L 5094 3526 
z
M 2266 1517 
L 3174 1517 
L 3174 2176 
L 2266 2176 
L 2266 2867 
L 3232 2867 
L 3232 3526 
L 2125 3526 
L 2125 4128 
L 3072 4128 
L 3072 4781 
L 2125 4781 
L 2125 5408 
L 1414 5408 
L 1414 4781 
L 461 4781 
L 461 4128 
L 1414 4128 
L 1414 3526 
L 288 3526 
L 288 2867 
L 1568 2867 
L 1568 877 
C 1402 1062 1274 1299 1171 1613 
C 1184 1882 1197 2157 1203 2438 
L 506 2490 
C 493 1395 429 333 115 -314 
C 282 -384 614 -550 749 -640 
C 890 -326 986 51 1050 480 
C 1549 -237 2310 -390 3501 -390 
L 5971 -390 
C 6016 -166 6144 186 6259 358 
C 5683 333 3987 333 3501 339 
C 3008 339 2605 365 2266 461 
L 2266 1517 
z
" transform="scale(0.015625)"/>
      <path id="NotoSansCJKjp-Bold-ff0c" d="M 1242 -883 
C 2035 -646 2502 -58 2502 672 
C 2502 1210 2266 1549 1811 1549 
C 1472 1549 1184 1331 1184 973 
C 1184 608 1472 403 1792 403 
C 1818 403 1843 403 1862 410 
C 1824 70 1536 -205 1037 -365 
L 1242 -883 
z
" transform="scale(0.015625)"/>
      <path id="NotoSansCJKjp-Bold-800c" d="M 6112 4410 
L 6112 5184 
L 307 5184 
L 307 4410 
L 2630 4410 
C 2586 4186 2534 3955 2470 3738 
L 608 3738 
L 608 -557 
L 1395 -557 
L 1395 3027 
L 2080 3027 
L 2080 -358 
L 2835 -358 
L 2835 3027 
L 3539 3027 
L 3539 -358 
L 4301 -358 
L 4301 3027 
L 5056 3027 
L 5056 256 
C 5056 166 5030 141 4941 141 
C 4851 141 4570 134 4314 147 
C 4410 -38 4525 -339 4557 -544 
C 4986 -544 5306 -525 5536 -416 
C 5766 -294 5830 -109 5830 250 
L 5830 3738 
L 3302 3738 
C 3379 3949 3456 4173 3533 4410 
L 6112 4410 
z
" transform="scale(0.015625)"/>
      <path id="NotoSansCJKjp-Bold-9010" d="M 6221 1805 
C 5958 2170 5434 2643 4928 3027 
C 5254 3277 5632 3603 5971 3923 
L 5299 4294 
C 5088 4013 4749 3654 4435 3379 
C 4294 3616 4122 3846 3898 4045 
C 4058 4179 4205 4326 4333 4474 
L 6054 4474 
L 6054 5101 
L 1952 5101 
L 1952 4474 
L 3392 4474 
C 2957 4115 2362 3821 1766 3629 
C 1920 3501 2176 3219 2272 3078 
C 2656 3238 3053 3443 3418 3686 
C 3482 3622 3539 3552 3597 3482 
C 3187 3123 2509 2765 1939 2566 
C 2080 2445 2272 2214 2368 2061 
C 2867 2266 3450 2624 3891 3002 
C 3942 2906 3981 2810 4013 2707 
C 3539 2163 2643 1670 1786 1434 
C 1933 1299 2131 1043 2227 890 
C 2912 1114 3616 1517 4154 1997 
C 4166 1670 4102 1402 3987 1286 
C 3891 1146 3789 1126 3642 1126 
C 3514 1126 3341 1133 3155 1158 
C 3277 960 3322 672 3322 486 
C 3494 480 3654 474 3795 474 
C 4096 480 4307 550 4518 781 
C 4787 1037 4915 1613 4826 2259 
C 5197 1926 5536 1568 5715 1293 
L 6221 1805 
z
M 1875 4243 
C 1670 4550 1229 4973 870 5261 
L 288 4826 
C 646 4518 1069 4077 1248 3763 
L 1875 4243 
z
M 1702 2938 
L 262 2938 
L 262 2240 
L 979 2240 
L 979 845 
C 723 627 435 416 186 256 
L 544 -499 
C 870 -224 1133 19 1389 269 
C 1773 -224 2285 -410 3046 -442 
C 3827 -474 5184 -461 5978 -422 
C 6016 -211 6125 141 6214 320 
C 5331 250 3821 230 3053 262 
C 2400 288 1952 467 1702 896 
L 1702 2938 
z
" transform="scale(0.015625)"/>
      <path id="NotoSansCJKjp-Bold-5c42" d="M 4986 4506 
L 4986 3974 
L 1517 3974 
L 1517 4506 
L 4986 4506 
z
M 5760 3328 
L 5760 5152 
L 742 5152 
L 742 3270 
C 742 2259 698 826 154 -160 
C 346 -224 685 -416 838 -538 
C 1427 518 1517 2163 1517 3270 
L 1517 3328 
L 5760 3328 
z
M 5606 2272 
L 5606 2931 
L 1984 2931 
L 1984 2272 
L 5606 2272 
z
M 6035 1811 
L 1638 1811 
L 1638 1152 
L 2554 1152 
C 2374 806 2163 506 2074 403 
C 1952 256 1837 160 1728 134 
C 1811 -58 1946 -397 1997 -531 
C 2246 -442 2592 -416 4992 -224 
C 5069 -378 5139 -512 5190 -627 
L 5907 -301 
C 5722 77 5318 704 5024 1152 
L 4352 877 
C 4448 730 4557 550 4659 371 
L 2842 256 
C 3066 531 3296 838 3488 1152 
L 6035 1152 
L 6035 1811 
z
" transform="scale(0.015625)"/>
      <path id="NotoSansCJKjp-Bold-901a" d="M 3763 3270 
L 3763 2925 
L 3027 2925 
L 3027 3270 
L 3763 3270 
z
M 5197 2925 
L 4442 2925 
L 4442 3270 
L 5197 3270 
L 5197 2925 
z
M 4442 2035 
L 4442 2394 
L 5197 2394 
L 5197 2035 
L 4442 2035 
z
M 3027 2035 
L 3027 2394 
L 3763 2394 
L 3763 2035 
L 3027 2035 
z
M 3027 1485 
L 3763 1485 
L 3763 550 
L 4442 550 
L 4442 1485 
L 5197 1485 
L 5197 1190 
C 5197 1126 5178 1101 5101 1094 
C 5037 1094 4813 1094 4614 1101 
C 4698 941 4774 691 4800 506 
C 5184 506 5459 506 5664 614 
C 5869 717 5926 877 5926 1184 
L 5926 3821 
L 5152 3821 
C 5043 3885 4909 3949 4768 4019 
C 5184 4275 5587 4582 5907 4883 
L 5453 5248 
L 5306 5210 
L 2368 5210 
L 2368 4634 
L 4646 4634 
C 4486 4518 4314 4397 4134 4294 
C 3872 4410 3603 4512 3379 4595 
L 2886 4186 
C 3149 4083 3456 3955 3744 3821 
L 2310 3821 
L 2310 525 
L 3027 525 
L 3027 1485 
z
M 1958 4301 
C 1728 4608 1235 5018 845 5286 
L 320 4800 
C 710 4506 1190 4064 1389 3757 
L 1958 4301 
z
M 1766 2938 
L 224 2938 
L 224 2240 
L 1037 2240 
L 1037 845 
C 742 627 416 416 141 262 
L 493 -499 
C 851 -230 1152 19 1446 269 
C 1830 -224 2336 -410 3104 -442 
C 3885 -474 5242 -461 6029 -422 
C 6061 -211 6176 141 6266 320 
C 5389 250 3872 230 3110 262 
C 2458 288 2016 467 1766 896 
L 1766 2938 
z
" transform="scale(0.015625)"/>
      <path id="NotoSansCJKjp-Bold-8fc7" d="M 4518 1517 
C 4518 1408 4474 1370 4339 1363 
C 4211 1363 3750 1363 3341 1382 
C 3450 1171 3565 832 3597 608 
C 4192 608 4634 627 4909 749 
C 5197 864 5293 1069 5293 1510 
L 5293 3610 
L 6080 3610 
L 6080 4326 
L 5293 4326 
L 5293 5376 
L 4518 5376 
L 4518 4326 
L 2144 4326 
L 2144 3610 
L 4518 3610 
L 4518 1517 
z
M 2323 2995 
C 2637 2592 3027 2048 3194 1702 
L 3846 2099 
C 3661 2445 3251 2963 2931 3334 
L 2323 2995 
z
M 1933 4141 
C 1747 4461 1318 4902 966 5222 
L 378 4826 
C 723 4493 1126 4013 1299 3699 
L 1933 4141 
z
M 1779 3059 
L 288 3059 
L 288 2349 
L 1030 2349 
L 1030 934 
C 755 813 442 570 141 256 
L 678 -518 
C 902 -141 1184 288 1370 288 
C 1510 288 1734 83 2035 -70 
C 2502 -326 3046 -403 3859 -403 
C 4512 -403 5555 -365 5997 -333 
C 6010 -109 6138 288 6234 512 
C 5594 410 4550 352 3885 352 
C 3181 352 2586 390 2150 640 
C 2003 723 1882 800 1779 864 
L 1779 3059 
z
" transform="scale(0.015625)"/>
      <path id="NotoSansCJKjp-Bold-8d28" d="M 1568 4070 
L 1568 4378 
C 2150 4410 2752 4448 3341 4506 
C 3341 4365 3334 4218 3328 4070 
L 1568 4070 
z
M 1568 3411 
L 3290 3411 
C 3277 3245 3264 3098 3251 2957 
L 1888 2957 
L 1888 723 
L 2656 723 
L 2656 2259 
L 4934 2259 
L 4934 672 
L 5734 672 
L 5734 2957 
L 3987 2957 
C 4006 3098 4032 3245 4051 3411 
L 6112 3411 
L 6112 4070 
L 4122 4070 
C 4134 4250 4154 4429 4160 4595 
C 4730 4666 5274 4749 5754 4851 
L 5158 5453 
C 4122 5222 2355 5062 819 5005 
L 819 3194 
C 819 2221 768 838 166 -102 
C 352 -173 685 -365 832 -486 
C 1472 531 1568 2118 1568 3194 
L 1568 3411 
z
M 4224 2048 
L 3424 2048 
L 3424 1562 
C 3424 1139 3302 480 1344 32 
C 1536 -122 1766 -390 1869 -550 
C 3936 26 4224 909 4224 1542 
L 4224 2048 
z
M 3846 282 
C 4442 58 5203 -301 5619 -550 
L 6157 -45 
C 5709 179 4966 512 4384 730 
L 3846 282 
z
" transform="scale(0.015625)"/>
      <path id="NotoSansCJKjp-Bold-91cf" d="M 4506 4627 
L 1850 4627 
L 1850 4832 
L 4506 4832 
L 4506 4627 
z
M 4506 4038 
L 1850 4038 
L 1850 4250 
L 4506 4250 
L 4506 4038 
z
M 5274 5229 
L 1114 5229 
L 1114 3648 
L 5274 3648 
L 5274 5229 
z
M 6106 3456 
L 314 3456 
L 314 2912 
L 6106 2912 
L 6106 3456 
z
M 1715 1491 
L 1715 1715 
L 2829 1715 
L 2829 1491 
L 1715 1491 
z
M 1715 2317 
L 2829 2317 
L 2829 2093 
L 1715 2093 
L 1715 2317 
z
M 4678 2093 
L 3558 2093 
L 3558 2317 
L 4678 2317 
L 4678 2093 
z
M 4678 1491 
L 3558 1491 
L 3558 1715 
L 4678 1715 
L 4678 1491 
z
M 3558 154 
L 3558 384 
L 5542 384 
L 5542 877 
L 3558 877 
L 3558 1082 
L 5421 1082 
L 5421 2720 
L 998 2720 
L 998 1082 
L 2829 1082 
L 2829 877 
L 870 877 
L 870 384 
L 2829 384 
L 2829 154 
L 301 154 
L 301 -397 
L 6118 -397 
L 6118 154 
L 3558 154 
z
" transform="scale(0.015625)"/>
      <path id="NotoSansCJKjp-Bold-7b5b" d="M 1664 4448 
C 1818 4211 1958 3949 2022 3770 
L 2688 4006 
C 2637 4128 2547 4288 2445 4448 
L 3194 4448 
L 3194 4973 
L 1747 4973 
C 1805 5075 1856 5184 1894 5293 
L 1190 5472 
C 979 4941 602 4410 173 4077 
C 352 4000 672 3834 826 3725 
C 1024 3917 1235 4166 1434 4448 
L 1664 4448 
z
M 493 1331 
L 1158 1331 
L 1158 3360 
L 493 3360 
L 493 1331 
z
M 1555 2304 
C 1555 1478 1440 576 493 -83 
C 666 -192 909 -416 1024 -570 
C 2093 198 2227 1293 2227 2298 
L 2227 3712 
L 1555 3712 
L 1555 2304 
z
M 2483 2982 
L 3878 2982 
L 3878 2598 
L 2643 2598 
L 2643 -38 
L 3322 -38 
L 3322 1965 
L 3878 1965 
L 3878 -550 
L 4582 -550 
L 4582 1965 
L 5165 1965 
L 5165 678 
C 5165 614 5146 595 5094 595 
C 5037 595 4890 595 4736 602 
C 4819 422 4890 160 4909 -32 
C 5229 -32 5472 -32 5651 77 
C 5843 186 5882 358 5882 666 
L 5882 2598 
L 4582 2598 
L 4582 2982 
L 6080 2982 
L 6080 3610 
L 2483 3610 
L 2483 2982 
z
M 4384 4973 
C 4429 5082 4467 5190 4506 5293 
L 3776 5472 
C 3616 4966 3322 4448 2963 4128 
C 3136 4032 3450 3834 3597 3706 
C 3776 3904 3962 4160 4128 4448 
L 4403 4448 
C 4589 4211 4774 3942 4864 3757 
L 5504 4038 
C 5446 4154 5344 4301 5235 4448 
L 6093 4448 
L 6093 4973 
L 4384 4973 
z
" transform="scale(0.015625)"/>
      <path id="NotoSansCJKjp-Bold-9009" d="M 4262 2579 
L 4262 1459 
C 4262 787 4390 563 4998 563 
L 5485 563 
C 5946 563 6138 781 6214 1632 
C 6003 1677 5690 1798 5549 1926 
C 5530 1344 5504 1261 5402 1261 
L 5133 1261 
C 5030 1261 5011 1280 5011 1459 
L 5011 2579 
L 6118 2579 
L 6118 3238 
L 4531 3238 
L 4531 3981 
L 5862 3981 
L 5862 4621 
L 4531 4621 
L 4531 5389 
L 3776 5389 
L 3776 4621 
L 3270 4621 
C 3328 4768 3379 4922 3424 5069 
L 2707 5229 
C 2560 4672 2285 4115 1939 3763 
C 2112 3674 2419 3482 2566 3360 
C 2714 3533 2848 3744 2976 3981 
L 3776 3981 
L 3776 3238 
L 2035 3238 
L 2035 2579 
L 3078 2579 
C 2989 1952 2758 1453 1901 1146 
C 2074 998 2272 710 2362 512 
C 3424 954 3731 1670 3853 2579 
L 4262 2579 
z
M 1882 4237 
C 1677 4531 1235 4954 870 5242 
L 294 4813 
C 653 4499 1075 4058 1254 3750 
L 1882 4237 
z
M 1741 2963 
L 307 2963 
L 307 2259 
L 1011 2259 
L 1011 621 
C 749 474 474 275 218 45 
L 723 -621 
C 1069 -218 1414 154 1658 154 
C 1798 154 1997 -38 2253 -186 
C 2688 -435 3187 -512 3949 -512 
C 4570 -512 5523 -480 5997 -448 
C 6003 -243 6125 134 6202 339 
C 5587 250 4602 198 3962 198 
C 3302 198 2752 230 2355 467 
C 2067 640 1914 794 1741 826 
L 1741 2963 
z
" transform="scale(0.015625)"/>
     </defs>
     <use xlink:href="#NotoSansCJKjp-Bold-91cd"/>
     <use xlink:href="#NotoSansCJKjp-Bold-5b9a" x="99.999985"/>
     <use xlink:href="#NotoSansCJKjp-Bold-5411" x="199.999969"/>
     <use xlink:href="#NotoSansCJKjp-Bold-ff1a" x="299.999954"/>
     <use xlink:href="#NotoSansCJKjp-Bold-6210" x="399.999939"/>
     <use xlink:href="#NotoSansCJKjp-Bold-529f" x="499.999924"/>
     <use xlink:href="#NotoSansCJKjp-Bold-4e0d" x="599.999908"/>
     <use xlink:href="#NotoSansCJKjp-Bold-662f" x="699.999893"/>
     <use xlink:href="#NotoSansCJKjp-Bold-5355" x="799.999878"/>
     <use xlink:href="#NotoSansCJKjp-Bold-5e27" x="899.999863"/>
     <use xlink:href="#NotoSansCJKjp-Bold-62ac" x="999.999847"/>
     <use xlink:href="#NotoSansCJKjp-Bold-8d77" x="1099.999832"/>
     <use xlink:href="#NotoSansCJKjp-Bold-ff0c" x="1199.999817"/>
     <use xlink:href="#NotoSansCJKjp-Bold-800c" x="1299.999802"/>
     <use xlink:href="#NotoSansCJKjp-Bold-662f" x="1399.999786"/>
     <use xlink:href="#NotoSansCJKjp-Bold-9010" x="1499.999771"/>
     <use xlink:href="#NotoSansCJKjp-Bold-5c42" x="1599.999756"/>
     <use xlink:href="#NotoSansCJKjp-Bold-901a" x="1699.999741"/>
     <use xlink:href="#NotoSansCJKjp-Bold-8fc7" x="1799.999725"/>
     <use xlink:href="#NotoSansCJKjp-Bold-8d28" x="1899.99971"/>
     <use xlink:href="#NotoSansCJKjp-Bold-91cf" x="1999.999695"/>
     <use xlink:href="#NotoSansCJKjp-Bold-7b5b" x="2099.99968"/>
     <use xlink:href="#NotoSansCJKjp-Bold-9009" x="2199.999664"/>
    </g>
   </g>
   <g id="legend_1">
    <g id="line2d_26">
     <path d="M 191.625625 310.413812 
L 201.625625 310.413812 
L 211.625625 310.413812 
" style="fill: none; stroke: #4e79a7; stroke-width: 2.4; stroke-linecap: square"/>
     <g>
      <use xlink:href="#mdc2969ecb4" x="201.625625" y="310.413812" style="fill: #4e79a7; stroke: #4e79a7"/>
     </g>
    </g>
    <g id="text_19">
     <!-- LinkerHand O6 -->
     <g transform="translate(219.625625 313.913812)scale(0.1 -0.1)">
      <defs>
       <path id="NotoSansCJKjp-Regular-4c" d="M 640 0 
L 3283 0 
L 3283 506 
L 1235 506 
L 1235 4698 
L 640 4698 
L 640 0 
z
" transform="scale(0.015625)"/>
       <path id="NotoSansCJKjp-Regular-69" d="M 589 0 
L 1171 0 
L 1171 3475 
L 589 3475 
L 589 0 
z
M 883 4192 
C 1114 4192 1274 4346 1274 4582 
C 1274 4806 1114 4960 883 4960 
C 653 4960 493 4806 493 4582 
C 493 4346 653 4192 883 4192 
z
" transform="scale(0.015625)"/>
       <path id="NotoSansCJKjp-Regular-6e" d="M 589 0 
L 1171 0 
L 1171 2522 
C 1523 2874 1766 3053 2125 3053 
C 2586 3053 2784 2778 2784 2125 
L 2784 0 
L 3366 0 
L 3366 2202 
C 3366 3091 3034 3565 2304 3565 
C 1830 3565 1472 3302 1139 2976 
L 1120 2976 
L 1069 3475 
L 589 3475 
L 589 0 
z
" transform="scale(0.015625)"/>
       <path id="NotoSansCJKjp-Regular-6b" d="M 589 0 
L 1165 0 
L 1165 915 
L 1818 1677 
L 2835 0 
L 3469 0 
L 2157 2074 
L 3315 3475 
L 2662 3475 
L 1184 1638 
L 1165 1638 
L 1165 5094 
L 589 5094 
L 589 0 
z
" transform="scale(0.015625)"/>
       <path id="NotoSansCJKjp-Regular-65" d="M 1990 -83 
C 2464 -83 2835 77 3142 275 
L 2931 659 
C 2675 486 2400 384 2061 384 
C 1402 384 947 858 909 1600 
L 3251 1600 
C 3264 1683 3277 1805 3277 1933 
C 3277 2925 2778 3565 1894 3565 
C 1088 3565 326 2861 326 1734 
C 326 589 1069 -83 1990 -83 
z
M 902 2022 
C 973 2701 1408 3098 1901 3098 
C 2445 3098 2765 2720 2765 2022 
L 902 2022 
z
" transform="scale(0.015625)"/>
       <path id="NotoSansCJKjp-Regular-72" d="M 589 0 
L 1171 0 
L 1171 2234 
C 1402 2829 1760 3034 2048 3034 
C 2189 3034 2272 3021 2387 2976 
L 2496 3488 
C 2387 3546 2278 3565 2125 3565 
C 1734 3565 1382 3283 1139 2842 
L 1120 2842 
L 1069 3475 
L 589 3475 
L 589 0 
z
" transform="scale(0.015625)"/>
       <path id="NotoSansCJKjp-Regular-48" d="M 640 0 
L 1235 0 
L 1235 2214 
L 3424 2214 
L 3424 0 
L 4013 0 
L 4013 4698 
L 3424 4698 
L 3424 2726 
L 1235 2726 
L 1235 4698 
L 640 4698 
L 640 0 
z
" transform="scale(0.015625)"/>
       <path id="NotoSansCJKjp-Regular-61" d="M 1389 -83 
C 1818 -83 2208 141 2541 416 
L 2560 416 
L 2611 0 
L 3091 0 
L 3091 2138 
C 3091 2995 2733 3565 1888 3565 
C 1331 3565 838 3315 518 3110 
L 749 2707 
C 1024 2893 1389 3078 1792 3078 
C 2362 3078 2509 2650 2509 2202 
C 1030 2035 371 1658 371 902 
C 371 275 806 -83 1389 -83 
z
M 1555 384 
C 1210 384 941 544 941 941 
C 941 1389 1338 1677 2509 1818 
L 2509 845 
C 2170 544 1894 384 1555 384 
z
" transform="scale(0.015625)"/>
       <path id="NotoSansCJKjp-Regular-64" d="M 1773 -83 
C 2189 -83 2554 141 2829 410 
L 2848 410 
L 2899 0 
L 3373 0 
L 3373 5094 
L 2797 5094 
L 2797 3757 
L 2822 3155 
C 2515 3411 2253 3565 1843 3565 
C 1050 3565 339 2861 339 1734 
C 339 576 902 -83 1773 -83 
z
M 1901 403 
C 1286 403 941 902 941 1741 
C 941 2534 1382 3072 1946 3072 
C 2234 3072 2496 2970 2797 2707 
L 2797 883 
C 2502 563 2221 403 1901 403 
z
" transform="scale(0.015625)"/>
       <path id="NotoSansCJKjp-Regular-20" transform="scale(0.015625)"/>
       <path id="NotoSansCJKjp-Regular-4f" d="M 2374 -83 
C 3552 -83 4378 858 4378 2362 
C 4378 3866 3552 4781 2374 4781 
C 1197 4781 371 3866 371 2362 
C 371 858 1197 -83 2374 -83 
z
M 2374 435 
C 1530 435 979 1190 979 2362 
C 979 3539 1530 4262 2374 4262 
C 3213 4262 3770 3539 3770 2362 
C 3770 1190 3213 435 2374 435 
z
" transform="scale(0.015625)"/>
      </defs>
      <use xlink:href="#NotoSansCJKjp-Regular-4c"/>
      <use xlink:href="#NotoSansCJKjp-Regular-69" x="54.299988"/>
      <use xlink:href="#NotoSansCJKjp-Regular-6e" x="81.799973"/>
      <use xlink:href="#NotoSansCJKjp-Regular-6b" x="142.899963"/>
      <use xlink:href="#NotoSansCJKjp-Regular-65" x="198.09996"/>
      <use xlink:href="#NotoSansCJKjp-Regular-72" x="253.499954"/>
      <use xlink:href="#NotoSansCJKjp-Regular-48" x="292.299942"/>
      <use xlink:href="#NotoSansCJKjp-Regular-61" x="365.09993"/>
      <use xlink:href="#NotoSansCJKjp-Regular-6e" x="421.499924"/>
      <use xlink:href="#NotoSansCJKjp-Regular-64" x="482.599915"/>
      <use xlink:href="#NotoSansCJKjp-Regular-20" x="544.599899"/>
      <use xlink:href="#NotoSansCJKjp-Regular-4f" x="566.999893"/>
      <use xlink:href="#NotoSansCJKjp-Regular-36" x="641.199875"/>
     </g>
    </g>
    <g id="line2d_27">
     <path d="M 309.295938 310.413812 
L 319.295938 310.413812 
L 329.295938 310.413812 
" style="fill: none; stroke: #f28e2b; stroke-width: 2.4; stroke-linecap: square"/>
     <g>
      <use xlink:href="#mbc0e6189d9" x="319.295938" y="310.413812" style="fill: #f28e2b; stroke: #f28e2b"/>
     </g>
    </g>
    <g id="text_20">
     <!-- XHand -->
     <g transform="translate(337.295938 313.913812)scale(0.1 -0.1)">
      <defs>
       <path id="NotoSansCJKjp-Regular-58" d="M 109 0 
L 730 0 
L 1408 1267 
C 1530 1504 1651 1741 1786 2022 
L 1811 2022 
C 1965 1741 2093 1504 2214 1267 
L 2906 0 
L 3558 0 
L 2189 2394 
L 3469 4698 
L 2848 4698 
L 2221 3494 
C 2106 3277 2016 3078 1888 2810 
L 1862 2810 
C 1709 3078 1613 3277 1491 3494 
L 851 4698 
L 198 4698 
L 1478 2426 
L 109 0 
z
" transform="scale(0.015625)"/>
      </defs>
      <use xlink:href="#NotoSansCJKjp-Regular-58"/>
      <use xlink:href="#NotoSansCJKjp-Regular-48" x="57.299988"/>
      <use xlink:href="#NotoSansCJKjp-Regular-61" x="130.099976"/>
      <use xlink:href="#NotoSansCJKjp-Regular-6e" x="186.499969"/>
      <use xlink:href="#NotoSansCJKjp-Regular-64" x="247.59996"/>
     </g>
    </g>
    <g id="line2d_28">
     <path d="M 388.255313 310.413812 
L 398.255313 310.413812 
L 408.255313 310.413812 
" style="fill: none; stroke: #59a14f; stroke-width: 2.4; stroke-linecap: square"/>
     <g>
      <use xlink:href="#m9a4b3774fd" x="398.255313" y="310.413812" style="fill: #59a14f; stroke: #59a14f"/>
     </g>
    </g>
    <g id="text_21">
     <!-- WujiHand -->
     <g transform="translate(416.255313 313.913812)scale(0.1 -0.1)">
      <defs>
       <path id="NotoSansCJKjp-Regular-57" d="M 1158 0 
L 1862 0 
L 2560 2829 
C 2637 3200 2720 3539 2797 3898 
L 2822 3898 
C 2899 3539 2970 3200 3053 2829 
L 3763 0 
L 4474 0 
L 5446 4698 
L 4877 4698 
L 4384 2138 
C 4294 1638 4205 1133 4115 621 
L 4083 621 
C 3974 1133 3866 1638 3750 2138 
L 3098 4698 
L 2554 4698 
L 1907 2138 
C 1792 1632 1677 1126 1568 621 
L 1542 621 
C 1453 1126 1357 1632 1267 2138 
L 774 4698 
L 166 4698 
L 1158 0 
z
" transform="scale(0.015625)"/>
       <path id="NotoSansCJKjp-Regular-75" d="M 1600 -83 
C 2080 -83 2426 166 2752 544 
L 2771 544 
L 2816 0 
L 3302 0 
L 3302 3475 
L 2720 3475 
L 2720 1011 
C 2387 595 2138 422 1779 422 
C 1318 422 1126 698 1126 1344 
L 1126 3475 
L 544 3475 
L 544 1274 
C 544 390 870 -83 1600 -83 
z
" transform="scale(0.015625)"/>
       <path id="NotoSansCJKjp-Regular-6a" d="M 230 -1555 
C 915 -1555 1178 -1107 1178 -397 
L 1178 3475 
L 595 3475 
L 595 -397 
C 595 -819 512 -1082 166 -1082 
C 38 -1082 -77 -1050 -166 -1018 
L -282 -1466 
C -160 -1510 19 -1555 230 -1555 
z
M 883 4192 
C 1107 4192 1267 4346 1267 4582 
C 1267 4806 1107 4960 883 4960 
C 653 4960 493 4806 493 4582 
C 493 4346 653 4192 883 4192 
z
" transform="scale(0.015625)"/>
      </defs>
      <use xlink:href="#NotoSansCJKjp-Regular-57"/>
      <use xlink:href="#NotoSansCJKjp-Regular-75" x="87.799988"/>
      <use xlink:href="#NotoSansCJKjp-Regular-6a" x="148.499985"/>
      <use xlink:href="#NotoSansCJKjp-Regular-69" x="176.099976"/>
      <use xlink:href="#NotoSansCJKjp-Regular-48" x="203.59996"/>
      <use xlink:href="#NotoSansCJKjp-Regular-61" x="276.399948"/>
      <use xlink:href="#NotoSansCJKjp-Regular-6e" x="332.799942"/>
      <use xlink:href="#NotoSansCJKjp-Regular-64" x="393.899933"/>
     </g>
    </g>
   </g>
  </g>
 </g>
 <defs>
  <clipPath id="p3a86869cdc">
   <rect x="42.155" y="25.9675" width="569.16" height="299.376"/>
  </clipPath>
 </defs>
</svg>
